<?xml version="1.0" encoding="UTF-8"?>
<svg version="1.1" xmlns="http://www.w3.org/2000/svg" width="40" height="40">
<path d="M0 0 C2.31 0 4.62 0 7 0 C6.34 2.31 5.68 4.62 5 7 C2.03 7 -0.94 7 -4 7 C-4.33 8.65 -4.66 10.3 -5 12 C-4.15695313 12.02578125 -3.31390625 12.0515625 -2.4453125 12.078125 C-0.80175781 12.16320312 -0.80175781 12.16320312 0.875 12.25 C1.96554688 12.29640625 3.05609375 12.3428125 4.1796875 12.390625 C5.11039063 12.59171875 6.04109375 12.7928125 7 13 C7.66 14.32 8.32 15.64 9 17 C3.72 17 -1.56 17 -7 17 C-7 19.31 -7 21.62 -7 24 C0.92 24 8.84 24 17 24 C17 21.69 17 19.38 17 17 C18.32 17 19.64 17 21 17 C21 21.29 21 25.58 21 30 C19.35 30.33 17.7 30.66 16 31 C16 30.01 16 29.02 16 28 C8.74 28 1.48 28 -6 28 C-6 28.99 -6 29.98 -6 31 C-7.65 30.67 -9.3 30.34 -11 30 C-11.46301889 20.46952795 -11.30615899 12.75066847 -7 4 C-6 3 -6 3 -2.9375 2.9375 C-1.4834375 2.9684375 -1.4834375 2.9684375 0 3 C0 2.01 0 1.02 0 0 Z " fill="#202020" transform="translate(15,8)"/>
<path d="M0 0 C2.82847039 2.60517009 3.8665852 4.1995112 4.5 8 C3.86089908 11.83460553 2.89357127 13.40320527 0 16 C-4.00803597 17.1659741 -6.05282711 17.43240501 -9.875 15.6875 C-12 14 -12 14 -13 12 C-13.58203713 4.78273959 -13.58203713 4.78273959 -11.1875 1.5625 C-7.25706912 -1.24495063 -4.55887601 -1.302536 0 0 Z M-2 5 C-3.65 6.65 -5.3 8.3 -7 10 C-3.99740483 10.33218192 -3.99740483 10.33218192 -2.3125 8.5 C-1.879375 8.005 -1.44625 7.51 -1 7 C-1.33 6.34 -1.66 5.68 -2 5 Z " fill="#202020" transform="translate(35,7)"/>
<path d="M0 0 C2.62187494 1.04874998 3.79371361 1.64931313 5.25 4.125 C5.4975 4.74375 5.745 5.3625 6 6 C5.01 6.66 4.02 7.32 3 8 C0.9375 6.25 0.9375 6.25 -1 4 C-0.75 1.75 -0.75 1.75 0 0 Z " fill="#212121" transform="translate(7,1)"/>
<path d="M0 0 C1.98 0 3.96 0 6 0 C6 1.32 6 2.64 6 4 C3.69 4 1.38 4 -1 4 C-0.67 2.68 -0.34 1.36 0 0 Z " fill="#202020" transform="translate(24,26)"/>
<path d="M0 0 C1.98 0 3.96 0 6 0 C6.33 1.32 6.66 2.64 7 4 C4.69 4 2.38 4 0 4 C0 2.68 0 1.36 0 0 Z " fill="#202020" transform="translate(10,26)"/>
<path d="M0 0 C1.32 0 2.64 0 4 0 C4 1.98 4 3.96 4 6 C2.68 6 1.36 6 0 6 C0 4.02 0 2.04 0 0 Z " fill="#202020" transform="translate(18,0)"/>
</svg>
