<?xml version="1.0" encoding="UTF-8"?>
<!DOCTYPE svg PUBLIC "-//W3C//DTD SVG 1.1//EN" "http://www.w3.org/Graphics/SVG/1.1/DTD/svg11.dtd">
<svg xmlns="http://www.w3.org/2000/svg" version="1.1" width="40px" height="88px" style="shape-rendering:geometricPrecision; text-rendering:geometricPrecision; image-rendering:optimizeQuality; fill-rule:evenodd; clip-rule:evenodd" xmlns:xlink="http://www.w3.org/1999/xlink">
<g><path style="opacity:0.979" fill="#e12625" d="M 6.5,-0.5 C 9.83333,-0.5 13.1667,-0.5 16.5,-0.5C 23.5216,4.17545 25.3549,10.5088 22,18.5C 17.0528,23.6846 11.2194,24.8513 4.5,22C 2.59809,20.2703 0.93142,18.437 -0.5,16.5C -0.5,13.1667 -0.5,9.83333 -0.5,6.5C 1.5,3.83333 3.83333,1.5 6.5,-0.5 Z"/></g>
<g><path style="opacity:1" fill="#f4e2e2" d="M 10.5,5.5 C 11.7479,6.3339 12.4146,7.66723 12.5,9.5C 12.1667,10.8333 11.8333,12.1667 11.5,13.5C 10.52,10.9135 10.1866,8.24688 10.5,5.5 Z"/></g>
<g><path style="opacity:1" fill="#f3e1e1" d="M 10.5,14.5 C 12.4646,14.9483 12.7979,15.9483 11.5,17.5C 10.6143,16.675 10.281,15.675 10.5,14.5 Z"/></g>
<g><path style="opacity:0.978" fill="#80696b" d="M 39.5,35.5 C 39.5,37.5 39.5,39.5 39.5,41.5C 38.5489,42.9187 38.2155,44.5853 38.5,46.5C 36.5,46.5 34.5,46.5 32.5,46.5C 29.9107,44.8427 27.2441,44.5094 24.5,45.5C 22.9826,45.4894 21.8159,44.8228 21,43.5C 20.2754,41.0506 19.2754,38.7173 18,36.5C 15.3908,39.3832 13.5575,42.7166 12.5,46.5C 11.0951,46.76 9.76178,47.0934 8.5,47.5C 8.16667,47.5 7.83333,47.5 7.5,47.5C 8.49912,42.513 8.66578,37.513 8,32.5C 13.4308,26.199 20.2641,23.3656 28.5,24C 31.2487,25.1227 33.7487,26.6227 36,28.5C 37.2126,30.9252 38.3793,33.2585 39.5,35.5 Z"/></g>
<g><path style="opacity:1" fill="#b59e8d" d="M 32.5,46.5 C 32.6495,47.552 32.4828,48.552 32,49.5C 29.0508,49.3942 26.5508,48.0609 24.5,45.5C 27.2441,44.5094 29.9107,44.8427 32.5,46.5 Z"/></g>
<g><path style="opacity:0.936" fill="#a29c92" d="M 7.5,47.5 C 7.83333,47.5 8.16667,47.5 8.5,47.5C 8.83333,49.5 9.16667,51.5 9.5,53.5C 8.83333,53.5 8.5,53.8333 8.5,54.5C 7.43236,55.4345 6.09903,55.7678 4.5,55.5C 2.88475,52.2536 3.21808,49.2536 5.5,46.5C 6.18346,46.8627 6.85013,47.1961 7.5,47.5 Z"/></g>
<g><path style="opacity:0.945" fill="#f7e2d2" d="M 24.5,45.5 C 26.5508,48.0609 29.0508,49.3942 32,49.5C 32.4828,48.552 32.6495,47.552 32.5,46.5C 34.5,46.5 36.5,46.5 38.5,46.5C 38.8333,46.5 39.1667,46.5 39.5,46.5C 39.5,47.8333 39.5,49.1667 39.5,50.5C 38.8333,51.5 38.1667,52.5 37.5,53.5C 36.448,53.3505 35.448,53.5172 34.5,54C 32.6397,57.3603 29.973,59.8603 26.5,61.5C 27.3398,62.735 28.3398,63.735 29.5,64.5C 29.6621,66.5273 29.4955,68.5273 29,70.5C 27.3883,67.9211 25.8883,67.9211 24.5,70.5C 27.1245,73.0476 29.7911,73.0476 32.5,70.5C 35.0153,72.3176 35.0153,74.3176 32.5,76.5C 25.682,77.5839 20.0154,75.5839 15.5,70.5C 13.8487,69.0299 12.0153,67.6966 10,66.5C 6.53434,71.0389 6.701,75.3723 10.5,79.5C 7.72768,82.1825 4.89435,82.5158 2,80.5C 2.60719,72.1771 3.44053,63.8438 4.5,55.5C 6.09903,55.7678 7.43236,55.4345 8.5,54.5C 9.16667,54.5 9.5,54.1667 9.5,53.5C 9.16667,51.5 8.83333,49.5 8.5,47.5C 9.76178,47.0934 11.0951,46.76 12.5,46.5C 13.5575,42.7166 15.3908,39.3832 18,36.5C 19.2754,38.7173 20.2754,41.0506 21,43.5C 21.8159,44.8228 22.9826,45.4894 24.5,45.5 Z"/></g>
<g><path style="opacity:0.967" fill="#8c7c80" d="M 37.5,53.5 C 38.7313,57.7456 38.0647,61.7456 35.5,65.5C 34.0413,65.5674 32.7079,65.2341 31.5,64.5C 30.8333,64.5 30.1667,64.5 29.5,64.5C 28.3398,63.735 27.3398,62.735 26.5,61.5C 29.973,59.8603 32.6397,57.3603 34.5,54C 35.448,53.5172 36.448,53.3505 37.5,53.5 Z"/></g>
<g><path style="opacity:1" fill="#978985" d="M 11.5,53.5 C 13.4208,55.0012 15.0875,56.8345 16.5,59C 15.6598,60.6665 16.1598,60.8331 18,59.5C 20.894,61.454 21.0607,63.7874 18.5,66.5C 13.2006,63.9122 10.8673,59.5788 11.5,53.5 Z"/></g>
<g><path style="opacity:0.969" fill="#f8d9e7" d="M 31.5,64.5 C 32.7079,65.2341 34.0413,65.5674 35.5,65.5C 36.8333,66.5 38.1667,67.5 39.5,68.5C 39.5,71.8333 39.5,75.1667 39.5,78.5C 38.3951,79.6005 37.0618,80.2671 35.5,80.5C 34.9779,78.7809 33.9779,77.4475 32.5,76.5C 35.0153,74.3176 35.0153,72.3176 32.5,70.5C 31.8505,68.5648 31.5172,66.5648 31.5,64.5 Z"/></g>
<g><path style="opacity:0.977" fill="#f9dae7" d="M 15.5,70.5 C 14.3745,73.4651 13.3745,76.4651 12.5,79.5C 11.8333,79.5 11.1667,79.5 10.5,79.5C 6.701,75.3723 6.53434,71.0389 10,66.5C 12.0153,67.6966 13.8487,69.0299 15.5,70.5 Z"/></g>
<g><path style="opacity:1" fill="#f09fc2" d="M 29.5,64.5 C 30.1667,64.5 30.8333,64.5 31.5,64.5C 31.5172,66.5648 31.8505,68.5648 32.5,70.5C 29.7911,73.0476 27.1245,73.0476 24.5,70.5C 25.8883,67.9211 27.3883,67.9211 29,70.5C 29.4955,68.5273 29.6621,66.5273 29.5,64.5 Z"/></g>
<g><path style="opacity:0.972" fill="#ef99be" d="M 15.5,70.5 C 20.0154,75.5839 25.682,77.5839 32.5,76.5C 33.9779,77.4475 34.9779,78.7809 35.5,80.5C 35.5,82.5 35.5,84.5 35.5,86.5C 34.209,86.2627 33.209,86.596 32.5,87.5C 25.8333,87.5 19.1667,87.5 12.5,87.5C 12.5,84.8333 12.5,82.1667 12.5,79.5C 13.3745,76.4651 14.3745,73.4651 15.5,70.5 Z"/></g>
</svg>
