<?xml version="1.0" encoding="UTF-8"?>
<!DOCTYPE svg PUBLIC "-//W3C//DTD SVG 1.1//EN" "http://www.w3.org/Graphics/SVG/1.1/DTD/svg11.dtd">
<svg xmlns="http://www.w3.org/2000/svg" version="1.1" width="312px" height="148px" style="shape-rendering:geometricPrecision; text-rendering:geometricPrecision; image-rendering:optimizeQuality; fill-rule:evenodd; clip-rule:evenodd" xmlns:xlink="http://www.w3.org/1999/xlink">
<g><path style="opacity:0.983" fill="#e02222" d="M 75.5,34.5 C 75.5,36.8333 75.5,39.1667 75.5,41.5C 72.5156,55.6535 63.8489,64.4869 49.5,68C 44.1984,69.0887 38.865,69.922 33.5,70.5C 33.5,80.1667 33.5,89.8333 33.5,99.5C 23.8333,99.5 14.1667,99.5 4.5,99.5C 4.16683,69.8258 4.50017,40.1592 5.5,10.5C 22.8369,4.43993 40.1702,4.27327 57.5,10C 67.6068,15.2569 73.6068,23.4235 75.5,34.5 Z M 36.5,31.5 C 42.8223,30.9861 46.4889,33.8194 47.5,40C 46.052,47.0615 41.7187,50.2282 34.5,49.5C 33.9469,43.2079 34.6136,37.2079 36.5,31.5 Z"/></g>
<g><path style="opacity:0.107" fill="#fbe3e3" d="M 164.5,57.5 C 172.436,47.3824 174.603,36.0491 171,23.5C 165.382,10.7743 155.882,6.27434 142.5,10C 135.99,15.3436 129.99,21.1769 124.5,27.5C 121.768,24.7727 119.434,21.7727 117.5,18.5C 120.13,20.6281 122.63,22.9614 125,25.5C 130.181,18.6533 136.347,12.8199 143.5,8C 156.67,4.83546 166.17,9.33546 172,21.5C 174.257,31.2779 173.924,40.9445 171,50.5C 169.334,53.3312 167.168,55.6645 164.5,57.5 Z"/></g>
<g><path style="opacity:0.987" fill="#e02222" d="M 225.5,88.5 C 225.167,89.1667 224.833,89.8333 224.5,90.5C 207.525,92.109 190.525,93.4424 173.5,94.5C 174.284,65.1709 174.951,35.8376 175.5,6.5C 186.167,6.5 196.833,6.5 207.5,6.5C 206.112,24.8268 204.778,43.1602 203.5,61.5C 211.5,61.5 219.5,61.5 227.5,61.5C 227.219,70.5353 226.553,79.5353 225.5,88.5 Z"/></g>
<g><path style="opacity:0.984" fill="#e12222" d="M 224.5,90.5 C 224.833,89.8333 225.167,89.1667 225.5,88.5C 233.739,62.4378 241.406,36.1045 248.5,9.5C 259.75,9.30302 270.917,8.63636 282,7.5C 291.065,35.868 299.232,64.5347 306.5,93.5C 297.48,94.2524 288.48,95.2524 279.5,96.5C 278.167,96.1667 276.833,95.8333 275.5,95.5C 274.341,91.199 273.341,86.8656 272.5,82.5C 268.116,82.1744 263.783,82.5078 259.5,83.5C 258.5,87.5 257.5,91.5 256.5,95.5C 254.833,95.8333 253.167,96.1667 251.5,96.5C 242.84,95.6006 234.173,94.7673 225.5,94C 225.347,92.7913 225.014,91.6246 224.5,90.5 Z M 265.5,44.5 C 267.196,50.3019 268.53,56.3019 269.5,62.5C 267.167,62.5 264.833,62.5 262.5,62.5C 263.5,56.5 264.5,50.5 265.5,44.5 Z"/></g>
<g><path style="opacity:0.993" fill="#e02424" d="M 117.5,18.5 C 119.434,21.7727 121.768,24.7727 124.5,27.5C 129.99,21.1769 135.99,15.3436 142.5,10C 155.882,6.27434 165.382,10.7743 171,23.5C 174.603,36.0491 172.436,47.3824 164.5,57.5C 155.827,57.3336 147.16,57.5002 138.5,58C 136.264,62.1944 133.931,66.3611 131.5,70.5C 128.241,61.2242 125.075,51.8909 122,42.5C 121.261,41.4258 120.261,40.7591 119,40.5C 115.401,45.3612 112.568,50.6945 110.5,56.5C 102.187,57.6651 93.8533,57.8317 85.5,57C 78.1028,48.5938 75.1028,38.7604 76.5,27.5C 86.0269,5.77886 99.6935,2.77886 117.5,18.5 Z"/></g>
<g><path style="opacity:0.153" fill="#fceae9" d="M 117.5,18.5 C 99.6935,2.77886 86.0269,5.77886 76.5,27.5C 80.6142,10.2701 91.2809,4.10345 108.5,9C 112.402,11.3997 115.402,14.5664 117.5,18.5 Z"/></g>
<g><path style="opacity:0.997" fill="#369ed0" d="M 136.5,69.5 C 137.933,67.4809 139.267,65.3143 140.5,63C 146.528,62.1697 152.528,62.3364 158.5,63.5C 149.687,74.1472 140.687,84.6472 131.5,95C 126.874,96.7559 122.207,96.9226 117.5,95.5C 114.29,91.0794 110.623,87.0794 106.5,83.5C 101.405,76.561 96.072,69.7276 90.5,63C 97.8333,62.6667 105.167,62.3333 112.5,62C 113.337,60.9887 113.67,59.8221 113.5,58.5C 115.818,56.8148 116.818,54.4815 116.5,51.5C 117.79,50.9423 118.623,49.9423 119,48.5C 122.118,58.475 125.618,68.3084 129.5,78C 130.944,78.7805 132.277,78.6139 133.5,77.5C 135.076,75.0207 136.076,72.354 136.5,69.5 Z"/></g>
<g><path style="opacity:0.216" fill="#f2e2e1" d="M 76.5,27.5 C 75.1028,38.7604 78.1028,48.5938 85.5,57C 93.8533,57.8317 102.187,57.6651 110.5,56.5C 112.568,50.6945 115.401,45.3612 119,40.5C 120.261,40.7591 121.261,41.4258 122,42.5C 125.075,51.8909 128.241,61.2242 131.5,70.5C 133.931,66.3611 136.264,62.1944 138.5,58C 147.16,57.5002 155.827,57.3336 164.5,57.5C 164.389,58.1174 164.056,58.6174 163.5,59C 155.167,59.3333 146.833,59.6667 138.5,60C 136.408,64.0145 134.741,68.1812 133.5,72.5C 132.178,72.67 131.011,72.3366 130,71.5C 126.982,61.6091 123.482,51.9424 119.5,42.5C 116.04,47.6796 113.04,53.1796 110.5,59C 106.5,59.1667 102.5,59.3333 98.5,59.5C 88.7667,61.8827 81.9334,58.5494 78,49.5C 77.16,46.7983 76.3267,44.1317 75.5,41.5C 75.5,39.1667 75.5,36.8333 75.5,34.5C 75.1984,31.9407 75.5318,29.6074 76.5,27.5 Z"/></g>
<g><path style="opacity:0.029" fill="#e5f2f9" d="M 116.5,51.5 C 116.818,54.4815 115.818,56.8148 113.5,58.5C 113.707,55.7594 114.707,53.4261 116.5,51.5 Z"/></g>
<g><path style="opacity:0.416" fill="#e4edf3" d="M 113.5,58.5 C 113.67,59.8221 113.337,60.9887 112.5,62C 105.167,62.3333 97.8333,62.6667 90.5,63C 96.072,69.7276 101.405,76.561 106.5,83.5C 101.532,78.362 96.6991,73.0286 92,67.5C 90.0972,65.559 89.2639,63.2257 89.5,60.5C 97.7721,61.0846 105.772,60.4179 113.5,58.5 Z"/></g>
<g><path style="opacity:0.408" fill="#e9eaee" d="M 117.5,95.5 C 122.207,96.9226 126.874,96.7559 131.5,95C 140.687,84.6472 149.687,74.1472 158.5,63.5C 152.528,62.3364 146.528,62.1697 140.5,63C 139.267,65.3143 137.933,67.4809 136.5,69.5C 136.884,66.2307 138.218,63.3974 140.5,61C 146.833,60.3333 153.167,60.3333 159.5,61C 160.517,62.0495 160.684,63.2161 160,64.5C 151.725,74.2013 143.558,84.0346 135.5,94C 130.334,97.3544 124.668,98.3544 118.5,97C 117.944,96.6174 117.611,96.1174 117.5,95.5 Z"/></g>
<g><path style="opacity:0.027" fill="#f0f8fb" d="M 136.5,69.5 C 136.076,72.354 135.076,75.0207 133.5,77.5C 132.277,78.6139 130.944,78.7805 129.5,78C 125.618,68.3084 122.118,58.475 119,48.5C 118.623,49.9423 117.79,50.9423 116.5,51.5C 116.603,48.4356 117.936,47.4356 120.5,48.5C 123.74,58.0543 127.073,67.5543 130.5,77C 131.332,77.6877 131.998,77.521 132.5,76.5C 133.608,73.9409 134.941,71.6076 136.5,69.5 Z"/></g>
<g><path style="opacity:0.027" fill="#d8dbe0" d="M 106.5,83.5 C 110.623,87.0794 114.29,91.0794 117.5,95.5C 115.284,94.7974 113.451,93.4641 112,91.5C 109.92,88.9348 108.087,86.2682 106.5,83.5 Z"/></g>
<g><path style="opacity:0.668" fill="#000000" d="M 31.5,147.5 C 30.1667,147.5 28.8333,147.5 27.5,147.5C 26.7222,146.844 26.0556,146.011 25.5,145C 26.2024,142.114 26.5357,139.281 26.5,136.5C 27.3279,135.585 28.3279,134.919 29.5,134.5C 31.0709,135.309 32.7376,135.643 34.5,135.5C 34.5,134.167 34.5,132.833 34.5,131.5C 35.5,131.5 36.5,131.5 37.5,131.5C 37.3379,133.527 37.5045,135.527 38,137.5C 39.0665,135.717 40.5665,135.217 42.5,136C 40.339,137.764 40.1723,139.597 42,141.5C 43.0173,139.624 43.8506,137.624 44.5,135.5C 46.2237,134.339 47.8904,134.505 49.5,136C 50.435,138.381 50.7683,140.881 50.5,143.5C 46.0492,144.71 41.8825,144.044 38,141.5C 35.6407,143.393 33.474,145.393 31.5,147.5 Z M 33.5,137.5 C 34.6129,138.946 34.7796,140.613 34,142.5C 33.2496,141.874 32.4162,141.374 31.5,141C 32.8228,140.184 33.4894,139.017 33.5,137.5 Z"/></g>
<g><path style="opacity:0.714" fill="#000000" d="M 51.5,131.5 C 52.5,131.5 53.5,131.5 54.5,131.5C 54.7262,135.964 54.7262,140.297 54.5,144.5C 53.5224,144.023 52.6891,143.357 52,142.5C 51.5014,138.848 51.3347,135.182 51.5,131.5 Z"/></g>
<g><path style="opacity:0.577" fill="#000000" d="M 56.5,131.5 C 57.5,131.5 58.5,131.5 59.5,131.5C 59.5,132.5 59.5,133.5 59.5,134.5C 58.5,134.5 57.5,134.5 56.5,134.5C 56.5,133.5 56.5,132.5 56.5,131.5 Z"/></g>
<g><path style="opacity:0.745" fill="#000000" d="M 134.5,131.5 C 135.5,131.5 136.5,131.5 137.5,131.5C 137.343,132.873 137.51,134.207 138,135.5C 142.136,135.038 143.469,137.038 142,141.5C 140.17,144.664 137.67,145.331 134.5,143.5C 134.5,139.5 134.5,135.5 134.5,131.5 Z M 137.5,137.5 C 139.852,138.543 140.019,139.876 138,141.5C 137.51,140.207 137.343,138.873 137.5,137.5 Z"/></g>
<g><path style="opacity:0.705" fill="#000000" d="M 166.5,142.5 C 165.686,144.273 164.352,144.773 162.5,144C 160.926,142.174 160.093,140.007 160,137.5C 158.858,139.618 158.358,141.618 158.5,143.5C 155.502,144.588 153.336,143.588 152,140.5C 151.517,141.448 151.351,142.448 151.5,143.5C 150.5,143.5 149.5,143.5 148.5,143.5C 147.833,136.833 147.167,136.833 146.5,143.5C 145.5,143.5 144.5,143.5 143.5,143.5C 143.5,139.5 143.5,135.5 143.5,131.5C 144.5,131.5 145.5,131.5 146.5,131.5C 146.343,132.873 146.51,134.207 147,135.5C 149.488,134.588 151.155,135.588 152,138.5C 153.714,134.779 156.047,134.113 159,136.5C 163.702,132.302 165.535,133.302 164.5,139.5C 164.453,141.038 165.12,142.038 166.5,142.5 Z"/></g>
<g><path style="opacity:0.563" fill="#000000" d="M 226.5,131.5 C 227.5,131.5 228.5,131.5 229.5,131.5C 229.5,132.5 229.5,133.5 229.5,134.5C 228.5,134.5 227.5,134.5 226.5,134.5C 226.5,133.5 226.5,132.5 226.5,131.5 Z"/></g>
<g><path style="opacity:0.682" fill="#000000" d="M 294.5,136.5 C 293.067,139.282 291.9,142.282 291,145.5C 290.005,146.066 289.172,146.733 288.5,147.5C 287.833,147.5 287.167,147.5 286.5,147.5C 286.48,145.857 287.147,144.524 288.5,143.5C 287.568,141.205 286.735,138.871 286,136.5C 284.354,137.941 284.187,139.608 285.5,141.5C 285.048,143.312 283.882,144.312 282,144.5C 279.036,144.117 276.37,143.117 274,141.5C 271.131,144.042 268.131,144.042 265,141.5C 263.7,142.707 262.2,143.374 260.5,143.5C 261.091,140.06 262.091,136.727 263.5,133.5C 264.689,132.571 266.022,132.238 267.5,132.5C 269.91,144.415 270.91,144.081 270.5,131.5C 271.5,131.5 272.5,131.5 273.5,131.5C 273.338,133.527 273.505,135.527 274,137.5C 275.067,135.717 276.567,135.217 278.5,136C 276.027,137.925 276.027,139.758 278.5,141.5C 279.308,141.192 279.975,140.692 280.5,140C 279.253,138.506 279.253,137.006 280.5,135.5C 283.383,135.128 286.383,135.128 289.5,135.5C 289.459,139.243 290.126,139.41 291.5,136C 292.749,135.26 293.749,135.427 294.5,136.5 Z"/></g>
<g><path style="opacity:0.701" fill="#000000" d="M -0.5,132.5 C 4.74281,133.219 9.74281,134.219 14.5,135.5C 15.48,138.086 15.8134,140.753 15.5,143.5C 9.29289,145.792 7.12623,143.792 9,137.5C 7.49121,139.919 5.32454,140.919 2.5,140.5C 2.5,141.5 2.5,142.5 2.5,143.5C 1.5,143.5 0.5,143.5 -0.5,143.5C -0.5,139.833 -0.5,136.167 -0.5,132.5 Z M 2.5,135.5 C 4.98279,135.73 5.48279,136.397 4,137.5C 2.97008,137.164 2.47008,136.497 2.5,135.5 Z"/></g>
<g><path style="opacity:0.669" fill="#000000" d="M 125.5,132.5 C 132.433,132.696 134.6,136.029 132,142.5C 127.114,145.477 123.947,144.144 122.5,138.5C 122.984,136.199 123.984,134.199 125.5,132.5 Z M 126.5,135.5 C 127.5,135.5 128.5,135.5 129.5,135.5C 128.5,143.5 127.5,143.5 126.5,135.5 Z"/></g>
<g><path style="opacity:0.778" fill="#000000" d="M 190.5,141.5 C 188.721,143.344 186.388,144.01 183.5,143.5C 183.5,139.833 183.5,136.167 183.5,132.5C 184.5,132.5 185.5,132.5 186.5,132.5C 186.5,135.5 186.5,138.5 186.5,141.5C 187.833,141.5 189.167,141.5 190.5,141.5 Z"/></g>
<g><path style="opacity:0.715" fill="#000000" d="M 245.5,132.5 C 246.833,132.5 248.167,132.5 249.5,132.5C 250.016,135.899 250.85,139.232 252,142.5C 252.056,139.733 252.222,137.067 252.5,134.5C 253,134.167 253.5,133.833 254,133.5C 255.319,134.319 256.485,135.319 257.5,136.5C 256.585,137.328 255.919,138.328 255.5,139.5C 256.547,141.056 257.214,142.723 257.5,144.5C 253.767,144.295 250.267,143.295 247,141.5C 245.7,142.707 244.2,143.374 242.5,143.5C 243.303,139.761 244.303,136.095 245.5,132.5 Z"/></g>
<g><path style="opacity:0.678" fill="#000000" d="M 66.5,147.5 C 64.8333,147.5 63.1667,147.5 61.5,147.5C 60.4113,143.922 60.2446,140.255 61,136.5C 64.3154,135.633 67.6488,134.633 71,133.5C 72.3188,134.319 73.4855,135.319 74.5,136.5C 72.5989,137.935 72.2655,139.602 73.5,141.5C 74.7952,139.672 75.7952,137.672 76.5,135.5C 78.4959,134.39 80.3292,134.724 82,136.5C 82.3333,138.5 82.6667,140.5 83,142.5C 83.7491,140.32 84.2491,137.987 84.5,135.5C 85.8333,134.167 87.1667,134.167 88.5,135.5C 88.3355,137.396 88.6689,139.396 89.5,141.5C 89.1667,143.167 88.1667,144.167 86.5,144.5C 83.5,143.167 80.5,143.167 77.5,144.5C 76.5224,144.023 75.6891,143.357 75,142.5C 73.4506,145.003 71.7839,145.003 70,142.5C 69.5868,137.087 68.4201,136.587 66.5,141C 69.1138,143.243 69.1138,145.41 66.5,147.5 Z"/></g>
<g><path style="opacity:0.682" fill="#000000" d="M 21.5,134.5 C 22.1499,134.804 22.8165,135.137 23.5,135.5C 24.48,138.086 24.8134,140.753 24.5,143.5C 23.5,143.5 22.5,143.5 21.5,143.5C 21.1667,135.5 20.8333,135.5 20.5,143.5C 19.1667,143.5 17.8333,143.5 16.5,143.5C 16.5,140.833 16.5,138.167 16.5,135.5C 18.4147,135.784 20.0813,135.451 21.5,134.5 Z"/></g>
<g><path style="opacity:0.718" fill="#000000" d="M 93.5,134.5 C 94.5832,134.539 95.5832,134.873 96.5,135.5C 97.48,138.086 97.8134,140.753 97.5,143.5C 95.2478,144.333 93.0811,144.333 91,143.5C 91.0479,141.074 90.8812,138.741 90.5,136.5C 91.6016,135.824 92.6016,135.158 93.5,134.5 Z"/></g>
<g><path style="opacity:0.663" fill="#000000" d="M 113.5,147.5 C 112.167,147.5 110.833,147.5 109.5,147.5C 108.194,146.533 107.527,145.199 107.5,143.5C 106.167,143.5 104.833,143.5 103.5,143.5C 103.167,135.5 102.833,135.5 102.5,143.5C 101.5,143.5 100.5,143.5 99.5,143.5C 99.5,140.833 99.5,138.167 99.5,135.5C 101.262,135.643 102.929,135.309 104.5,134.5C 105.719,135.263 106.719,136.263 107.5,137.5C 110.08,133.934 113.08,133.6 116.5,136.5C 115.872,138.258 114.872,139.758 113.5,141C 117.395,143.154 117.395,145.321 113.5,147.5 Z"/></g>
<g><path style="opacity:0.697" fill="#000000" d="M 166.5,142.5 C 165.043,137.049 167.043,134.716 172.5,135.5C 175.47,139.29 174.803,142.29 170.5,144.5C 169.14,143.82 167.807,143.153 166.5,142.5 Z M 169.5,137.5 C 171.852,138.543 172.019,139.876 170,141.5C 169.51,140.207 169.343,138.873 169.5,137.5 Z"/></g>
<g><path style="opacity:0.704" fill="#000000" d="M 198.5,136.5 C 198.5,138.833 198.5,141.167 198.5,143.5C 196.738,143.357 195.071,143.691 193.5,144.5C 192.265,143.66 191.265,142.66 190.5,141.5C 190.953,140.542 191.619,139.708 192.5,139C 191.196,136.522 192.03,135.022 195,134.5C 196.303,134.978 197.469,135.645 198.5,136.5 Z"/></g>
<g><path style="opacity:0.746" fill="#000000" d="M 221.5,134.5 C 223.017,134.511 224.184,135.177 225,136.5C 225.497,138.81 225.663,141.143 225.5,143.5C 224.5,143.5 223.5,143.5 222.5,143.5C 221.833,136.833 221.167,136.833 220.5,143.5C 219.5,143.5 218.5,143.5 217.5,143.5C 217.5,140.833 217.5,138.167 217.5,135.5C 219.099,135.768 220.432,135.434 221.5,134.5 Z"/></g>
<g><path style="opacity:0.683" fill="#000000" d="M 234.5,134.5 C 235.583,134.539 236.583,134.873 237.5,135.5C 238.48,138.086 238.813,140.753 238.5,143.5C 237.5,143.5 236.5,143.5 235.5,143.5C 235.167,135.5 234.833,135.5 234.5,143.5C 233.167,143.5 231.833,143.5 230.5,143.5C 230.5,140.833 230.5,138.167 230.5,135.5C 232.099,135.768 233.432,135.434 234.5,134.5 Z"/></g>
<g><path style="opacity:0.714" fill="#000000" d="M 294.5,136.5 C 300.716,133.54 303.216,135.54 302,142.5C 296.126,145.285 293.626,143.285 294.5,136.5 Z M 297.5,137.5 C 299.476,138.427 299.809,139.76 298.5,141.5C 297.571,140.311 297.238,138.978 297.5,137.5 Z"/></g>
<g><path style="opacity:0.732" fill="#000000" d="M 311.5,135.5 C 311.5,138.167 311.5,140.833 311.5,143.5C 310.5,143.5 309.5,143.5 308.5,143.5C 308.294,135.699 307.628,135.699 306.5,143.5C 305.5,143.5 304.5,143.5 303.5,143.5C 303.5,140.833 303.5,138.167 303.5,135.5C 306.256,134.746 308.922,134.746 311.5,135.5 Z"/></g>
<g><path style="opacity:0.781" fill="#000000" d="M 56.5,135.5 C 57.5,135.5 58.5,135.5 59.5,135.5C 59.5,138.167 59.5,140.833 59.5,143.5C 58.5,143.5 57.5,143.5 56.5,143.5C 56.5,140.833 56.5,138.167 56.5,135.5 Z"/></g>
<g><path style="opacity:0.651" fill="#000000" d="M 198.5,136.5 C 200.287,135.183 201.954,135.516 203.5,137.5C 204.524,136.147 205.857,135.48 207.5,135.5C 206.607,139.852 204.94,143.852 202.5,147.5C 201.833,147.5 201.167,147.5 200.5,147.5C 199.274,145.813 199.608,144.313 201.5,143C 200.961,140.518 199.961,138.352 198.5,136.5 Z"/></g>
<g><path style="opacity:0.671" fill="#000000" d="M 208.5,135.5 C 209.5,135.5 210.5,135.5 211.5,135.5C 211.833,143.5 212.167,143.5 212.5,135.5C 213.833,135.5 215.167,135.5 216.5,135.5C 216.5,138.167 216.5,140.833 216.5,143.5C 214.131,143.851 211.797,144.018 209.5,144C 208.556,141.281 208.223,138.448 208.5,135.5 Z"/></g>
<g><path style="opacity:0.74" fill="#000000" d="M 226.5,135.5 C 227.5,135.5 228.5,135.5 229.5,135.5C 229.5,138.167 229.5,140.833 229.5,143.5C 228.5,143.5 227.5,143.5 226.5,143.5C 226.5,140.833 226.5,138.167 226.5,135.5 Z"/></g>
<g><path style="opacity:0.603" fill="#000000" d="M 176.5,147.5 C 176.167,147.5 175.833,147.5 175.5,147.5C 176.197,145.33 176.197,142.996 175.5,140.5C 177.359,140.461 178.692,141.294 179.5,143C 178.614,144.615 177.614,146.115 176.5,147.5 Z"/></g>
</svg>
