<?xml version="1.0" encoding="UTF-8"?>
<!DOCTYPE svg PUBLIC "-//W3C//DTD SVG 1.1//EN" "http://www.w3.org/Graphics/SVG/1.1/DTD/svg11.dtd">
<svg xmlns="http://www.w3.org/2000/svg" version="1.1" width="328px" height="196px" style="shape-rendering:geometricPrecision; text-rendering:geometricPrecision; image-rendering:optimizeQuality; fill-rule:evenodd; clip-rule:evenodd" xmlns:xlink="http://www.w3.org/1999/xlink">
<g><path style="opacity:1" fill="#ddeff9" d="M -0.5,-0.5 C 53.1667,-0.5 106.833,-0.5 160.5,-0.5C 164.76,6.87864 162.76,12.3786 154.5,16C 144.146,19.9426 133.646,20.4426 123,17.5C 113.914,19.7654 104.748,21.7654 95.5,23.5C 90.5483,31.6625 83.5483,37.4959 74.5,41C 49.251,50.1476 24.251,49.6476 -0.5,39.5C -0.5,26.1667 -0.5,12.8333 -0.5,-0.5 Z"/></g>
<g><path style="opacity:1" fill="#fefefe" d="M 160.5,-0.5 C 178.167,-0.5 195.833,-0.5 213.5,-0.5C 210.671,4.08576 211.671,7.9191 216.5,11C 220.315,12.9087 224.315,14.242 228.5,15C 234.165,22.6713 241.832,27.0046 251.5,28C 259.37,28.7858 267.203,28.6192 275,27.5C 290.692,36.0152 305.858,35.1819 320.5,25C 323.076,22.349 324.409,19.1823 324.5,15.5C 325.5,15.5 326.5,15.5 327.5,15.5C 327.5,27.8333 327.5,40.1667 327.5,52.5C 318.548,53.5381 310.048,52.2048 302,48.5C 296.177,52.3181 290.344,56.1514 284.5,60C 274.922,63.6393 265.755,62.806 257,57.5C 250.172,61.8804 243.006,62.5471 235.5,59.5C 218.803,65.2141 205.97,60.5474 197,45.5C 195.806,44.5697 194.473,43.9031 193,43.5C 186.241,46.5425 179.241,47.2091 172,45.5C 159.513,49.8401 148.347,47.6734 138.5,39C 135.628,38.6852 132.795,38.1852 130,37.5C 124.413,43.2065 117.58,46.0398 109.5,46C 105.214,48.9762 100.547,51.1428 95.5,52.5C 86.8349,64.9905 74.8349,70.1572 59.5,68C 54.2388,73.0887 47.9055,75.422 40.5,75C 26.4686,85.3704 12.8019,84.8704 -0.5,73.5C -0.5,62.1667 -0.5,50.8333 -0.5,39.5C 24.251,49.6476 49.251,50.1476 74.5,41C 83.5483,37.4959 90.5483,31.6625 95.5,23.5C 104.748,21.7654 113.914,19.7654 123,17.5C 133.646,20.4426 144.146,19.9426 154.5,16C 162.76,12.3786 164.76,6.87864 160.5,-0.5 Z"/></g>
<g><path style="opacity:1" fill="#ddeff9" d="M 213.5,-0.5 C 251.5,-0.5 289.5,-0.5 327.5,-0.5C 327.5,4.83333 327.5,10.1667 327.5,15.5C 326.5,15.5 325.5,15.5 324.5,15.5C 324.409,19.1823 323.076,22.349 320.5,25C 305.858,35.1819 290.692,36.0152 275,27.5C 267.203,28.6192 259.37,28.7858 251.5,28C 241.832,27.0046 234.165,22.6713 228.5,15C 224.315,14.242 220.315,12.9087 216.5,11C 211.671,7.9191 210.671,4.08576 213.5,-0.5 Z"/></g>
<g><path style="opacity:1" fill="#e8f4f5" d="M 327.5,52.5 C 327.5,67.1667 327.5,81.8333 327.5,96.5C 314.052,93.9645 300.719,91.6311 287.5,89.5C 286.124,85.8972 286.458,82.3972 288.5,79C 287.406,74.9077 284.739,72.5744 280.5,72C 270.999,70.7514 263.332,73.9181 257.5,81.5C 261.139,82.5452 264.639,83.8786 268,85.5C 267.173,87.8774 266.006,90.2108 264.5,92.5C 250.72,94.2594 237.387,97.7594 224.5,103C 222.527,103.495 220.527,103.662 218.5,103.5C 214.865,102.886 211.198,102.552 207.5,102.5C 208.244,99.0504 206.91,97.3838 203.5,97.5C 203.5,98.8333 203.5,100.167 203.5,101.5C 199.651,101.403 195.817,101.069 192,100.5C 190.5,100.833 189,101.167 187.5,101.5C 188.127,102.417 188.461,103.417 188.5,104.5C 170.587,99.9732 152.92,94.6399 135.5,88.5C 134.582,80.8199 133.582,73.1533 132.5,65.5C 133.568,64.5655 134.901,64.2322 136.5,64.5C 137.045,68.1716 137.378,67.8383 137.5,63.5C 139.5,63.5 141.5,63.5 143.5,63.5C 143.5,64.5 143.5,65.5 143.5,66.5C 144.5,66.5 145.5,66.5 146.5,66.5C 146.357,64.7376 146.691,63.0709 147.5,61.5C 143.861,60.5397 140.195,60.5397 136.5,61.5C 135.955,57.8284 135.622,58.1617 135.5,62.5C 134.167,62.5 132.833,62.5 131.5,62.5C 131.5,60.1667 131.5,57.8333 131.5,55.5C 135.198,55.4476 138.865,55.1143 142.5,54.5C 142.5,55.8333 142.5,57.1667 142.5,58.5C 143.5,58.5 144.5,58.5 145.5,58.5C 145.884,56.0706 146.551,53.7373 147.5,51.5C 141.798,51.9211 136.131,52.5878 130.5,53.5C 130.5,52.1667 130.5,50.8333 130.5,49.5C 129.167,49.5 127.833,49.5 126.5,49.5C 126.5,51.1667 126.5,52.8333 126.5,54.5C 121.493,54.7509 116.493,55.0843 111.5,55.5C 112.164,57.8669 113.497,59.8669 115.5,61.5C 116.262,60.3717 116.929,59.2051 117.5,58C 120.557,57.7435 123.557,57.2435 126.5,56.5C 127.318,58.1083 127.985,59.7749 128.5,61.5C 127.311,62.4287 125.978,62.762 124.5,62.5C 123.955,58.8284 123.622,59.1617 123.5,63.5C 119.865,64.1143 116.198,64.4476 112.5,64.5C 112.5,65.5 112.5,66.5 112.5,67.5C 106.54,68.4806 101.873,71.4806 98.5,76.5C 102.647,77.4236 106.313,79.0903 109.5,81.5C 102.173,81.0561 94.8395,80.7228 87.5,80.5C 81.9357,77.6158 76.6024,74.2824 71.5,70.5C 65.315,75.42 58.9816,80.0866 52.5,84.5C 33.9285,88.2465 16.2619,94.5799 -0.5,103.5C -0.5,93.5 -0.5,83.5 -0.5,73.5C 12.8019,84.8704 26.4686,85.3704 40.5,75C 47.9055,75.422 54.2388,73.0887 59.5,68C 74.8349,70.1572 86.8349,64.9905 95.5,52.5C 100.547,51.1428 105.214,48.9762 109.5,46C 117.58,46.0398 124.413,43.2065 130,37.5C 132.795,38.1852 135.628,38.6852 138.5,39C 148.347,47.6734 159.513,49.8401 172,45.5C 179.241,47.2091 186.241,46.5425 193,43.5C 194.473,43.9031 195.806,44.5697 197,45.5C 205.97,60.5474 218.803,65.2141 235.5,59.5C 243.006,62.5471 250.172,61.8804 257,57.5C 265.755,62.806 274.922,63.6393 284.5,60C 290.344,56.1514 296.177,52.3181 302,48.5C 310.048,52.2048 318.548,53.5381 327.5,52.5 Z"/></g>
<g><path style="opacity:1" fill="#517076" d="M 132.5,65.5 C 131.209,65.2627 130.209,65.596 129.5,66.5C 126.064,65.2185 122.731,65.2185 119.5,66.5C 117.907,67.3479 116.74,68.6813 116,70.5C 115.517,69.552 115.351,68.552 115.5,67.5C 114.5,67.5 113.5,67.5 112.5,67.5C 112.5,66.5 112.5,65.5 112.5,64.5C 116.198,64.4476 119.865,64.1143 123.5,63.5C 123.622,59.1617 123.955,58.8284 124.5,62.5C 125.978,62.762 127.311,62.4287 128.5,61.5C 127.985,59.7749 127.318,58.1083 126.5,56.5C 123.557,57.2435 120.557,57.7435 117.5,58C 116.929,59.2051 116.262,60.3717 115.5,61.5C 113.497,59.8669 112.164,57.8669 111.5,55.5C 116.493,55.0843 121.493,54.7509 126.5,54.5C 126.5,52.8333 126.5,51.1667 126.5,49.5C 127.833,49.5 129.167,49.5 130.5,49.5C 130.5,50.8333 130.5,52.1667 130.5,53.5C 136.131,52.5878 141.798,51.9211 147.5,51.5C 146.551,53.7373 145.884,56.0706 145.5,58.5C 144.5,58.5 143.5,58.5 142.5,58.5C 142.5,57.1667 142.5,55.8333 142.5,54.5C 138.865,55.1143 135.198,55.4476 131.5,55.5C 131.5,57.8333 131.5,60.1667 131.5,62.5C 132.833,62.5 134.167,62.5 135.5,62.5C 135.622,58.1617 135.955,57.8284 136.5,61.5C 140.195,60.5397 143.861,60.5397 147.5,61.5C 146.691,63.0709 146.357,64.7376 146.5,66.5C 145.5,66.5 144.5,66.5 143.5,66.5C 143.5,65.5 143.5,64.5 143.5,63.5C 141.5,63.5 139.5,63.5 137.5,63.5C 137.378,67.8383 137.045,68.1716 136.5,64.5C 134.901,64.2322 133.568,64.5655 132.5,65.5 Z"/></g>
<g><path style="opacity:1" fill="#a3b7b6" d="M 119.5,66.5 C 122.731,65.2185 126.064,65.2185 129.5,66.5C 129.5,68.5 129.5,70.5 129.5,72.5C 126.819,69.607 123.486,67.607 119.5,66.5 Z"/></g>
<g><path style="opacity:1" fill="#274044" d="M 132.5,65.5 C 133.582,73.1533 134.582,80.8199 135.5,88.5C 137.09,96.1337 137.424,103.8 136.5,111.5C 135.914,111.709 135.414,112.043 135,112.5C 133.483,99.3106 131.65,86.3106 129.5,73.5C 129.5,73.1667 129.5,72.8333 129.5,72.5C 129.5,70.5 129.5,68.5 129.5,66.5C 130.209,65.596 131.209,65.2627 132.5,65.5 Z"/></g>
<g><path style="opacity:1" fill="#529638" d="M 119.5,66.5 C 123.486,67.607 126.819,69.607 129.5,72.5C 129.5,72.8333 129.5,73.1667 129.5,73.5C 127.522,77.0285 127.189,80.6951 128.5,84.5C 128.043,85.2975 127.376,85.6309 126.5,85.5C 124.98,82.4213 124.147,79.088 124,75.5C 120.443,73.481 116.777,71.8143 113,70.5C 110.438,76.3167 111.938,80.65 117.5,83.5C 114.627,83.1977 111.961,82.531 109.5,81.5C 106.313,79.0903 102.647,77.4236 98.5,76.5C 101.873,71.4806 106.54,68.4806 112.5,67.5C 113.5,67.5 114.5,67.5 115.5,67.5C 115.351,68.552 115.517,69.552 116,70.5C 116.74,68.6813 117.907,67.3479 119.5,66.5 Z"/></g>
<g><path style="opacity:1" fill="#3a1a16" d="M 87.5,80.5 C 96.1816,87.1647 105.182,93.4981 114.5,99.5C 115.491,103.445 115.824,107.445 115.5,111.5C 114.5,111.5 113.5,111.5 112.5,111.5C 112.793,107.563 112.46,103.73 111.5,100C 97.9973,91.7497 84.664,83.2497 71.5,74.5C 59.8333,83.1667 48.1667,91.8333 36.5,100.5C 35.5108,104.107 35.1774,107.774 35.5,111.5C 34.2057,109.952 33.5391,107.952 33.5,105.5C 33.6667,103.5 33.8333,101.5 34,99.5C 40.3552,94.6359 46.5218,89.6359 52.5,84.5C 58.9816,80.0866 65.315,75.42 71.5,70.5C 76.6024,74.2824 81.9357,77.6158 87.5,80.5 Z"/></g>
<g><path style="opacity:1" fill="#318330" d="M 126.5,85.5 C 124.421,85.0293 122.421,84.3627 120.5,83.5C 123.36,77.7067 122.693,77.2067 118.5,82C 119.056,82.3826 119.389,82.8826 119.5,83.5C 118.833,83.5 118.167,83.5 117.5,83.5C 111.938,80.65 110.438,76.3167 113,70.5C 116.777,71.8143 120.443,73.481 124,75.5C 124.147,79.088 124.98,82.4213 126.5,85.5 Z"/></g>
<g><path style="opacity:1" fill="#579b3a" d="M 287.5,89.5 C 287.5,89.8333 287.5,90.1667 287.5,90.5C 286.504,90.5858 285.671,90.2524 285,89.5C 284.096,85.8892 282.929,82.3892 281.5,79C 276.437,77.0454 271.437,77.0454 266.5,79C 270.165,82.2978 271.498,86.4645 270.5,91.5C 268.435,91.5172 266.435,91.8505 264.5,92.5C 266.006,90.2108 267.173,87.8774 268,85.5C 264.639,83.8786 261.139,82.5452 257.5,81.5C 263.332,73.9181 270.999,70.7514 280.5,72C 284.739,72.5744 287.406,74.9077 288.5,79C 286.458,82.3972 286.124,85.8972 287.5,89.5 Z"/></g>
<g><path style="opacity:1" fill="#c6ae95" d="M 112.5,111.5 C 111.5,111.5 110.5,111.5 109.5,111.5C 110.006,107.993 109.34,104.826 107.5,102C 95.7358,94.0365 83.9024,86.2031 72,78.5C 60.6585,86.3424 49.6585,94.6757 39,103.5C 38.5026,106.146 38.3359,108.813 38.5,111.5C 37.5,111.5 36.5,111.5 35.5,111.5C 35.1774,107.774 35.5108,104.107 36.5,100.5C 48.1667,91.8333 59.8333,83.1667 71.5,74.5C 84.664,83.2497 97.9973,91.7497 111.5,100C 112.46,103.73 112.793,107.563 112.5,111.5 Z"/></g>
<g><path style="opacity:1" fill="#318430" d="M 287.5,90.5 C 285.393,91.4682 283.059,91.8016 280.5,91.5C 280.578,88.7482 280.745,86.0816 281,83.5C 280.167,85 279,86.1667 277.5,87C 278.413,88.4139 278.413,89.9139 277.5,91.5C 275.167,91.5 272.833,91.5 270.5,91.5C 271.498,86.4645 270.165,82.2978 266.5,79C 271.437,77.0454 276.437,77.0454 281.5,79C 282.929,82.3892 284.096,85.8892 285,89.5C 285.671,90.2524 286.504,90.5858 287.5,90.5 Z"/></g>
<g><path style="opacity:1" fill="#b56060" d="M 109.5,111.5 C 106.497,113.262 103.163,114.428 99.5,115C 94.5111,115.499 89.5111,115.666 84.5,115.5C 86.1789,102.673 80.8455,97.8393 68.5,101C 64.8083,103.55 63.1416,107.05 63.5,111.5C 62.5,111.5 61.5,111.5 60.5,111.5C 53.5276,111.029 46.6942,111.695 40,113.5C 38.9701,113.164 38.4701,112.497 38.5,111.5C 38.3359,108.813 38.5026,106.146 39,103.5C 49.6585,94.6757 60.6585,86.3424 72,78.5C 83.9024,86.2031 95.7358,94.0365 107.5,102C 109.34,104.826 110.006,107.993 109.5,111.5 Z"/></g>
<g><path style="opacity:1" fill="#92bac6" d="M 129.5,73.5 C 131.65,86.3106 133.483,99.3106 135,112.5C 135.414,112.043 135.914,111.709 136.5,111.5C 137.424,103.8 137.09,96.1337 135.5,88.5C 152.92,94.6399 170.587,99.9732 188.5,104.5C 188.821,106.048 189.821,106.715 191.5,106.5C 191.351,105.448 191.517,104.448 192,103.5C 194.636,103.545 197.47,103.712 200.5,104C 202.25,105.754 202.917,107.921 202.5,110.5C 201.167,110.5 199.833,110.5 198.5,110.5C 198.378,106.162 198.045,105.828 197.5,109.5C 193.787,108.707 190.12,108.707 186.5,109.5C 187.309,111.071 187.643,112.738 187.5,114.5C 189.359,114.539 190.692,113.706 191.5,112C 193.134,111.506 194.801,111.34 196.5,111.5C 196.215,113.288 196.548,114.955 197.5,116.5C 198.429,115.311 198.762,113.978 198.5,112.5C 199.791,112.263 200.791,112.596 201.5,113.5C 199.933,127.672 198.266,141.838 196.5,156C 197.938,161.195 199.105,161.362 200,156.5C 201.912,143.54 203.412,130.54 204.5,117.5C 205.434,116.432 205.768,115.099 205.5,113.5C 206.5,113.5 207.5,113.5 208.5,113.5C 208.238,114.978 208.571,116.311 209.5,117.5C 210.386,116.675 210.719,115.675 210.5,114.5C 213.969,113.887 215.969,115.221 216.5,118.5C 217.833,118.5 219.167,118.5 220.5,118.5C 220.833,116.5 221.167,114.5 221.5,112.5C 218.482,112.665 215.482,112.498 212.5,112C 211.572,111.612 210.905,110.945 210.5,110C 211.291,108.899 211.291,108.066 210.5,107.5C 209.614,108.325 209.281,109.325 209.5,110.5C 208.5,110.5 207.5,110.5 206.5,110.5C 206.201,108.396 206.534,106.396 207.5,104.5C 210.443,105.244 213.443,105.744 216.5,106C 217.071,107.205 217.738,108.372 218.5,109.5C 219.5,107.833 220.833,106.5 222.5,105.5C 221.051,104.828 219.718,104.161 218.5,103.5C 220.527,103.662 222.527,103.495 224.5,103C 237.387,97.7594 250.72,94.2594 264.5,92.5C 266.435,91.8505 268.435,91.5172 270.5,91.5C 272.833,91.5 275.167,91.5 277.5,91.5C 278.5,91.5 279.5,91.5 280.5,91.5C 283.059,91.8016 285.393,91.4682 287.5,90.5C 287.5,90.1667 287.5,89.8333 287.5,89.5C 300.719,91.6311 314.052,93.9645 327.5,96.5C 327.5,129.5 327.5,162.5 327.5,195.5C 218.167,195.5 108.833,195.5 -0.5,195.5C -0.5,164.833 -0.5,134.167 -0.5,103.5C 16.2619,94.5799 33.9285,88.2465 52.5,84.5C 46.5218,89.6359 40.3552,94.6359 34,99.5C 33.8333,101.5 33.6667,103.5 33.5,105.5C 33.5391,107.952 34.2057,109.952 35.5,111.5C 36.5,111.5 37.5,111.5 38.5,111.5C 38.4701,112.497 38.9701,113.164 40,113.5C 46.6942,111.695 53.5276,111.029 60.5,111.5C 61.9187,112.451 63.5853,112.784 65.5,112.5C 70.5318,110.63 75.8652,109.963 81.5,110.5C 81.5,111.833 81.5,113.167 81.5,114.5C 82.209,115.404 83.209,115.737 84.5,115.5C 89.5111,115.666 94.5111,115.499 99.5,115C 103.163,114.428 106.497,113.262 109.5,111.5C 110.5,111.5 111.5,111.5 112.5,111.5C 113.5,111.5 114.5,111.5 115.5,111.5C 115.824,107.445 115.491,103.445 114.5,99.5C 105.182,93.4981 96.1816,87.1647 87.5,80.5C 94.8395,80.7228 102.173,81.0561 109.5,81.5C 111.961,82.531 114.627,83.1977 117.5,83.5C 118.167,83.5 118.833,83.5 119.5,83.5C 119.833,83.5 120.167,83.5 120.5,83.5C 122.421,84.3627 124.421,85.0293 126.5,85.5C 127.376,85.6309 128.043,85.2975 128.5,84.5C 127.189,80.6951 127.522,77.0285 129.5,73.5 Z"/></g>
<g><path style="opacity:1" fill="#273415" d="M 120.5,83.5 C 120.167,83.5 119.833,83.5 119.5,83.5C 119.389,82.8826 119.056,82.3826 118.5,82C 122.693,77.2067 123.36,77.7067 120.5,83.5 Z"/></g>
<g><path style="opacity:1" fill="#325728" d="M 280.5,91.5 C 279.5,91.5 278.5,91.5 277.5,91.5C 278.413,89.9139 278.413,88.4139 277.5,87C 279,86.1667 280.167,85 281,83.5C 280.745,86.0816 280.578,88.7482 280.5,91.5 Z"/></g>
<g><path style="opacity:1" fill="#361511" d="M 81.5,114.5 C 81.5,113.167 81.5,111.833 81.5,110.5C 75.8652,109.963 70.5318,110.63 65.5,112.5C 66.6625,102.002 71.8291,99.3356 81,104.5C 82.6841,107.894 82.8508,111.228 81.5,114.5 Z"/></g>
<g><path style="opacity:1" fill="#73aab7" d="M 287.5,145.5 C 285.147,144.66 283.147,143.326 281.5,141.5C 286.959,140.969 292.292,139.802 297.5,138C 300.319,137.426 302.652,136.093 304.5,134C 304.095,133.055 303.428,132.388 302.5,132C 290.826,130.331 279.826,126.664 269.5,121C 259.861,115.221 260.194,110.221 270.5,106C 277.679,103.692 285.012,102.692 292.5,103C 287.519,103.796 282.852,105.462 278.5,108C 274.479,111.996 275.145,115.329 280.5,118C 290.715,122.941 301.048,127.608 311.5,132C 313.976,133.309 315.976,135.142 317.5,137.5C 315.997,139.422 313.997,140.588 311.5,141C 303.464,142.395 295.464,143.895 287.5,145.5 Z"/></g>
<g><path style="opacity:1" fill="#c2a790" d="M 84.5,115.5 C 83.209,115.737 82.209,115.404 81.5,114.5C 82.8508,111.228 82.6841,107.894 81,104.5C 71.8291,99.3356 66.6625,102.002 65.5,112.5C 63.5853,112.784 61.9187,112.451 60.5,111.5C 61.5,111.5 62.5,111.5 63.5,111.5C 63.1416,107.05 64.8083,103.55 68.5,101C 80.8455,97.8393 86.1789,102.673 84.5,115.5 Z"/></g>
<g><path style="opacity:1" fill="#65acb2" d="M 71.5,103.5 C 73.3079,104.918 73.9746,106.918 73.5,109.5C 71.5,109.5 69.5,109.5 67.5,109.5C 67.6574,106.682 68.9908,104.682 71.5,103.5 Z"/></g>
<g><path style="opacity:1" fill="#62a1a6" d="M 74.5,103.5 C 83.2859,106.924 83.2859,108.924 74.5,109.5C 74.5,107.5 74.5,105.5 74.5,103.5 Z"/></g>
<g><path style="opacity:1" fill="#4e6f76" d="M 218.5,103.5 C 219.718,104.161 221.051,104.828 222.5,105.5C 220.833,106.5 219.5,107.833 218.5,109.5C 217.738,108.372 217.071,107.205 216.5,106C 213.443,105.744 210.443,105.244 207.5,104.5C 206.534,106.396 206.201,108.396 206.5,110.5C 207.5,110.5 208.5,110.5 209.5,110.5C 209.281,109.325 209.614,108.325 210.5,107.5C 211.291,108.066 211.291,108.899 210.5,110C 210.905,110.945 211.572,111.612 212.5,112C 215.482,112.498 218.482,112.665 221.5,112.5C 221.167,114.5 220.833,116.5 220.5,118.5C 219.167,118.5 217.833,118.5 216.5,118.5C 215.969,115.221 213.969,113.887 210.5,114.5C 210.719,115.675 210.386,116.675 209.5,117.5C 208.571,116.311 208.238,114.978 208.5,113.5C 207.5,113.5 206.5,113.5 205.5,113.5C 205.768,115.099 205.434,116.432 204.5,117.5C 204.5,116.167 204.5,114.833 204.5,113.5C 203.5,113.5 202.5,113.5 201.5,113.5C 200.791,112.596 199.791,112.263 198.5,112.5C 198.762,113.978 198.429,115.311 197.5,116.5C 196.548,114.955 196.215,113.288 196.5,111.5C 194.801,111.34 193.134,111.506 191.5,112C 190.692,113.706 189.359,114.539 187.5,114.5C 187.643,112.738 187.309,111.071 186.5,109.5C 190.12,108.707 193.787,108.707 197.5,109.5C 198.045,105.828 198.378,106.162 198.5,110.5C 199.833,110.5 201.167,110.5 202.5,110.5C 202.917,107.921 202.25,105.754 200.5,104C 197.47,103.712 194.636,103.545 192,103.5C 191.517,104.448 191.351,105.448 191.5,106.5C 189.821,106.715 188.821,106.048 188.5,104.5C 188.461,103.417 188.127,102.417 187.5,101.5C 189,101.167 190.5,100.833 192,100.5C 195.817,101.069 199.651,101.403 203.5,101.5C 203.5,100.167 203.5,98.8333 203.5,97.5C 206.91,97.3838 208.244,99.0504 207.5,102.5C 211.198,102.552 214.865,102.886 218.5,103.5 Z"/></g>
<g><path style="opacity:1" fill="#74abb8" d="M 156.5,111.5 C 159.518,111.335 162.518,111.502 165.5,112C 161.695,112.534 158.029,113.534 154.5,115C 151.833,116.667 151.833,118.333 154.5,120C 164.693,124.064 175.026,127.731 185.5,131C 186.973,131.71 187.64,132.876 187.5,134.5C 180.176,135.664 172.842,136.83 165.5,138C 161.825,138.557 158.492,139.89 155.5,142C 154.167,143 154.167,144 155.5,145C 159.107,146.647 162.774,147.981 166.5,149C 153.966,149.724 141.633,148.558 129.5,145.5C 128.953,142.849 130.286,141.349 133.5,141C 145.853,138.748 158.186,136.415 170.5,134C 173.032,133.381 175.365,132.381 177.5,131C 170.216,129.172 162.883,127.505 155.5,126C 136.653,119.718 136.986,114.885 156.5,111.5 Z"/></g>
<g><path style="opacity:1" fill="#284246" d="M 201.5,113.5 C 202.5,113.5 203.5,113.5 204.5,113.5C 204.5,114.833 204.5,116.167 204.5,117.5C 203.412,130.54 201.912,143.54 200,156.5C 199.105,161.362 197.938,161.195 196.5,156C 198.266,141.838 199.933,127.672 201.5,113.5 Z"/></g>
<g><path style="opacity:1" fill="#3a1b17" d="M 281.5,141.5 C 283.147,143.326 285.147,144.66 287.5,145.5C 287.5,149.5 287.5,153.5 287.5,157.5C 286.5,157.5 285.5,157.5 284.5,157.5C 284.793,153.563 284.46,149.73 283.5,146C 270.566,137.952 257.732,129.785 245,121.5C 233.371,129.625 221.871,137.959 210.5,146.5C 209.511,150.107 209.177,153.774 209.5,157.5C 208.206,155.952 207.539,153.952 207.5,151.5C 207.667,149.5 207.833,147.5 208,145.5C 220.024,135.975 232.191,126.642 244.5,117.5C 256.869,125.552 269.202,133.552 281.5,141.5 Z"/></g>
<g><path style="opacity:1" fill="#c9b59c" d="M 284.5,157.5 C 283.5,157.5 282.5,157.5 281.5,157.5C 281.817,154.428 281.484,151.428 280.5,148.5C 268.803,140.304 256.97,132.304 245,124.5C 234.152,132.592 223.485,140.925 213,149.5C 212.503,152.146 212.336,154.813 212.5,157.5C 211.5,157.5 210.5,157.5 209.5,157.5C 209.177,153.774 209.511,150.107 210.5,146.5C 221.871,137.959 233.371,129.625 245,121.5C 257.732,129.785 270.566,137.952 283.5,146C 284.46,149.73 284.793,153.563 284.5,157.5 Z"/></g>
<g><path style="opacity:1" fill="#fefefd" d="M 281.5,157.5 C 281.5,159.167 281.5,160.833 281.5,162.5C 278.5,162.5 275.5,162.5 272.5,162.5C 272.167,165.5 273.5,166.833 276.5,166.5C 276.5,167.5 276.5,168.5 276.5,169.5C 275.167,169.5 273.833,169.5 272.5,169.5C 272.5,170.833 272.5,172.167 272.5,173.5C 274.5,173.5 276.5,173.5 278.5,173.5C 273.027,174.617 267.36,175.283 261.5,175.5C 262.695,161.53 256.362,155.03 242.5,156C 236.031,159.097 232.697,164.264 232.5,171.5C 225.686,170.948 219.019,170.281 212.5,169.5C 214.167,169.5 215.833,169.5 217.5,169.5C 217.5,168.5 217.5,167.5 217.5,166.5C 215.833,166.5 214.167,166.5 212.5,166.5C 212.5,166.167 212.5,165.833 212.5,165.5C 215.5,165.5 218.5,165.5 221.5,165.5C 221.5,164.5 221.5,163.5 221.5,162.5C 218.5,162.5 215.5,162.5 212.5,162.5C 212.5,160.833 212.5,159.167 212.5,157.5C 212.336,154.813 212.503,152.146 213,149.5C 223.485,140.925 234.152,132.592 245,124.5C 256.97,132.304 268.803,140.304 280.5,148.5C 281.484,151.428 281.817,154.428 281.5,157.5 Z"/></g>
<g><path style="opacity:1" fill="#529836" d="M 99.5,165.5 C 98.126,163.286 96.9594,160.953 96,158.5C 95.8814,153.718 95.2148,149.051 94,144.5C 91.4894,142.437 88.656,140.937 85.5,140C 79.8041,139.17 74.1375,139.337 68.5,140.5C 71.5651,143.963 73.5651,147.963 74.5,152.5C 74.2415,156.185 73.2415,159.518 71.5,162.5C 62.0328,163.32 61.1995,161.32 69,156.5C 69.7203,154.888 69.5536,153.388 68.5,152C 66.2852,150.956 63.9519,150.29 61.5,150C 62.8333,149 62.8333,148 61.5,147C 58.2301,146.005 54.8967,145.172 51.5,144.5C 64.2921,130.304 79.6254,126.804 97.5,134C 103.297,136.76 105.463,141.26 104,147.5C 102.058,150.249 100.891,153.249 100.5,156.5C 100.879,159.582 101.546,162.582 102.5,165.5C 101.5,165.5 100.5,165.5 99.5,165.5 Z"/></g>
<g><path style="opacity:1" fill="#318430" d="M 99.5,165.5 C 96.5,165.5 93.5,165.5 90.5,165.5C 89.9408,163.321 89.2741,161.154 88.5,159C 89.8499,156.399 91.0166,153.899 92,151.5C 90.3149,153.017 88.8149,154.684 87.5,156.5C 85.8513,155.352 84.3513,154.019 83,152.5C 82.8333,152.833 82.6667,153.167 82.5,153.5C 84.8813,156.43 86.8813,159.597 88.5,163C 88.1639,164.03 87.4972,164.53 86.5,164.5C 81.2502,164.698 76.2502,164.031 71.5,162.5C 73.2415,159.518 74.2415,156.185 74.5,152.5C 73.5651,147.963 71.5651,143.963 68.5,140.5C 74.1375,139.337 79.8041,139.17 85.5,140C 88.656,140.937 91.4894,142.437 94,144.5C 95.2148,149.051 95.8814,153.718 96,158.5C 96.9594,160.953 98.126,163.286 99.5,165.5 Z"/></g>
<g><path style="opacity:1" fill="#74abb8" d="M 24.5,153.5 C 26.1992,153.34 27.8659,153.506 29.5,154C 27.5,154.667 25.5,155.333 23.5,156C 21.7888,157.133 21.2888,158.633 22,160.5C 28.3007,164.067 34.8007,167.234 41.5,170C 42.4506,170.718 42.6172,171.551 42,172.5C 36.5448,173.96 31.0448,175.46 25.5,177C 21.3478,180.406 22.0144,182.739 27.5,184C 20.6154,185.098 13.9487,184.431 7.5,182C 6.16667,181 6.16667,180 7.5,179C 17.3636,176.454 27.0302,173.454 36.5,170C 32.3631,168.213 28.0298,166.879 23.5,166C 11.2748,160.546 11.6082,156.379 24.5,153.5 Z"/></g>
<g><path style="opacity:1" fill="#c9b59c" d="M 261.5,175.5 C 260.833,175.5 260.167,175.5 259.5,175.5C 260.164,163.33 254.498,157.83 242.5,159C 237.704,161.756 235.371,165.923 235.5,171.5C 234.5,171.5 233.5,171.5 232.5,171.5C 232.697,164.264 236.031,159.097 242.5,156C 256.362,155.03 262.695,161.53 261.5,175.5 Z"/></g>
<g><path style="opacity:1" fill="#361512" d="M 259.5,175.5 C 257.744,174.448 257.077,172.781 257.5,170.5C 250.287,169.922 243.287,170.588 236.5,172.5C 235.893,172.376 235.56,172.043 235.5,171.5C 235.371,165.923 237.704,161.756 242.5,159C 254.498,157.83 260.164,163.33 259.5,175.5 Z"/></g>
<g><path style="opacity:1" fill="#67b1b7" d="M 244.5,160.5 C 246.369,162.635 247.036,165.302 246.5,168.5C 243.428,168.817 240.428,168.484 237.5,167.5C 238.883,164.116 241.217,161.783 244.5,160.5 Z"/></g>
<g><path style="opacity:1" fill="#68b7bd" d="M 248.5,160.5 C 252.87,161.536 255.536,164.203 256.5,168.5C 253.833,168.5 251.167,168.5 248.5,168.5C 248.5,165.833 248.5,163.167 248.5,160.5 Z"/></g>
<g><path style="opacity:1" fill="#df1732" d="M 162.5,162.5 C 164.38,162.229 165.713,162.896 166.5,164.5C 164.517,164.843 163.183,164.176 162.5,162.5 Z"/></g>
<g><path style="opacity:1" fill="#cdbaa0" d="M 212.5,162.5 C 215.5,162.5 218.5,162.5 221.5,162.5C 221.5,163.5 221.5,164.5 221.5,165.5C 218.5,165.5 215.5,165.5 212.5,165.5C 212.5,164.5 212.5,163.5 212.5,162.5 Z"/></g>
<g><path style="opacity:1" fill="#2a2c16" d="M 90.5,165.5 C 88.901,165.768 87.5676,165.434 86.5,164.5C 87.4972,164.53 88.1639,164.03 88.5,163C 86.8813,159.597 84.8813,156.43 82.5,153.5C 82.6667,153.167 82.8333,152.833 83,152.5C 84.3513,154.019 85.8513,155.352 87.5,156.5C 88.8149,154.684 90.3149,153.017 92,151.5C 91.0166,153.899 89.8499,156.399 88.5,159C 89.2741,161.154 89.9408,163.321 90.5,165.5 Z"/></g>
<g><path style="opacity:1" fill="#5e6f72" d="M 146.5,163.5 C 148.626,164.103 150.959,164.103 153.5,163.5C 154.492,163.672 155.158,163.338 155.5,162.5C 156.467,163.806 157.801,164.473 159.5,164.5C 155.571,165.823 151.571,166.823 147.5,167.5C 139.505,168.499 131.505,169.499 123.5,170.5C 123.5,169.5 123.5,168.5 123.5,167.5C 124.391,168.11 125.391,168.443 126.5,168.5C 127.496,168.586 128.329,168.252 129,167.5C 130.261,165.37 130.761,163.203 130.5,161C 132.134,160.506 133.801,160.34 135.5,160.5C 135.504,165.989 138.171,167.822 143.5,166C 144.691,165.302 145.691,164.469 146.5,163.5 Z"/></g>
<g><path style="opacity:1" fill="#ca2d3a" d="M 160.5,162.5 C 160.856,164.19 161.856,165.19 163.5,165.5C 166.696,168.949 167.696,172.949 166.5,177.5C 165.571,178.55 164.905,178.55 164.5,177.5C 164.5,177.167 164.5,176.833 164.5,176.5C 165.434,175.432 165.768,174.099 165.5,172.5C 165.22,168.775 163.22,167.608 159.5,169C 158.034,169.635 156.7,170.469 155.5,171.5C 153.86,168.278 151.193,166.944 147.5,167.5C 151.571,166.823 155.571,165.823 159.5,164.5C 158.272,161.044 156.772,157.71 155,154.5C 152.723,155.117 150.556,155.784 148.5,156.5C 147.5,156.5 146.5,156.5 145.5,156.5C 141.575,156.43 137.909,157.097 134.5,158.5C 131.881,158.232 129.381,158.565 127,159.5C 126.502,162.482 126.335,165.482 126.5,168.5C 125.391,168.443 124.391,168.11 123.5,167.5C 124.7,164.031 124.7,160.698 123.5,157.5C 134.629,155.356 145.963,153.689 157.5,152.5C 158.492,155.823 159.492,159.156 160.5,162.5 Z"/></g>
<g><path style="opacity:1" fill="#324f54" d="M 153.5,163.5 C 150.959,164.103 148.626,164.103 146.5,163.5C 147.071,162.027 147.071,160.36 146.5,158.5C 148.604,158.201 150.604,158.534 152.5,159.5C 151.567,160.985 151.9,162.318 153.5,163.5 Z"/></g>
<g><path style="opacity:1" fill="#a94548" d="M 159.5,164.5 C 157.801,164.473 156.467,163.806 155.5,162.5C 155.627,157.627 153.294,155.627 148.5,156.5C 150.556,155.784 152.723,155.117 155,154.5C 156.772,157.71 158.272,161.044 159.5,164.5 Z"/></g>
<g><path style="opacity:1" fill="#91b3be" d="M 145.5,156.5 C 146.5,156.5 147.5,156.5 148.5,156.5C 153.294,155.627 155.627,157.627 155.5,162.5C 155.158,163.338 154.492,163.672 153.5,163.5C 151.9,162.318 151.567,160.985 152.5,159.5C 150.604,158.534 148.604,158.201 146.5,158.5C 147.071,160.36 147.071,162.027 146.5,163.5C 145.691,164.469 144.691,165.302 143.5,166C 138.171,167.822 135.504,165.989 135.5,160.5C 133.801,160.34 132.134,160.506 130.5,161C 130.761,163.203 130.261,165.37 129,167.5C 128.329,168.252 127.496,168.586 126.5,168.5C 126.335,165.482 126.502,162.482 127,159.5C 129.381,158.565 131.881,158.232 134.5,158.5C 138.69,160.277 142.357,159.611 145.5,156.5 Z"/></g>
<g><path style="opacity:1" fill="#606365" d="M 145.5,156.5 C 142.357,159.611 138.69,160.277 134.5,158.5C 137.909,157.097 141.575,156.43 145.5,156.5 Z"/></g>
<g><path style="opacity:1" fill="#a0697a" d="M 160.5,162.5 C 161.167,162.5 161.833,162.5 162.5,162.5C 163.183,164.176 164.517,164.843 166.5,164.5C 165.791,165.404 164.791,165.737 163.5,165.5C 161.856,165.19 160.856,164.19 160.5,162.5 Z"/></g>
<g><path style="opacity:1" fill="#cfbda5" d="M 212.5,166.5 C 214.167,166.5 215.833,166.5 217.5,166.5C 217.5,167.5 217.5,168.5 217.5,169.5C 215.833,169.5 214.167,169.5 212.5,169.5C 212.5,168.5 212.5,167.5 212.5,166.5 Z"/></g>
<g><path style="opacity:1" fill="#d91830" d="M 123.5,157.5 C 124.7,160.698 124.7,164.031 123.5,167.5C 123.5,168.5 123.5,169.5 123.5,170.5C 131.505,169.499 139.505,168.499 147.5,167.5C 151.193,166.944 153.86,168.278 155.5,171.5C 156.7,170.469 158.034,169.635 159.5,169C 163.22,167.608 165.22,168.775 165.5,172.5C 164.833,172.167 164.167,171.833 163.5,171.5C 159.726,169.568 157.393,170.735 156.5,175C 156.528,176.07 156.861,176.903 157.5,177.5C 159.054,178.895 158.721,179.561 156.5,179.5C 154.608,178.527 152.608,177.86 150.5,177.5C 144.185,178.488 137.852,178.654 131.5,178C 127.417,176.148 123.084,174.981 118.5,174.5C 118.863,173.817 119.196,173.15 119.5,172.5C 122.092,170.964 123.092,168.631 122.5,165.5C 122.194,162.615 122.527,159.948 123.5,157.5 Z"/></g>
<g><path style="opacity:1" fill="#c3404f" d="M 122.5,165.5 C 123.092,168.631 122.092,170.964 119.5,172.5C 115.484,169.84 116.151,168.507 121.5,168.5C 121.263,167.209 121.596,166.209 122.5,165.5 Z"/></g>
<g><path style="opacity:1" fill="#decfbc" d="M 281.5,162.5 C 281.665,165.85 281.498,169.183 281,172.5C 280.329,173.252 279.496,173.586 278.5,173.5C 276.5,173.5 274.5,173.5 272.5,173.5C 272.5,172.167 272.5,170.833 272.5,169.5C 273.833,169.5 275.167,169.5 276.5,169.5C 276.5,168.5 276.5,167.5 276.5,166.5C 273.5,166.833 272.167,165.5 272.5,162.5C 275.5,162.5 278.5,162.5 281.5,162.5 Z"/></g>
<g><path style="opacity:1" fill="#4d424f" d="M 163.5,171.5 C 159.167,171.167 157.167,173.167 157.5,177.5C 156.861,176.903 156.528,176.07 156.5,175C 157.393,170.735 159.726,169.568 163.5,171.5 Z"/></g>
<g><path style="opacity:1" fill="#44313f" d="M 163.5,171.5 C 164.167,171.833 164.833,172.167 165.5,172.5C 165.768,174.099 165.434,175.432 164.5,176.5C 164.371,174.784 164.038,173.117 163.5,171.5 Z"/></g>
<g><path style="opacity:1" fill="#e8eaec" d="M 163.5,171.5 C 164.038,173.117 164.371,174.784 164.5,176.5C 164.5,176.833 164.5,177.167 164.5,177.5C 162.167,178.833 159.833,178.833 157.5,177.5C 157.167,173.167 159.167,171.167 163.5,171.5 Z"/></g>
</svg>
