<?xml version="1.0" encoding="UTF-8"?>
<!DOCTYPE svg PUBLIC "-//W3C//DTD SVG 1.1//EN" "http://www.w3.org/Graphics/SVG/1.1/DTD/svg11.dtd">
<svg xmlns="http://www.w3.org/2000/svg" version="1.1" width="328px" height="196px" style="shape-rendering:geometricPrecision; text-rendering:geometricPrecision; image-rendering:optimizeQuality; fill-rule:evenodd; clip-rule:evenodd" xmlns:xlink="http://www.w3.org/1999/xlink">
<g><path style="opacity:1" fill="#cee4f6" d="M -0.5,-0.5 C 108.833,-0.5 218.167,-0.5 327.5,-0.5C 327.5,6.16667 327.5,12.8333 327.5,19.5C 289.165,19.3333 250.832,19.5 212.5,20C 211.837,21.5185 210.837,22.6851 209.5,23.5C 203.701,20.3927 198.368,21.0594 193.5,25.5C 187.89,14.2428 179.556,11.7428 168.5,18C 164.141,21.5063 161.807,26.0063 161.5,31.5C 153.59,31.8452 151.923,35.0119 156.5,41C 169.829,41.4999 183.163,41.6666 196.5,41.5C 194.066,45.3817 191.399,49.0484 188.5,52.5C 161.831,52.3334 135.165,52.5 108.5,53C 93.2944,66.3765 77.9611,79.5431 62.5,92.5C 63.4489,87.7338 62.1155,83.9004 58.5,81C 53.4038,79.4202 50.2371,81.2535 49,86.5C 48.8814,91.2824 48.2148,95.9491 47,100.5C 43.8927,102.965 40.726,105.298 37.5,107.5C 35.6394,104.978 33.6394,102.478 31.5,100C 25.9614,97.1869 22.1281,98.6869 20,104.5C 19.0979,109.294 18.2645,113.961 17.5,118.5C 17.6664,110.826 17.4997,103.159 17,95.5C 15.117,92.9756 12.617,91.6423 9.5,91.5C 9.71351,89.8561 9.38017,88.3561 8.5,87C 5.51838,86.502 2.51838,86.3354 -0.5,86.5C -0.5,74.8333 -0.5,63.1667 -0.5,51.5C 12.5043,51.6666 25.5043,51.4999 38.5,51C 42.7923,46.8203 42.1256,43.487 36.5,41C 35.2068,40.51 33.8734,40.3433 32.5,40.5C 30.1864,25.7139 21.5197,19.5472 6.5,22C 3.7982,23.0121 1.46486,24.5121 -0.5,26.5C -0.5,17.5 -0.5,8.5 -0.5,-0.5 Z"/></g>
<g><path style="opacity:1" fill="#fdfdfe" d="M 209.5,23.5 C 205.644,29.8913 201.311,35.8913 196.5,41.5C 183.163,41.6666 169.829,41.4999 156.5,41C 151.923,35.0119 153.59,31.8452 161.5,31.5C 161.807,26.0063 164.141,21.5063 168.5,18C 179.556,11.7428 187.89,14.2428 193.5,25.5C 198.368,21.0594 203.701,20.3927 209.5,23.5 Z"/></g>
<g><path style="opacity:1" fill="#b76d6a" d="M 327.5,19.5 C 327.5,39.1667 327.5,58.8333 327.5,78.5C 303.833,78.5 280.167,78.5 256.5,78.5C 251.553,70.261 245.887,62.5943 239.5,55.5C 239.5,55.1667 239.5,54.8333 239.5,54.5C 231.832,44.6599 224.332,34.6599 217,24.5C 210.002,34.326 202.835,43.9926 195.5,53.5C 194.662,53.8417 194.328,54.5084 194.5,55.5C 188.863,62.6496 183.363,69.9829 178,77.5C 177.502,80.4816 177.335,83.4816 177.5,86.5C 177.5,86.8333 177.5,87.1667 177.5,87.5C 177.5,90.8333 177.5,94.1667 177.5,97.5C 177.5,97.8333 177.5,98.1667 177.5,98.5C 177.5,99.1667 177.5,99.8333 177.5,100.5C 177.167,100.5 176.833,100.5 176.5,100.5C 176.5,93.1667 176.5,85.8333 176.5,78.5C 174.396,78.7989 172.396,78.4656 170.5,77.5C 176.525,69.1485 182.525,60.8151 188.5,52.5C 191.399,49.0484 194.066,45.3817 196.5,41.5C 201.311,35.8913 205.644,29.8913 209.5,23.5C 210.837,22.6851 211.837,21.5185 212.5,20C 250.832,19.5 289.165,19.3333 327.5,19.5 Z"/></g>
<g><path style="opacity:1" fill="#fefefe" d="M -0.5,51.5 C -0.5,43.1667 -0.5,34.8333 -0.5,26.5C 1.46486,24.5121 3.7982,23.0121 6.5,22C 21.5197,19.5472 30.1864,25.7139 32.5,40.5C 33.8734,40.3433 35.2068,40.51 36.5,41C 42.1256,43.487 42.7923,46.8203 38.5,51C 25.5043,51.4999 12.5043,51.6666 -0.5,51.5 Z"/></g>
<g><path style="opacity:1" fill="#fdfefe" d="M 72.5,22.5 C 78.6076,21.7222 83.2743,23.8888 86.5,29C 89.0075,29.0929 91.1741,29.9262 93,31.5C 93.6838,32.7839 93.5171,33.9505 92.5,35C 80.1712,35.4999 67.8378,35.6665 55.5,35.5C 55.2965,33.6096 55.9632,32.1096 57.5,31C 60.7699,30.0052 64.1033,29.1719 67.5,28.5C 68.497,25.845 70.1637,23.845 72.5,22.5 Z"/></g>
<g><path style="opacity:1" fill="#d9a9a3" d="M 239.5,54.5 C 224.658,53.7063 209.991,53.373 195.5,53.5C 202.835,43.9926 210.002,34.326 217,24.5C 224.332,34.6599 231.832,44.6599 239.5,54.5 Z"/></g>
<g><path style="opacity:1" fill="#a36260" d="M 188.5,52.5 C 182.525,60.8151 176.525,69.1485 170.5,77.5C 172.396,78.4656 174.396,78.7989 176.5,78.5C 176.5,85.8333 176.5,93.1667 176.5,100.5C 171.167,100.5 165.833,100.5 160.5,100.5C 143.529,86.698 126.695,72.698 110,58.5C 93.0616,72.3842 76.2282,86.3842 59.5,100.5C 57.8008,100.66 56.1341,100.494 54.5,100C 57.4315,97.7155 60.0982,95.2155 62.5,92.5C 77.9611,79.5431 93.2944,66.3765 108.5,53C 135.165,52.5 161.831,52.3334 188.5,52.5 Z"/></g>
<g><path style="opacity:1" fill="#d9a9a3" d="M 194.5,55.5 C 198.167,55.5 201.833,55.5 205.5,55.5C 205.5,60.5 205.5,65.5 205.5,70.5C 211.5,70.5 217.5,70.5 223.5,70.5C 223.5,65.5 223.5,60.5 223.5,55.5C 228.833,55.5 234.167,55.5 239.5,55.5C 245.887,62.5943 251.553,70.261 256.5,78.5C 256.5,81.1667 256.5,83.8333 256.5,86.5C 230.167,86.5 203.833,86.5 177.5,86.5C 177.335,83.4816 177.502,80.4816 178,77.5C 183.363,69.9829 188.863,62.6496 194.5,55.5 Z"/></g>
<g><path style="opacity:1" fill="#be887e" d="M 195.5,53.5 C 209.991,53.373 224.658,53.7063 239.5,54.5C 239.5,54.8333 239.5,55.1667 239.5,55.5C 234.167,55.5 228.833,55.5 223.5,55.5C 223.5,60.5 223.5,65.5 223.5,70.5C 217.5,70.5 211.5,70.5 205.5,70.5C 205.5,65.5 205.5,60.5 205.5,55.5C 201.833,55.5 198.167,55.5 194.5,55.5C 194.328,54.5084 194.662,53.8417 195.5,53.5 Z"/></g>
<g><path style="opacity:1" fill="#f2ddd4" d="M 214.5,62.5 C 216.5,62.5 218.5,62.5 220.5,62.5C 220.5,64.5 220.5,66.5 220.5,68.5C 218.5,68.5 216.5,68.5 214.5,68.5C 214.5,66.5 214.5,64.5 214.5,62.5 Z"/></g>
<g><path style="opacity:1" fill="#f3dfd5" d="M 207.5,62.5 C 209.5,62.5 211.5,62.5 213.5,62.5C 213.5,64.5 213.5,66.5 213.5,68.5C 211.5,68.5 209.5,68.5 207.5,68.5C 207.5,66.5 207.5,64.5 207.5,62.5 Z"/></g>
<g><path style="opacity:1" fill="#f2ddd4" d="M 214.5,55.5 C 216.5,55.5 218.5,55.5 220.5,55.5C 220.5,57.5 220.5,59.5 220.5,61.5C 218.5,61.5 216.5,61.5 214.5,61.5C 214.5,59.5 214.5,57.5 214.5,55.5 Z"/></g>
<g><path style="opacity:1" fill="#f3ded5" d="M 207.5,55.5 C 209.5,55.5 211.5,55.5 213.5,55.5C 213.5,57.5 213.5,59.5 213.5,61.5C 211.5,61.5 209.5,61.5 207.5,61.5C 207.5,59.5 207.5,57.5 207.5,55.5 Z"/></g>
<g><path style="opacity:1" fill="#b67d71" d="M 256.5,78.5 C 280.167,78.5 303.833,78.5 327.5,78.5C 327.5,81.5 327.5,84.5 327.5,87.5C 322.901,87.2 318.401,87.5333 314,88.5C 313.5,96.4931 313.334,104.493 313.5,112.5C 311.167,112.5 308.833,112.5 306.5,112.5C 305.485,124.805 305.152,140.472 305.5,159.5C 297.5,159.5 289.5,159.5 281.5,159.5C 284.675,152.403 284.008,145.736 279.5,139.5C 280.808,137.362 280.475,135.362 278.5,133.5C 278.938,133.565 279.272,133.399 279.5,133C 277.883,131.908 276.883,130.408 276.5,128.5C 285.167,128.5 293.833,128.5 302.5,128.5C 302.5,114.833 302.5,101.167 302.5,87.5C 290.833,87.5 279.167,87.5 267.5,87.5C 267.5,101.167 267.5,114.833 267.5,128.5C 268.5,128.5 269.5,128.5 270.5,128.5C 272.931,129.741 272.931,130.908 270.5,132C 271.793,132.49 273.127,132.657 274.5,132.5C 273.92,136.442 271.587,138.608 267.5,139C 265.833,141.333 264.167,143.667 262.5,146C 260.866,146.494 259.199,146.66 257.5,146.5C 257.5,137.5 257.5,128.5 257.5,119.5C 250.167,119.5 242.833,119.5 235.5,119.5C 236.092,125.631 235.425,131.464 233.5,137C 239.8,139.224 239.8,140.557 233.5,141C 235.321,143.456 235.988,146.289 235.5,149.5C 240.511,149.334 245.511,149.501 250.5,150C 251.066,150.995 251.733,151.828 252.5,152.5C 252.5,153.167 252.5,153.833 252.5,154.5C 249.136,155.211 246.803,154.044 245.5,151C 242.183,150.502 238.85,150.335 235.5,150.5C 235.5,158.833 235.5,167.167 235.5,175.5C 226.5,175.5 217.5,175.5 208.5,175.5C 206.251,171.748 202.918,170.581 198.5,172C 197.364,173.145 196.364,174.312 195.5,175.5C 192.833,175.5 190.167,175.5 187.5,175.5C 187.5,174.167 187.5,172.833 187.5,171.5C 189.5,171.5 191.5,171.5 193.5,171.5C 194.46,147.859 194.793,124.193 194.5,100.5C 207.837,100.333 221.171,100.5 234.5,101C 235.475,106.741 235.808,112.575 235.5,118.5C 242.833,118.5 250.167,118.5 257.5,118.5C 257.5,111.833 257.5,105.167 257.5,98.5C 230.833,98.5 204.167,98.5 177.5,98.5C 177.5,98.1667 177.5,97.8333 177.5,97.5C 203.833,97.5 230.167,97.5 256.5,97.5C 256.5,94.1667 256.5,90.8333 256.5,87.5C 230.167,87.5 203.833,87.5 177.5,87.5C 177.5,87.1667 177.5,86.8333 177.5,86.5C 203.833,86.5 230.167,86.5 256.5,86.5C 256.5,83.8333 256.5,81.1667 256.5,78.5 Z"/></g>
<g><path style="opacity:1" fill="#a2af7b" d="M 62.5,92.5 C 60.0982,95.2155 57.4315,97.7155 54.5,100C 56.1341,100.494 57.8008,100.66 59.5,100.5C 59.5,101.167 59.5,101.833 59.5,102.5C 59.5,102.833 59.5,103.167 59.5,103.5C 59.5,106.833 59.5,110.167 59.5,113.5C 59.5,113.833 59.5,114.167 59.5,114.5C 59.5,117.833 59.5,121.167 59.5,124.5C 57.0922,122.084 54.4256,120.084 51.5,118.5C 51.8346,115.993 52.8346,113.826 54.5,112C 53.0715,111.421 51.7382,111.588 50.5,112.5C 50.5774,111.25 51.244,110.417 52.5,110C 51.737,109.056 50.737,108.556 49.5,108.5C 47.0727,109.856 44.7393,111.356 42.5,113C 43.0944,113.464 43.7611,113.631 44.5,113.5C 44.1667,114.5 43.5,115.167 42.5,115.5C 38.0086,114.776 36.342,112.109 37.5,107.5C 40.726,105.298 43.8927,102.965 47,100.5C 48.2148,95.9491 48.8814,91.2824 49,86.5C 50.2371,81.2535 53.4038,79.4202 58.5,81C 62.1155,83.9004 63.4489,87.7338 62.5,92.5 Z"/></g>
<g><path style="opacity:1" fill="#d8a8a1" d="M 160.5,100.5 C 157.913,101.816 154.913,102.483 151.5,102.5C 143.339,101.056 135.006,100.39 126.5,100.5C 119.148,100.311 111.982,100.978 105,102.5C 98.0183,100.978 90.8516,100.311 83.5,100.5C 75.3193,100.367 67.3193,101.034 59.5,102.5C 59.5,101.833 59.5,101.167 59.5,100.5C 76.2282,86.3842 93.0616,72.3842 110,58.5C 126.695,72.698 143.529,86.698 160.5,100.5 Z"/></g>
<g><path style="opacity:1" fill="#fbecda" d="M -0.5,86.5 C 2.51838,86.3354 5.51838,86.502 8.5,87C 9.38017,88.3561 9.71351,89.8561 9.5,91.5C 6.27203,92.4137 2.93869,92.7471 -0.5,92.5C -0.5,90.5 -0.5,88.5 -0.5,86.5 Z"/></g>
<g><path style="opacity:1" fill="#daaba5" d="M 177.5,87.5 C 203.833,87.5 230.167,87.5 256.5,87.5C 256.5,90.8333 256.5,94.1667 256.5,97.5C 230.167,97.5 203.833,97.5 177.5,97.5C 177.5,94.1667 177.5,90.8333 177.5,87.5 Z"/></g>
<g><path style="opacity:1" fill="#d6a297" d="M 276.5,128.5 C 274.451,127.359 272.451,127.359 270.5,128.5C 269.5,128.5 268.5,128.5 267.5,128.5C 267.5,114.833 267.5,101.167 267.5,87.5C 279.167,87.5 290.833,87.5 302.5,87.5C 302.5,101.167 302.5,114.833 302.5,128.5C 293.833,128.5 285.167,128.5 276.5,128.5 Z"/></g>
<g><path style="opacity:1" fill="#b8706c" d="M 269.5,89.5 C 274.167,89.5 278.833,89.5 283.5,89.5C 283.5,91.8333 283.5,94.1667 283.5,96.5C 278.833,96.5 274.167,96.5 269.5,96.5C 269.5,94.1667 269.5,91.8333 269.5,89.5 Z"/></g>
<g><path style="opacity:1" fill="#f1dbd2" d="M 287.5,89.5 C 291.833,89.5 296.167,89.5 300.5,89.5C 300.5,91.8333 300.5,94.1667 300.5,96.5C 295.786,96.8266 291.12,96.4933 286.5,95.5C 287.348,93.5914 287.682,91.5914 287.5,89.5 Z"/></g>
<g><path style="opacity:1" fill="#e1b7ac" d="M 327.5,87.5 C 327.5,88.5 327.5,89.5 327.5,90.5C 323.833,90.5 320.167,90.5 316.5,90.5C 316.5,92.5 316.5,94.5 316.5,96.5C 320.167,96.5 323.833,96.5 327.5,96.5C 327.5,97.8333 327.5,99.1667 327.5,100.5C 326.094,100.973 325.427,101.973 325.5,103.5C 324.698,102.048 324.198,100.382 324,98.5C 321.889,100.102 320.389,102.102 319.5,104.5C 320.418,107.406 321.751,110.072 323.5,112.5C 322.504,112.586 321.671,112.252 321,111.5C 320.616,113.197 320.782,114.863 321.5,116.5C 320.833,116.5 320.167,116.5 319.5,116.5C 319.665,113.482 319.498,110.482 319,107.5C 318.506,109.134 318.34,110.801 318.5,112.5C 316.833,112.5 315.167,112.5 313.5,112.5C 313.334,104.493 313.5,96.4931 314,88.5C 318.401,87.5333 322.901,87.2 327.5,87.5 Z"/></g>
<g><path style="opacity:1" fill="#f4ddd4" d="M 327.5,90.5 C 327.5,92.5 327.5,94.5 327.5,96.5C 323.833,96.5 320.167,96.5 316.5,96.5C 316.5,94.5 316.5,92.5 316.5,90.5C 320.167,90.5 323.833,90.5 327.5,90.5 Z"/></g>
<g><path style="opacity:1" fill="#dc463b" d="M 9.5,91.5 C 12.617,91.6423 15.117,92.9756 17,95.5C 17.4997,103.159 17.6664,110.826 17.5,118.5C 17.5,131.833 17.5,145.167 17.5,158.5C 14.8333,158.5 12.1667,158.5 9.5,158.5C 9.5,156.833 9.5,155.167 9.5,153.5C 11.3792,152.659 13.3792,152.325 15.5,152.5C 15.6633,150.143 15.4966,147.81 15,145.5C 14.2496,144.874 13.4162,144.374 12.5,144C 13.3802,142.644 13.7135,141.144 13.5,139.5C 11.1667,139.5 8.83333,139.5 6.5,139.5C 6.5,138.833 6.16667,138.5 5.5,138.5C 5.82735,128.319 5.49402,118.319 4.5,108.5C 3.08134,107.549 1.41467,107.216 -0.5,107.5C -0.5,102.5 -0.5,97.5 -0.5,92.5C 2.93869,92.7471 6.27203,92.4137 9.5,91.5 Z"/></g>
<g><path style="opacity:1" fill="#d8a8a1" d="M 177.5,98.5 C 204.167,98.5 230.833,98.5 257.5,98.5C 257.5,105.167 257.5,111.833 257.5,118.5C 250.167,118.5 242.833,118.5 235.5,118.5C 235.808,112.575 235.475,106.741 234.5,101C 221.171,100.5 207.837,100.333 194.5,100.5C 194.793,124.193 194.46,147.859 193.5,171.5C 191.5,171.5 189.5,171.5 187.5,171.5C 187.5,172.833 187.5,174.167 187.5,175.5C 184.167,175.5 180.833,175.5 177.5,175.5C 177.813,171.958 177.479,168.625 176.5,165.5C 171.167,165.5 165.833,165.5 160.5,165.5C 160.5,165.167 160.5,164.833 160.5,164.5C 166.167,164.5 171.833,164.5 177.5,164.5C 177.5,152.5 177.5,140.5 177.5,128.5C 182.833,128.5 188.167,128.5 193.5,128.5C 193.5,125.5 193.5,122.5 193.5,119.5C 188.167,119.5 182.833,119.5 177.5,119.5C 177.5,119.167 177.5,118.833 177.5,118.5C 182.833,118.5 188.167,118.5 193.5,118.5C 193.5,115.5 193.5,112.5 193.5,109.5C 188.167,109.5 182.833,109.5 177.5,109.5C 177.5,106.5 177.5,103.5 177.5,100.5C 177.5,99.8333 177.5,99.1667 177.5,98.5 Z"/></g>
<g><path style="opacity:1" fill="#c6d3a3" d="M 37.5,107.5 C 36.342,112.109 38.0086,114.776 42.5,115.5C 42.5,117.5 42.5,119.5 42.5,121.5C 37.1691,127.177 37.1691,132.843 42.5,138.5C 43.4922,142.783 43.8256,147.116 43.5,151.5C 39.2948,157.249 34.6281,162.582 29.5,167.5C 29.8204,164.102 29.487,160.768 28.5,157.5C 27.5108,161.107 27.1774,164.774 27.5,168.5C 23.6375,168.538 19.8042,168.205 16,167.5C 13.8218,167.395 11.9885,168.061 10.5,169.5C 10.5,168.167 10.5,166.833 10.5,165.5C 13.3878,166.01 15.7211,165.344 17.5,163.5C 17.5,161.833 17.5,160.167 17.5,158.5C 17.5,145.167 17.5,131.833 17.5,118.5C 18.2645,113.961 19.0979,109.294 20,104.5C 22.1281,98.6869 25.9614,97.1869 31.5,100C 33.6394,102.478 35.6394,104.978 37.5,107.5 Z"/></g>
<g><path style="opacity:1" fill="#ba7370" d="M 284.5,98.5 C 281.283,104.716 276.283,108.716 269.5,110.5C 269.5,106.5 269.5,102.5 269.5,98.5C 274.5,98.5 279.5,98.5 284.5,98.5 Z"/></g>
<g><path style="opacity:1" fill="#b97f73" d="M 160.5,100.5 C 165.833,100.5 171.167,100.5 176.5,100.5C 176.833,100.5 177.167,100.5 177.5,100.5C 177.5,103.5 177.5,106.5 177.5,109.5C 177.5,112.5 177.5,115.5 177.5,118.5C 177.5,118.833 177.5,119.167 177.5,119.5C 177.5,122.5 177.5,125.5 177.5,128.5C 177.5,140.5 177.5,152.5 177.5,164.5C 171.833,164.5 166.167,164.5 160.5,164.5C 160.5,161.167 160.5,157.833 160.5,154.5C 162.415,154.784 164.081,154.451 165.5,153.5C 165.395,149.452 165.728,145.452 166.5,141.5C 162.327,142.044 158.494,141.377 155,139.5C 154.506,141.134 154.34,142.801 154.5,144.5C 153.532,142.393 153.198,140.059 153.5,137.5C 153.5,136.833 153.5,136.167 153.5,135.5C 153.842,134.662 154.508,134.328 155.5,134.5C 155.448,140.242 157.614,141.575 162,138.5C 162.64,136.735 162.473,135.068 161.5,133.5C 161.631,132.624 161.298,131.957 160.5,131.5C 158.591,132.348 156.591,132.682 154.5,132.5C 156.792,131.66 159.125,130.66 161.5,129.5C 160.873,128.583 160.539,127.583 160.5,126.5C 160.5,118.833 160.5,111.167 160.5,103.5C 154.5,103.5 148.5,103.5 142.5,103.5C 142.5,104.833 142.5,106.167 142.5,107.5C 142.068,108.71 141.401,109.71 140.5,110.5C 140.5,108.167 140.5,105.833 140.5,103.5C 136.167,103.5 131.833,103.5 127.5,103.5C 127.5,107.833 127.5,112.167 127.5,116.5C 142.167,116.833 142.167,117.167 127.5,117.5C 127.5,121.5 127.5,125.5 127.5,129.5C 127.918,130.222 128.584,130.722 129.5,131C 128.244,131.417 127.577,132.25 127.5,133.5C 121.925,132.548 116.259,132.214 110.5,132.5C 110.5,126.5 110.5,120.5 110.5,114.5C 106.833,114.5 103.167,114.5 99.5,114.5C 99.5,120.5 99.5,126.5 99.5,132.5C 94.1667,132.5 88.8333,132.5 83.5,132.5C 83.5,132.167 83.5,131.833 83.5,131.5C 84.1667,131.5 84.5,131.167 84.5,130.5C 88.8333,130.5 93.1667,130.5 97.5,130.5C 97.5,126.167 97.5,121.833 97.5,117.5C 94.7531,116.765 91.4198,116.098 87.5,115.5C 88.7804,114.069 90.4471,113.402 92.5,113.5C 92.9382,113.435 93.2716,113.601 93.5,114C 92.8333,114.333 92.1667,114.667 91.5,115C 93.4727,115.495 95.4727,115.662 97.5,115.5C 97.5,113.833 97.5,112.167 97.5,110.5C 97.5,108.167 97.5,105.833 97.5,103.5C 94.1833,102.835 90.6833,102.501 87,102.5C 82.9085,102.576 79.0751,103.243 75.5,104.5C 73.7354,103.539 71.7354,103.205 69.5,103.5C 69.5,107.5 69.5,111.5 69.5,115.5C 72.8333,115.5 76.1667,115.5 79.5,115.5C 79.5,115.833 79.5,116.167 79.5,116.5C 75.3786,116.163 72.0452,116.496 69.5,117.5C 69.5,121.167 69.5,124.833 69.5,128.5C 70.9587,128.567 72.2921,128.234 73.5,127.5C 73.3284,128.492 73.6618,129.158 74.5,129.5C 75.2625,130.268 76.2625,130.768 77.5,131C 76.511,133.158 74.8444,134.325 72.5,134.5C 70.8333,134.5 69.1667,134.5 67.5,134.5C 68.9678,133.194 70.3012,131.694 71.5,130C 69.9532,129.667 68.6199,130.167 67.5,131.5C 67.1667,131 66.8333,130.5 66.5,130C 67.4249,124.884 67.7582,119.717 67.5,114.5C 64.8333,114.5 62.1667,114.5 59.5,114.5C 59.5,114.167 59.5,113.833 59.5,113.5C 62.1667,113.5 64.8333,113.5 67.5,113.5C 67.5,110.167 67.5,106.833 67.5,103.5C 64.8333,103.5 62.1667,103.5 59.5,103.5C 59.5,103.167 59.5,102.833 59.5,102.5C 67.3193,101.034 75.3193,100.367 83.5,100.5C 90.8516,100.311 98.0183,100.978 105,102.5C 111.982,100.978 119.148,100.311 126.5,100.5C 135.006,100.39 143.339,101.056 151.5,102.5C 154.913,102.483 157.913,101.816 160.5,100.5 Z"/></g>
<g><path style="opacity:1" fill="#e35e53" d="M 325.5,103.5 C 325.427,105.027 326.094,106.027 327.5,106.5C 327.5,111.167 327.5,115.833 327.5,120.5C 325.708,120.634 324.042,120.301 322.5,119.5C 321.375,118.652 321.375,117.652 322.5,116.5C 323.434,115.432 323.768,114.099 323.5,112.5C 321.751,110.072 320.418,107.406 319.5,104.5C 320.389,102.102 321.889,100.102 324,98.5C 324.198,100.382 324.698,102.048 325.5,103.5 Z"/></g>
<g><path style="opacity:1" fill="#f8bb36" d="M 327.5,100.5 C 327.5,102.5 327.5,104.5 327.5,106.5C 326.094,106.027 325.427,105.027 325.5,103.5C 325.427,101.973 326.094,100.973 327.5,100.5 Z"/></g>
<g><path style="opacity:1" fill="#daa9a3" d="M 59.5,103.5 C 62.1667,103.5 64.8333,103.5 67.5,103.5C 67.5,106.833 67.5,110.167 67.5,113.5C 64.8333,113.5 62.1667,113.5 59.5,113.5C 59.5,110.167 59.5,106.833 59.5,103.5 Z"/></g>
<g><path style="opacity:1" fill="#e25e51" d="M 75.5,104.5 C 75.5,105.167 75.5,105.833 75.5,106.5C 73.0246,107.687 72.0246,109.687 72.5,112.5C 74.7812,112.923 76.4479,112.256 77.5,110.5C 77.3505,109.448 77.5172,108.448 78,107.5C 78.8518,108.571 79.6851,109.571 80.5,110.5C 80.634,112.292 80.3007,113.958 79.5,115.5C 76.1667,115.5 72.8333,115.5 69.5,115.5C 69.5,111.5 69.5,107.5 69.5,103.5C 71.7354,103.205 73.7354,103.539 75.5,104.5 Z"/></g>
<g><path style="opacity:1" fill="#f0d8ca" d="M 97.5,103.5 C 97.0228,105.99 95.6895,107.99 93.5,109.5C 92.0295,108.619 91.1962,107.286 91,105.5C 89.4987,108.286 87.9987,110.953 86.5,113.5C 85.5,113.5 84.5,113.5 83.5,113.5C 83.3573,111.738 83.6906,110.071 84.5,108.5C 82.0172,104.643 81.3505,104.977 82.5,109.5C 81.8333,109.833 81.1667,110.167 80.5,110.5C 79.6851,109.571 78.8518,108.571 78,107.5C 77.5172,108.448 77.3505,109.448 77.5,110.5C 75.8235,109.817 75.1568,108.483 75.5,106.5C 75.5,105.833 75.5,105.167 75.5,104.5C 79.0751,103.243 82.9085,102.576 87,102.5C 90.6833,102.501 94.1833,102.835 97.5,103.5 Z"/></g>
<g><path style="opacity:1" fill="#daaba4" d="M 99.5,103.5 C 103.167,103.5 106.833,103.5 110.5,103.5C 110.5,106.833 110.5,110.167 110.5,113.5C 106.833,113.5 103.167,113.5 99.5,113.5C 99.5,110.167 99.5,106.833 99.5,103.5 Z"/></g>
<g><path style="opacity:1" fill="#f2ddd4" d="M 112.5,103.5 C 116.833,103.5 121.167,103.5 125.5,103.5C 125.5,107.833 125.5,112.167 125.5,116.5C 121.167,116.5 116.833,116.5 112.5,116.5C 112.5,112.167 112.5,107.833 112.5,103.5 Z"/></g>
<g><path style="opacity:1" fill="#dbaba4" d="M 160.5,126.5 C 157.545,121.55 153.212,118.55 147.5,117.5C 148.15,115.565 148.483,113.565 148.5,111.5C 146.069,110.259 146.069,109.092 148.5,108C 146.635,106.2 144.635,106.034 142.5,107.5C 142.5,106.167 142.5,104.833 142.5,103.5C 148.5,103.5 154.5,103.5 160.5,103.5C 160.5,111.167 160.5,118.833 160.5,126.5 Z"/></g>
<g><path style="opacity:1" fill="#f2ded5" d="M 140.5,110.5 C 140.167,110.5 139.833,110.5 139.5,110.5C 138.957,110.56 138.624,110.893 138.5,111.5C 140.888,112.554 142.555,114.221 143.5,116.5C 135.776,117.89 130.443,122.223 127.5,129.5C 127.5,125.5 127.5,121.5 127.5,117.5C 142.167,117.167 142.167,116.833 127.5,116.5C 127.5,112.167 127.5,107.833 127.5,103.5C 131.833,103.5 136.167,103.5 140.5,103.5C 140.5,105.833 140.5,108.167 140.5,110.5 Z"/></g>
<g><path style="opacity:1" fill="#f3ded4" d="M 230.5,145.5 C 229.13,145.144 228.13,144.31 227.5,143C 229.001,139.455 228.501,138.955 226,141.5C 226.131,144.095 225.964,146.595 225.5,149C 221.323,149.142 219.489,146.975 220,142.5C 217.171,136.841 216.004,137.175 216.5,143.5C 212.333,143.154 210.5,140.82 211,136.5C 209.905,137.693 209.072,139.027 208.5,140.5C 207.837,138.958 207.17,137.291 206.5,135.5C 204.23,137.602 202.563,140.102 201.5,143C 202.979,145.971 204.645,148.804 206.5,151.5C 204.983,151.489 203.816,150.823 203,149.5C 202.4,152.095 202.9,154.429 204.5,156.5C 203.508,156.328 202.842,156.662 202.5,157.5C 201.542,157.047 200.708,156.381 200,155.5C 199.802,157.382 199.302,159.048 198.5,160.5C 198.174,141.59 198.507,122.757 199.5,104C 209.744,103.181 219.91,103.348 230,104.5C 230.178,116.409 230.678,128.242 231.5,140C 230.594,141.699 230.261,143.533 230.5,145.5 Z"/></g>
<g><path style="opacity:1" fill="#f6bc40" d="M 97.5,103.5 C 97.5,105.833 97.5,108.167 97.5,110.5C 95.4348,110.953 93.7682,111.953 92.5,113.5C 90.4471,113.402 88.7804,114.069 87.5,115.5C 84.075,115.633 83.7417,114.967 86.5,113.5C 87.9987,110.953 89.4987,108.286 91,105.5C 91.1962,107.286 92.0295,108.619 93.5,109.5C 95.6895,107.99 97.0228,105.99 97.5,103.5 Z"/></g>
<g><path style="opacity:1" fill="#d84e32" d="M 148.5,111.5 C 145.287,111.81 142.287,111.477 139.5,110.5C 139.833,110.5 140.167,110.5 140.5,110.5C 141.401,109.71 142.068,108.71 142.5,107.5C 144.635,106.034 146.635,106.2 148.5,108C 146.069,109.092 146.069,110.259 148.5,111.5 Z"/></g>
<g><path style="opacity:1" fill="#b5a3ae" d="M 313.5,112.5 C 315.167,112.5 316.833,112.5 318.5,112.5C 318.34,110.801 318.506,109.134 319,107.5C 319.498,110.482 319.665,113.482 319.5,116.5C 319.565,116.938 319.399,117.272 319,117.5C 318.333,114.833 317.667,114.833 317,117.5C 315.812,116.437 315.312,115.103 315.5,113.5C 312.5,113.5 309.5,113.5 306.5,113.5C 306.5,116.167 306.5,118.833 306.5,121.5C 317.167,121.833 317.167,122.167 306.5,122.5C 306.5,125.167 306.5,127.833 306.5,130.5C 310.5,130.5 314.5,130.5 318.5,130.5C 318.157,127.347 318.49,125.013 319.5,123.5C 319.369,124.239 319.536,124.906 320,125.5C 320.654,124.304 321.154,124.304 321.5,125.5C 321.137,126.183 320.804,126.85 320.5,127.5C 320.5,138.167 320.5,148.833 320.5,159.5C 320.5,165.5 320.5,171.5 320.5,177.5C 319.081,178.451 317.415,178.784 315.5,178.5C 312.5,178.5 309.5,178.5 306.5,178.5C 305.436,174.895 305.103,168.562 305.5,159.5C 305.152,140.472 305.485,124.805 306.5,112.5C 308.833,112.5 311.167,112.5 313.5,112.5 Z"/></g>
<g><path style="opacity:1" fill="#d5492c" d="M 50.5,112.5 C 50.1583,113.338 49.4916,113.672 48.5,113.5C 47.8333,113.5 47.1667,113.5 46.5,113.5C 45.8333,113.5 45.1667,113.5 44.5,113.5C 43.7611,113.631 43.0944,113.464 42.5,113C 44.7393,111.356 47.0727,109.856 49.5,108.5C 50.737,108.556 51.737,109.056 52.5,110C 51.244,110.417 50.5774,111.25 50.5,112.5 Z"/></g>
<g><path style="opacity:1" fill="#f8ba34" d="M 75.5,106.5 C 75.1568,108.483 75.8235,109.817 77.5,110.5C 76.4479,112.256 74.7812,112.923 72.5,112.5C 72.0246,109.687 73.0246,107.687 75.5,106.5 Z"/></g>
<g><path style="opacity:1" fill="#f1dbd2" d="M 284.5,98.5 C 289.833,98.5 295.167,98.5 300.5,98.5C 300.5,107.833 300.5,117.167 300.5,126.5C 298.708,126.634 297.042,126.301 295.5,125.5C 295.5,125.167 295.5,124.833 295.5,124.5C 297.246,123.751 298.246,122.417 298.5,120.5C 298,118.5 297.5,116.5 297,114.5C 296.623,113.058 295.79,112.058 294.5,111.5C 294.235,107.87 292.902,104.703 290.5,102C 288.833,101.333 287.167,101.333 285.5,102C 284.748,102.671 284.414,103.504 284.5,104.5C 284.5,104.833 284.5,105.167 284.5,105.5C 283.728,106.694 282.728,107.694 281.5,108.5C 280.791,107.596 279.791,107.263 278.5,107.5C 278.517,109.565 278.85,111.565 279.5,113.5C 276.118,118.955 277.452,122.622 283.5,124.5C 283.5,124.833 283.5,125.167 283.5,125.5C 278.93,126.441 274.263,126.774 269.5,126.5C 269.5,121.167 269.5,115.833 269.5,110.5C 276.283,108.716 281.283,104.716 284.5,98.5 Z"/></g>
<g><path style="opacity:1" fill="#ea8e78" d="M 281.5,108.5 C 281.427,110.027 282.094,111.027 283.5,111.5C 282.713,113.104 281.38,113.771 279.5,113.5C 278.85,111.565 278.517,109.565 278.5,107.5C 279.791,107.263 280.791,107.596 281.5,108.5 Z"/></g>
<g><path style="opacity:1" fill="#c97760" d="M 291.5,110.5 C 291.879,113.567 290.879,114.567 288.5,113.5C 288.19,111.856 287.19,110.856 285.5,110.5C 284.699,108.958 284.366,107.292 284.5,105.5C 284.5,105.167 284.5,104.833 284.5,104.5C 285.117,104.389 285.617,104.056 286,103.5C 287.049,105.107 288.549,105.773 290.5,105.5C 290.366,107.292 290.699,108.958 291.5,110.5 Z"/></g>
<g><path style="opacity:1" fill="#130f0d" d="M 294.5,111.5 C 293.609,110.89 292.609,110.557 291.5,110.5C 290.699,108.958 290.366,107.292 290.5,105.5C 288.549,105.773 287.049,105.107 286,103.5C 285.617,104.056 285.117,104.389 284.5,104.5C 284.414,103.504 284.748,102.671 285.5,102C 287.167,101.333 288.833,101.333 290.5,102C 292.902,104.703 294.235,107.87 294.5,111.5 Z"/></g>
<g><path style="opacity:1" fill="#1a1412" d="M 284.5,105.5 C 284.366,107.292 284.699,108.958 285.5,110.5C 284.833,110.5 284.5,110.833 284.5,111.5C 284.167,111.5 283.833,111.5 283.5,111.5C 282.094,111.027 281.427,110.027 281.5,108.5C 282.728,107.694 283.728,106.694 284.5,105.5 Z"/></g>
<g><path style="opacity:1" fill="#daaba5" d="M 177.5,109.5 C 182.833,109.5 188.167,109.5 193.5,109.5C 193.5,112.5 193.5,115.5 193.5,118.5C 188.167,118.5 182.833,118.5 177.5,118.5C 177.5,115.5 177.5,112.5 177.5,109.5 Z"/></g>
<g><path style="opacity:1" fill="#f6be3c" d="M 82.5,109.5 C 82.5,111.833 82.5,114.167 82.5,116.5C 81.5,116.5 80.5,116.5 79.5,116.5C 79.5,116.167 79.5,115.833 79.5,115.5C 80.3007,113.958 80.634,112.292 80.5,110.5C 81.1667,110.167 81.8333,109.833 82.5,109.5 Z"/></g>
<g><path style="opacity:1" fill="#e15f56" d="M 97.5,110.5 C 97.5,112.167 97.5,113.833 97.5,115.5C 95.4727,115.662 93.4727,115.495 91.5,115C 92.1667,114.667 92.8333,114.333 93.5,114C 93.2716,113.601 92.9382,113.435 92.5,113.5C 93.7682,111.953 95.4348,110.953 97.5,110.5 Z"/></g>
<g><path style="opacity:1" fill="#828643" d="M 284.5,111.5 C 284.5,110.833 284.833,110.5 285.5,110.5C 287.19,110.856 288.19,111.856 288.5,113.5C 288.234,117.079 286.901,117.413 284.5,114.5C 285.653,113.313 285.653,112.313 284.5,111.5 Z"/></g>
<g><path style="opacity:1" fill="#e39a79" d="M 139.5,110.5 C 142.287,111.477 145.287,111.81 148.5,111.5C 148.483,113.565 148.15,115.565 147.5,117.5C 146.041,117.567 144.708,117.234 143.5,116.5C 142.555,114.221 140.888,112.554 138.5,111.5C 138.624,110.893 138.957,110.56 139.5,110.5 Z"/></g>
<g><path style="opacity:1" fill="#f8c03d" d="M 323.5,112.5 C 323.768,114.099 323.434,115.432 322.5,116.5C 322.167,116.5 321.833,116.5 321.5,116.5C 320.782,114.863 320.616,113.197 321,111.5C 321.671,112.252 322.504,112.586 323.5,112.5 Z"/></g>
<g><path style="opacity:1" fill="#1b1613" d="M 44.5,113.5 C 45.1667,113.5 45.8333,113.5 46.5,113.5C 46.2627,114.791 46.596,115.791 47.5,116.5C 47.5,117.167 47.5,117.833 47.5,118.5C 45.5887,119.075 43.922,120.075 42.5,121.5C 42.5,119.5 42.5,117.5 42.5,115.5C 43.5,115.167 44.1667,114.5 44.5,113.5 Z"/></g>
<g><path style="opacity:1" fill="#d98c7b" d="M 51.5,118.5 C 50.1667,118.5 48.8333,118.5 47.5,118.5C 47.5,117.833 47.5,117.167 47.5,116.5C 48.3635,117.463 49.0302,117.463 49.5,116.5C 48.8728,115.583 48.5394,114.583 48.5,113.5C 49.4916,113.672 50.1583,113.338 50.5,112.5C 51.7382,111.588 53.0715,111.421 54.5,112C 52.8346,113.826 51.8346,115.993 51.5,118.5 Z"/></g>
<g><path style="opacity:1" fill="#f5bb36" d="M 291.5,110.5 C 292.609,110.557 293.609,110.89 294.5,111.5C 295.79,112.058 296.623,113.058 297,114.5C 297.5,116.5 298,118.5 298.5,120.5C 298.246,122.417 297.246,123.751 295.5,124.5C 291.5,124.5 287.5,124.5 283.5,124.5C 277.452,122.622 276.118,118.955 279.5,113.5C 281.38,113.771 282.713,113.104 283.5,111.5C 283.833,111.5 284.167,111.5 284.5,111.5C 285.653,112.313 285.653,113.313 284.5,114.5C 286.901,117.413 288.234,117.079 288.5,113.5C 290.879,114.567 291.879,113.567 291.5,110.5 Z"/></g>
<g><path style="opacity:1" fill="#eeaa52" d="M 46.5,113.5 C 47.1667,113.5 47.8333,113.5 48.5,113.5C 48.5394,114.583 48.8728,115.583 49.5,116.5C 49.0302,117.463 48.3635,117.463 47.5,116.5C 46.596,115.791 46.2627,114.791 46.5,113.5 Z"/></g>
<g><path style="opacity:1" fill="#e5c9be" d="M -0.5,107.5 C 1.41467,107.216 3.08134,107.549 4.5,108.5C 4.5,115.5 4.5,122.5 4.5,129.5C 2.4458,129.365 0.779138,130.032 -0.5,131.5C -0.5,123.5 -0.5,115.5 -0.5,107.5 Z"/></g>
<g><path style="opacity:1" fill="#ddb9a1" d="M 86.5,113.5 C 83.7417,114.967 84.075,115.633 87.5,115.5C 91.4198,116.098 94.7531,116.765 97.5,117.5C 93.1667,117.5 88.8333,117.5 84.5,117.5C 84.5,121.833 84.5,126.167 84.5,130.5C 84.5,131.167 84.1667,131.5 83.5,131.5C 82.6314,129.283 82.298,126.95 82.5,124.5C 82.0859,122.319 81.9192,119.985 82,117.5C 81.7216,118.416 81.2216,119.082 80.5,119.5C 80.5,119.167 80.5,118.833 80.5,118.5C 79.791,117.596 78.791,117.263 77.5,117.5C 74.8333,117.5 72.1667,117.5 69.5,117.5C 72.0452,116.496 75.3786,116.163 79.5,116.5C 80.5,116.5 81.5,116.5 82.5,116.5C 82.5,114.167 82.5,111.833 82.5,109.5C 81.3505,104.977 82.0172,104.643 84.5,108.5C 83.6906,110.071 83.3573,111.738 83.5,113.5C 84.5,113.5 85.5,113.5 86.5,113.5 Z"/></g>
<g><path style="opacity:1" fill="#e36051" d="M 69.5,117.5 C 72.1667,117.5 74.8333,117.5 77.5,117.5C 75.1289,119.997 74.1289,122.997 74.5,126.5C 74.5,127.167 74.1667,127.5 73.5,127.5C 72.2921,128.234 70.9587,128.567 69.5,128.5C 69.5,124.833 69.5,121.167 69.5,117.5 Z"/></g>
<g><path style="opacity:1" fill="#f2ddd4" d="M 112.5,117.5 C 116.833,117.5 121.167,117.5 125.5,117.5C 125.5,121.833 125.5,126.167 125.5,130.5C 122.534,130.89 119.868,130.223 117.5,128.5C 116.158,130.005 114.492,130.672 112.5,130.5C 112.5,126.167 112.5,121.833 112.5,117.5 Z"/></g>
<g><path style="opacity:1" fill="#fb9c38" d="M 143.5,116.5 C 144.708,117.234 146.041,117.567 147.5,117.5C 153.212,118.55 157.545,121.55 160.5,126.5C 160.539,127.583 160.873,128.583 161.5,129.5C 159.125,130.66 156.792,131.66 154.5,132.5C 150.167,132.5 145.833,132.5 141.5,132.5C 139.549,132.773 138.049,132.107 137,130.5C 134.931,131.264 132.764,131.764 130.5,132C 132.256,132.202 133.922,132.702 135.5,133.5C 135.376,134.107 135.043,134.44 134.5,134.5C 132.139,134.326 129.806,133.993 127.5,133.5C 127.577,132.25 128.244,131.417 129.5,131C 128.584,130.722 127.918,130.222 127.5,129.5C 130.443,122.223 135.776,117.89 143.5,116.5 Z"/></g>
<g><path style="opacity:1" fill="#f99c38" d="M 47.5,118.5 C 48.8333,118.5 50.1667,118.5 51.5,118.5C 54.4256,120.084 57.0922,122.084 59.5,124.5C 60.1481,126.086 60.6481,127.753 61,129.5C 62.7783,127.101 64.2783,127.434 65.5,130.5C 64.8417,133.158 63.175,134.825 60.5,135.5C 56.2494,132.451 53.5827,133.617 52.5,139C 53.0556,140.011 53.7222,140.844 54.5,141.5C 50.8333,144.833 47.1667,148.167 43.5,151.5C 43.8256,147.116 43.4922,142.783 42.5,138.5C 37.1691,132.843 37.1691,127.177 42.5,121.5C 43.922,120.075 45.5887,119.075 47.5,118.5 Z"/></g>
<g><path style="opacity:1" fill="#daaba5" d="M 177.5,119.5 C 182.833,119.5 188.167,119.5 193.5,119.5C 193.5,122.5 193.5,125.5 193.5,128.5C 188.167,128.5 182.833,128.5 177.5,128.5C 177.5,125.5 177.5,122.5 177.5,119.5 Z"/></g>
<g><path style="opacity:1" fill="#f4b338" d="M 77.5,117.5 C 78.791,117.263 79.791,117.596 80.5,118.5C 78.7497,119.659 77.7497,121.326 77.5,123.5C 77.5,125.5 76.5,126.5 74.5,126.5C 74.1289,122.997 75.1289,119.997 77.5,117.5 Z"/></g>
<g><path style="opacity:1" fill="#ce8a7e" d="M 319.5,116.5 C 320.167,116.5 320.833,116.5 321.5,116.5C 321.833,116.5 322.167,116.5 322.5,116.5C 321.375,117.652 321.375,118.652 322.5,119.5C 321.488,120.872 320.488,122.205 319.5,123.5C 318.49,125.013 318.157,127.347 318.5,130.5C 314.5,130.5 310.5,130.5 306.5,130.5C 306.5,127.833 306.5,125.167 306.5,122.5C 317.167,122.167 317.167,121.833 306.5,121.5C 306.5,118.833 306.5,116.167 306.5,113.5C 309.5,113.5 312.5,113.5 315.5,113.5C 315.312,115.103 315.812,116.437 317,117.5C 317.667,114.833 318.333,114.833 319,117.5C 319.399,117.272 319.565,116.938 319.5,116.5 Z"/></g>
<g><path style="opacity:1" fill="#d68b7e" d="M 4.5,108.5 C 5.49402,118.319 5.82735,128.319 5.5,138.5C 3.54868,139.641 1.54868,139.641 -0.5,138.5C -0.5,137.167 -0.5,135.833 -0.5,134.5C 2.5,134.167 4.16667,132.5 4.5,129.5C 4.5,122.5 4.5,115.5 4.5,108.5 Z"/></g>
<g><path style="opacity:1" fill="#f99d41" d="M 322.5,119.5 C 324.042,120.301 325.708,120.634 327.5,120.5C 327.5,123.833 327.5,127.167 327.5,130.5C 325.046,129.773 322.713,128.773 320.5,127.5C 320.804,126.85 321.137,126.183 321.5,125.5C 321.154,124.304 320.654,124.304 320,125.5C 319.536,124.906 319.369,124.239 319.5,123.5C 320.488,122.205 321.488,120.872 322.5,119.5 Z"/></g>
<g><path style="opacity:1" fill="#f19d50" d="M 82.5,124.5 C 80.7868,123.365 80.1201,121.698 80.5,119.5C 81.2216,119.082 81.7216,118.416 82,117.5C 81.9192,119.985 82.0859,122.319 82.5,124.5 Z"/></g>
<g><path style="opacity:1" fill="#b39ba9" d="M 74.5,129.5 C 73.6618,129.158 73.3284,128.492 73.5,127.5C 74.1667,127.5 74.5,127.167 74.5,126.5C 76.5,126.5 77.5,125.5 77.5,123.5C 78.1174,123.389 78.6174,123.056 79,122.5C 79.7065,124.081 80.5399,125.581 81.5,127C 78.9699,127.379 76.6365,128.213 74.5,129.5 Z"/></g>
<g><path style="opacity:1" fill="#b75542" d="M 283.5,124.5 C 287.5,124.5 291.5,124.5 295.5,124.5C 295.5,124.833 295.5,125.167 295.5,125.5C 291.5,126.833 287.5,126.833 283.5,125.5C 283.5,125.167 283.5,124.833 283.5,124.5 Z"/></g>
<g><path style="opacity:1" fill="#e25e54" d="M 97.5,117.5 C 97.5,121.833 97.5,126.167 97.5,130.5C 93.1667,130.5 88.8333,130.5 84.5,130.5C 84.5,126.167 84.5,121.833 84.5,117.5C 88.8333,117.5 93.1667,117.5 97.5,117.5 Z"/></g>
<g><path style="opacity:1" fill="#e2594f" d="M 80.5,118.5 C 80.5,118.833 80.5,119.167 80.5,119.5C 80.1201,121.698 80.7868,123.365 82.5,124.5C 82.298,126.95 82.6314,129.283 83.5,131.5C 83.5,131.833 83.5,132.167 83.5,132.5C 83.634,134.292 83.3007,135.958 82.5,137.5C 81.2524,139.649 79.7524,141.649 78,143.5C 77.3333,144.833 77.3333,146.167 78,147.5C 80.0639,148.591 82.2305,148.758 84.5,148C 85.2524,147.329 85.5858,146.496 85.5,145.5C 86.0886,141.703 87.0886,141.703 88.5,145.5C 88.6621,147.527 88.4955,149.527 88,151.5C 85.1517,155.677 82.3183,159.844 79.5,164C 82.362,171.24 83.862,171.074 84,163.5C 85.0014,160.827 86.5014,158.493 88.5,156.5C 88.6348,161.766 90.6348,166.099 94.5,169.5C 94.8333,169.333 95.1667,169.167 95.5,169C 91.6101,160.942 93.6101,154.776 101.5,150.5C 102.251,151.376 102.751,152.376 103,153.5C 103.346,151.152 104.513,149.319 106.5,148C 111.308,146.953 114.308,144.12 115.5,139.5C 116.309,137.708 116.809,135.708 117,133.5C 121.447,136.388 123.114,140.388 122,145.5C 120.807,147.886 119.64,150.22 118.5,152.5C 116.559,154.011 116.059,156.011 117,158.5C 117.671,159.252 118.504,159.586 119.5,159.5C 120.376,159.369 121.043,159.702 121.5,160.5C 120.37,161.622 119.703,162.956 119.5,164.5C 118.909,165.151 118.243,165.818 117.5,166.5C 118.592,169.024 119.926,171.357 121.5,173.5C 100.993,173.83 80.6598,173.497 60.5,172.5C 60.5,171.833 60.5,171.167 60.5,170.5C 61.7949,168.021 62.7949,165.354 63.5,162.5C 64.7899,161.942 65.6232,160.942 66,159.5C 66.3051,152.817 66.3051,146.15 66,139.5C 67.3946,138.185 68.3946,138.519 69,140.5C 69.5637,138.113 70.7304,136.113 72.5,134.5C 74.8444,134.325 76.511,133.158 77.5,131C 76.2625,130.768 75.2625,130.268 74.5,129.5C 76.6365,128.213 78.9699,127.379 81.5,127C 80.5399,125.581 79.7065,124.081 79,122.5C 78.6174,123.056 78.1174,123.389 77.5,123.5C 77.7497,121.326 78.7497,119.659 80.5,118.5 Z"/></g>
<g><path style="opacity:1" fill="#d44a2e" d="M 276.5,128.5 C 276.883,130.408 277.883,131.908 279.5,133C 279.272,133.399 278.938,133.565 278.5,133.5C 277.5,133.5 276.5,133.5 275.5,133.5C 275.5,132.833 275.167,132.5 274.5,132.5C 273.127,132.657 271.793,132.49 270.5,132C 272.931,130.908 272.931,129.741 270.5,128.5C 272.451,127.359 274.451,127.359 276.5,128.5 Z"/></g>
<g><path style="opacity:1" fill="#181413" d="M 4.5,129.5 C 4.16667,132.5 2.5,134.167 -0.5,134.5C -0.5,133.5 -0.5,132.5 -0.5,131.5C 0.779138,130.032 2.4458,129.365 4.5,129.5 Z"/></g>
<g><path style="opacity:1" fill="#b57b70" d="M 320.5,127.5 C 322.713,128.773 325.046,129.773 327.5,130.5C 327.5,136.5 327.5,142.5 327.5,148.5C 326.055,151.937 325.055,155.603 324.5,159.5C 323.167,159.5 321.833,159.5 320.5,159.5C 320.5,148.833 320.5,138.167 320.5,127.5 Z"/></g>
<g><path style="opacity:1" fill="#f8b374" d="M 161.5,133.5 C 159.565,134.15 157.565,134.483 155.5,134.5C 154.508,134.328 153.842,134.662 153.5,135.5C 149.5,135.5 145.5,135.5 141.5,135.5C 140.391,134.71 139.058,134.21 137.5,134C 139.058,133.79 140.391,133.29 141.5,132.5C 145.833,132.5 150.167,132.5 154.5,132.5C 156.591,132.682 158.591,132.348 160.5,131.5C 161.298,131.957 161.631,132.624 161.5,133.5 Z"/></g>
<g><path style="opacity:1" fill="#b47c71" d="M 306.5,132.5 C 310.5,132.5 314.5,132.5 318.5,132.5C 318.5,135.167 318.5,137.833 318.5,140.5C 314.5,140.5 310.5,140.5 306.5,140.5C 306.5,137.833 306.5,135.167 306.5,132.5 Z"/></g>
<g><path style="opacity:1" fill="#201917" d="M 275.5,133.5 C 276.5,133.5 277.5,133.5 278.5,133.5C 280.475,135.362 280.808,137.362 279.5,139.5C 278.292,138.766 276.959,138.433 275.5,138.5C 275.5,136.833 275.5,135.167 275.5,133.5 Z"/></g>
<g><path style="opacity:1" fill="#f5cca9" d="M 50.5,132.5 C 51.9464,131.387 53.6131,131.22 55.5,132C 52.8366,133.801 51.0033,136.301 50,139.5C 49.5706,137.331 50.0706,135.331 51.5,133.5C 51.3764,132.893 51.0431,132.56 50.5,132.5 Z"/></g>
<g><path style="opacity:1" fill="#fba192" d="M 161.5,133.5 C 162.473,135.068 162.64,136.735 162,138.5C 157.614,141.575 155.448,140.242 155.5,134.5C 157.565,134.483 159.565,134.15 161.5,133.5 Z"/></g>
<g><path style="opacity:1" fill="#f6a794" d="M 60.5,135.5 C 60.1501,137.626 60.1501,139.959 60.5,142.5C 59.0267,141.929 57.36,141.929 55.5,142.5C 55.5,141.833 55.1667,141.5 54.5,141.5C 53.7222,140.844 53.0556,140.011 52.5,139C 53.5827,133.617 56.2494,132.451 60.5,135.5 Z"/></g>
<g><path style="opacity:1" fill="#d8a8a0" d="M 127.5,133.5 C 127.5,135.5 127.5,137.5 127.5,139.5C 132.18,141.514 134.513,139.847 134.5,134.5C 135.043,134.44 135.376,134.107 135.5,133.5C 133.922,132.702 132.256,132.202 130.5,132C 132.764,131.764 134.931,131.264 137,130.5C 138.049,132.107 139.549,132.773 141.5,132.5C 140.391,133.29 139.058,133.79 137.5,134C 139.058,134.21 140.391,134.71 141.5,135.5C 139.801,135.34 138.134,135.506 136.5,136C 138.382,136.198 140.048,136.698 141.5,137.5C 139.833,137.5 138.167,137.5 136.5,137.5C 136.5,139.167 136.5,140.833 136.5,142.5C 132.5,142.5 128.5,142.5 124.5,142.5C 124.942,146.154 125.276,149.821 125.5,153.5C 128.833,153.5 132.167,153.5 135.5,153.5C 133.369,154.314 131.036,154.814 128.5,155C 127.748,155.671 127.414,156.504 127.5,157.5C 126.094,157.973 125.427,158.973 125.5,160.5C 123.146,159.506 122.146,160.506 122.5,163.5C 121.391,163.557 120.391,163.89 119.5,164.5C 119.703,162.956 120.37,161.622 121.5,160.5C 121.043,159.702 120.376,159.369 119.5,159.5C 120.49,156.849 121.49,154.183 122.5,151.5C 122.333,150.833 122.167,150.167 122,149.5C 121.241,151.063 120.074,152.063 118.5,152.5C 119.64,150.22 120.807,147.886 122,145.5C 123.114,140.388 121.447,136.388 117,133.5C 116.809,135.708 116.309,137.708 115.5,139.5C 114.115,138.426 112.949,137.093 112,135.5C 112.331,139.521 110.664,142.187 107,143.5C 106.228,143.355 105.561,143.022 105,142.5C 106.392,137.217 105.392,136.551 102,140.5C 100.979,143.105 100.145,145.772 99.5,148.5C 93.8526,151.524 92.1859,149.858 94.5,143.5C 94.2395,141.813 93.5728,140.313 92.5,139C 91.6683,138.312 91.0016,138.479 90.5,139.5C 92.2587,142.505 91.5921,144.505 88.5,145.5C 87.0886,141.703 86.0886,141.703 85.5,145.5C 84.5,145.5 83.5,145.5 82.5,145.5C 82.8051,142.586 82.8051,139.919 82.5,137.5C 83.3007,135.958 83.634,134.292 83.5,132.5C 88.8333,132.5 94.1667,132.5 99.5,132.5C 99.5,126.5 99.5,120.5 99.5,114.5C 103.167,114.5 106.833,114.5 110.5,114.5C 110.5,120.5 110.5,126.5 110.5,132.5C 116.259,132.214 121.925,132.548 127.5,133.5 Z"/></g>
<g><path style="opacity:1" fill="#f9a192" d="M 127.5,133.5 C 129.806,133.993 132.139,134.326 134.5,134.5C 134.513,139.847 132.18,141.514 127.5,139.5C 127.5,137.5 127.5,135.5 127.5,133.5 Z"/></g>
<g><path style="opacity:1" fill="#efe8f1" d="M 141.5,135.5 C 145.5,135.5 149.5,135.5 153.5,135.5C 153.5,136.167 153.5,136.833 153.5,137.5C 149.5,137.5 145.5,137.5 141.5,137.5C 140.048,136.698 138.382,136.198 136.5,136C 138.134,135.506 139.801,135.34 141.5,135.5 Z"/></g>
<g><path style="opacity:1" fill="#e25a50" d="M 208.5,140.5 C 209.552,144.557 212.218,147.057 216.5,148C 217.362,150.734 218.195,150.901 219,148.5C 220.955,149.453 222.622,150.787 224,152.5C 225.663,156.784 225.996,161.117 225,165.5C 226.947,163.937 228.114,161.937 228.5,159.5C 229.167,157.833 229.833,156.167 230.5,154.5C 230.5,158.833 230.5,163.167 230.5,167.5C 219.833,167.5 209.167,167.5 198.5,167.5C 198.5,165.833 198.5,164.167 198.5,162.5C 200.114,164.075 202.114,164.741 204.5,164.5C 204.5,163.5 204.5,162.5 204.5,161.5C 204.771,159.62 204.104,158.287 202.5,157.5C 202.842,156.662 203.508,156.328 204.5,156.5C 207.503,155.83 208.17,154.163 206.5,151.5C 204.645,148.804 202.979,145.971 201.5,143C 202.563,140.102 204.23,137.602 206.5,135.5C 207.17,137.291 207.837,138.958 208.5,140.5 Z"/></g>
<g><path style="opacity:1" fill="#d4a8a2" d="M 59.5,114.5 C 62.1667,114.5 64.8333,114.5 67.5,114.5C 67.7582,119.717 67.4249,124.884 66.5,130C 66.8333,130.5 67.1667,131 67.5,131.5C 68.6199,130.167 69.9532,129.667 71.5,130C 70.3012,131.694 68.9678,133.194 67.5,134.5C 66.7784,134.918 66.2784,135.584 66,136.5C 65.586,136.043 65.086,135.709 64.5,135.5C 63.942,140.985 63.6087,146.319 63.5,151.5C 62.3307,148.659 61.3307,145.659 60.5,142.5C 60.1501,139.959 60.1501,137.626 60.5,135.5C 63.175,134.825 64.8417,133.158 65.5,130.5C 64.2783,127.434 62.7783,127.101 61,129.5C 60.6481,127.753 60.1481,126.086 59.5,124.5C 59.5,121.167 59.5,117.833 59.5,114.5 Z"/></g>
<g><path style="opacity:1" fill="#f79939" d="M 274.5,132.5 C 275.167,132.5 275.5,132.833 275.5,133.5C 275.5,135.167 275.5,136.833 275.5,138.5C 276.959,138.433 278.292,138.766 279.5,139.5C 284.008,145.736 284.675,152.403 281.5,159.5C 281.5,160.167 281.5,160.833 281.5,161.5C 280.89,162.391 280.557,163.391 280.5,164.5C 278.57,168.373 277.903,172.706 278.5,177.5C 274.958,177.813 271.625,177.479 268.5,176.5C 271.845,175.652 273.512,173.485 273.5,170C 273.274,166.046 271.607,162.879 268.5,160.5C 269.497,157.995 269.497,155.328 268.5,152.5C 272.36,152.097 272.193,151.764 268,151.5C 266.319,151.608 265.152,152.275 264.5,153.5C 263.432,154.434 262.099,154.768 260.5,154.5C 255.596,153.082 254.596,150.415 257.5,146.5C 259.199,146.66 260.866,146.494 262.5,146C 264.167,143.667 265.833,141.333 267.5,139C 271.587,138.608 273.92,136.442 274.5,132.5 Z"/></g>
<g><path style="opacity:1" fill="#5b7b4e" d="M -0.5,138.5 C 1.54868,139.641 3.54868,139.641 5.5,138.5C 6.16667,138.5 6.5,138.833 6.5,139.5C 6.67754,140.695 7.01087,141.862 7.5,143C 4.41728,144.999 2.75062,147.832 2.5,151.5C 4.89837,151.259 6.89837,151.926 8.5,153.5C 5.51763,153.963 2.51763,154.296 -0.5,154.5C -0.5,149.167 -0.5,143.833 -0.5,138.5 Z"/></g>
<g><path style="opacity:1" fill="#f4912c" d="M 141.5,137.5 C 145.5,137.5 149.5,137.5 153.5,137.5C 153.198,140.059 153.532,142.393 154.5,144.5C 154.5,145.5 154.5,146.5 154.5,147.5C 154.5,153.167 154.5,158.833 154.5,164.5C 154.5,165.833 154.5,167.167 154.5,168.5C 150.5,168.167 146.5,167.833 142.5,167.5C 142.662,165.473 142.495,163.473 142,161.5C 140.316,163.351 138.483,165.018 136.5,166.5C 133.146,163.812 130.146,160.812 127.5,157.5C 127.414,156.504 127.748,155.671 128.5,155C 131.036,154.814 133.369,154.314 135.5,153.5C 135.942,149.846 136.276,146.179 136.5,142.5C 136.5,140.833 136.5,139.167 136.5,137.5C 138.167,137.5 139.833,137.5 141.5,137.5 Z"/></g>
<g><path style="opacity:1" fill="#f6b838" d="M 82.5,137.5 C 82.8051,139.919 82.8051,142.586 82.5,145.5C 83.5,145.5 84.5,145.5 85.5,145.5C 85.5858,146.496 85.2524,147.329 84.5,148C 82.2305,148.758 80.0639,148.591 78,147.5C 77.3333,146.167 77.3333,144.833 78,143.5C 79.7524,141.649 81.2524,139.649 82.5,137.5 Z"/></g>
<g><path style="opacity:1" fill="#d7a8a2" d="M 257.5,146.5 C 254.596,150.415 255.596,153.082 260.5,154.5C 261.66,156.203 260.993,156.869 258.5,156.5C 256.5,155.167 254.5,153.833 252.5,152.5C 251.733,151.828 251.066,150.995 250.5,150C 245.511,149.501 240.511,149.334 235.5,149.5C 235.988,146.289 235.321,143.456 233.5,141C 239.8,140.557 239.8,139.224 233.5,137C 235.425,131.464 236.092,125.631 235.5,119.5C 242.833,119.5 250.167,119.5 257.5,119.5C 257.5,128.5 257.5,137.5 257.5,146.5 Z"/></g>
<g><path style="opacity:1" fill="#c9796e" d="M 6.5,139.5 C 8.83333,139.5 11.1667,139.5 13.5,139.5C 13.7135,141.144 13.3802,142.644 12.5,144C 13.4162,144.374 14.2496,144.874 15,145.5C 15.4966,147.81 15.6633,150.143 15.5,152.5C 13.3792,152.325 11.3792,152.659 9.5,153.5C 9.16667,153.5 8.83333,153.5 8.5,153.5C 6.89837,151.926 4.89837,151.259 2.5,151.5C 2.75062,147.832 4.41728,144.999 7.5,143C 7.01087,141.862 6.67754,140.695 6.5,139.5 Z"/></g>
<g><path style="opacity:1" fill="#f7b836" d="M 115.5,139.5 C 114.308,144.12 111.308,146.953 106.5,148C 104.513,149.319 103.346,151.152 103,153.5C 102.751,152.376 102.251,151.376 101.5,150.5C 93.6101,154.776 91.6101,160.942 95.5,169C 95.1667,169.167 94.8333,169.333 94.5,169.5C 90.6348,166.099 88.6348,161.766 88.5,156.5C 86.5014,158.493 85.0014,160.827 84,163.5C 83.862,171.074 82.362,171.24 79.5,164C 82.3183,159.844 85.1517,155.677 88,151.5C 88.4955,149.527 88.6621,147.527 88.5,145.5C 91.5921,144.505 92.2587,142.505 90.5,139.5C 91.0016,138.479 91.6683,138.312 92.5,139C 93.5728,140.313 94.2395,141.813 94.5,143.5C 92.1859,149.858 93.8526,151.524 99.5,148.5C 100.145,145.772 100.979,143.105 102,140.5C 105.392,136.551 106.392,137.217 105,142.5C 105.561,143.022 106.228,143.355 107,143.5C 110.664,142.187 112.331,139.521 112,135.5C 112.949,137.093 114.115,138.426 115.5,139.5 Z"/></g>
<g><path style="opacity:1" fill="#d2c9d7" d="M 136.5,142.5 C 136.276,146.179 135.942,149.846 135.5,153.5C 132.167,153.5 128.833,153.5 125.5,153.5C 125.276,149.821 124.942,146.154 124.5,142.5C 128.5,142.5 132.5,142.5 136.5,142.5 Z"/></g>
<g><path style="opacity:1" fill="#d1c7d4" d="M 165.5,153.5 C 162.167,153.5 158.833,153.5 155.5,153.5C 155.795,151.265 155.461,149.265 154.5,147.5C 154.5,146.5 154.5,145.5 154.5,144.5C 154.34,142.801 154.506,141.134 155,139.5C 158.494,141.377 162.327,142.044 166.5,141.5C 165.728,145.452 165.395,149.452 165.5,153.5 Z"/></g>
<g><path style="opacity:1" fill="#b47b70" d="M 306.5,141.5 C 310.5,141.5 314.5,141.5 318.5,141.5C 318.5,144.167 318.5,146.833 318.5,149.5C 314.5,149.5 310.5,149.5 306.5,149.5C 306.5,146.833 306.5,144.167 306.5,141.5 Z"/></g>
<g><path style="opacity:1" fill="#f3922f" d="M 60.5,142.5 C 61.3307,145.659 62.3307,148.659 63.5,151.5C 64.5792,155.199 64.5792,158.865 63.5,162.5C 62.7949,165.354 61.7949,168.021 60.5,170.5C 53.8407,170.954 47.1741,171.287 40.5,171.5C 40.9876,166.062 41.9876,160.729 43.5,155.5C 46.7703,150.56 50.7703,146.227 55.5,142.5C 57.36,141.929 59.0267,141.929 60.5,142.5 Z"/></g>
<g><path style="opacity:1" fill="#f8bb38" d="M 230.5,145.5 C 230.379,150.781 229.712,155.448 228.5,159.5C 228.114,161.937 226.947,163.937 225,165.5C 225.996,161.117 225.663,156.784 224,152.5C 222.622,150.787 220.955,149.453 219,148.5C 218.195,150.901 217.362,150.734 216.5,148C 212.218,147.057 209.552,144.557 208.5,140.5C 209.072,139.027 209.905,137.693 211,136.5C 210.5,140.82 212.333,143.154 216.5,143.5C 216.004,137.175 217.171,136.841 220,142.5C 219.489,146.975 221.323,149.142 225.5,149C 225.964,146.595 226.131,144.095 226,141.5C 228.501,138.955 229.001,139.455 227.5,143C 228.13,144.31 229.13,145.144 230.5,145.5 Z"/></g>
<g><path style="opacity:1" fill="#f7b835" d="M 67.5,134.5 C 69.1667,134.5 70.8333,134.5 72.5,134.5C 70.7304,136.113 69.5637,138.113 69,140.5C 68.3946,138.519 67.3946,138.185 66,139.5C 66.3051,146.15 66.3051,152.817 66,159.5C 65.6232,160.942 64.7899,161.942 63.5,162.5C 64.5792,158.865 64.5792,155.199 63.5,151.5C 63.6087,146.319 63.942,140.985 64.5,135.5C 65.086,135.709 65.586,136.043 66,136.5C 66.2784,135.584 66.7784,134.918 67.5,134.5 Z"/></g>
<g><path style="opacity:1" fill="#f7b83d" d="M 206.5,151.5 C 208.17,154.163 207.503,155.83 204.5,156.5C 202.9,154.429 202.4,152.095 203,149.5C 203.816,150.823 204.983,151.489 206.5,151.5 Z"/></g>
<g><path style="opacity:1" fill="#daaba5" d="M 252.5,154.5 C 253.219,156.764 253.552,159.097 253.5,161.5C 249.261,164.222 248.428,167.889 251,172.5C 252.113,173.305 253.279,173.972 254.5,174.5C 248.355,175.49 242.022,175.823 235.5,175.5C 235.5,167.167 235.5,158.833 235.5,150.5C 238.85,150.335 242.183,150.502 245.5,151C 246.803,154.044 249.136,155.211 252.5,154.5 Z"/></g>
<g><path style="opacity:1" fill="#f4d7c6" d="M 268.5,160.5 C 268.357,157.615 267.357,155.282 265.5,153.5C 265.167,153.5 264.833,153.5 264.5,153.5C 265.152,152.275 266.319,151.608 268,151.5C 272.193,151.764 272.36,152.097 268.5,152.5C 269.497,155.328 269.497,157.995 268.5,160.5 Z"/></g>
<g><path style="opacity:1" fill="#b47c73" d="M 306.5,150.5 C 310.5,150.5 314.5,150.5 318.5,150.5C 318.5,153.167 318.5,155.833 318.5,158.5C 314.5,158.5 310.5,158.5 306.5,158.5C 306.5,155.833 306.5,153.167 306.5,150.5 Z"/></g>
<g><path style="opacity:1" fill="#f6b739" d="M 119.5,159.5 C 118.504,159.586 117.671,159.252 117,158.5C 116.059,156.011 116.559,154.011 118.5,152.5C 120.074,152.063 121.241,151.063 122,149.5C 122.167,150.167 122.333,150.833 122.5,151.5C 121.49,154.183 120.49,156.849 119.5,159.5 Z"/></g>
<g><path style="opacity:1" fill="#f5ba32" d="M 8.5,153.5 C 8.83333,153.5 9.16667,153.5 9.5,153.5C 9.5,155.167 9.5,156.833 9.5,158.5C 10.3007,160.042 10.634,161.708 10.5,163.5C 10.5,164.167 10.5,164.833 10.5,165.5C 10.5,166.833 10.5,168.167 10.5,169.5C 9.54483,171.746 8.87816,174.079 8.5,176.5C 6.16667,176.5 3.83333,176.5 1.5,176.5C 0.833333,176.5 0.166667,176.5 -0.5,176.5C -0.5,169.167 -0.5,161.833 -0.5,154.5C 2.51763,154.296 5.51763,153.963 8.5,153.5 Z"/></g>
<g><path style="opacity:1" fill="#e59648" d="M 230.5,145.5 C 231.833,148.5 231.833,151.5 230.5,154.5C 229.833,156.167 229.167,157.833 228.5,159.5C 229.712,155.448 230.379,150.781 230.5,145.5 Z"/></g>
<g><path style="opacity:1" fill="#f39334" d="M 252.5,152.5 C 254.5,153.833 256.5,155.167 258.5,156.5C 259.558,161.029 262.224,162.362 266.5,160.5C 268.167,162.5 269.833,164.5 271.5,166.5C 269.833,166.5 268.167,166.5 266.5,166.5C 266.5,167.5 266.5,168.5 266.5,169.5C 262.833,169.5 259.167,169.5 255.5,169.5C 255.198,166.627 254.531,163.961 253.5,161.5C 253.552,159.097 253.219,156.764 252.5,154.5C 252.5,153.833 252.5,153.167 252.5,152.5 Z"/></g>
<g><path style="opacity:1" fill="#f9a18d" d="M 264.5,153.5 C 264.833,153.5 265.167,153.5 265.5,153.5C 265.674,155.861 266.007,158.194 266.5,160.5C 262.224,162.362 259.558,161.029 258.5,156.5C 260.993,156.869 261.66,156.203 260.5,154.5C 262.099,154.768 263.432,154.434 264.5,153.5 Z"/></g>
<g><path style="opacity:1" fill="#fb9d3f" d="M 265.5,153.5 C 267.357,155.282 268.357,157.615 268.5,160.5C 267.833,160.5 267.167,160.5 266.5,160.5C 266.007,158.194 265.674,155.861 265.5,153.5 Z"/></g>
<g><path style="opacity:1" fill="#f29130" d="M 327.5,148.5 C 327.5,155.833 327.5,163.167 327.5,170.5C 326.167,170.5 324.833,170.5 323.5,170.5C 323.423,166.785 323.756,163.119 324.5,159.5C 325.055,155.603 326.055,151.937 327.5,148.5 Z"/></g>
<g><path style="opacity:1" fill="#d8a79d" d="M 154.5,147.5 C 155.461,149.265 155.795,151.265 155.5,153.5C 158.833,153.5 162.167,153.5 165.5,153.5C 164.081,154.451 162.415,154.784 160.5,154.5C 160.5,157.833 160.5,161.167 160.5,164.5C 158.5,164.5 156.5,164.5 154.5,164.5C 154.5,158.833 154.5,153.167 154.5,147.5 Z"/></g>
<g><path style="opacity:1" fill="#f89433" d="M 9.5,158.5 C 12.1667,158.5 14.8333,158.5 17.5,158.5C 17.5,160.167 17.5,161.833 17.5,163.5C 15.1667,163.5 12.8333,163.5 10.5,163.5C 10.634,161.708 10.3007,160.042 9.5,158.5 Z"/></g>
<g><path style="opacity:1" fill="#b4c38e" d="M 43.5,155.5 C 41.9876,160.729 40.9876,166.062 40.5,171.5C 39.6618,171.842 39.3284,172.508 39.5,173.5C 35.1539,173.666 30.8206,173.499 26.5,173C 32.397,167.271 38.0637,161.438 43.5,155.5 Z"/></g>
<g><path style="opacity:1" fill="#f3cbb9" d="M 202.5,157.5 C 204.104,158.287 204.771,159.62 204.5,161.5C 202.824,160.817 202.157,159.483 202.5,157.5 Z"/></g>
<g><path style="opacity:1" fill="#f7bd3e" d="M 202.5,157.5 C 202.157,159.483 202.824,160.817 204.5,161.5C 204.5,162.5 204.5,163.5 204.5,164.5C 202.114,164.741 200.114,164.075 198.5,162.5C 198.5,161.833 198.5,161.167 198.5,160.5C 199.302,159.048 199.802,157.382 200,155.5C 200.708,156.381 201.542,157.047 202.5,157.5 Z"/></g>
<g><path style="opacity:1" fill="#feecd7" d="M 294.5,175.5 C 293.572,172.411 292.572,169.245 291.5,166C 287.809,165.58 284.142,165.08 280.5,164.5C 280.557,163.391 280.89,162.391 281.5,161.5C 289.08,160.534 296.747,160.201 304.5,160.5C 304.5,165.5 304.5,170.5 304.5,175.5C 301.167,175.5 297.833,175.5 294.5,175.5 Z"/></g>
<g><path style="opacity:1" fill="#fcebd7" d="M 306.5,159.5 C 310.5,159.5 314.5,159.5 318.5,159.5C 318.5,162.167 318.5,164.833 318.5,167.5C 314.5,167.5 310.5,167.5 306.5,167.5C 306.5,164.833 306.5,162.167 306.5,159.5 Z"/></g>
<g><path style="opacity:1" fill="#f8e7d5" d="M 320.5,159.5 C 321.833,159.5 323.167,159.5 324.5,159.5C 323.756,163.119 323.423,166.785 323.5,170.5C 324.833,170.5 326.167,170.5 327.5,170.5C 327.5,171.167 327.5,171.833 327.5,172.5C 325.712,172.215 324.045,172.548 322.5,173.5C 322.624,174.107 322.957,174.44 323.5,174.5C 322.833,175.833 321.833,176.833 320.5,177.5C 320.5,171.5 320.5,165.5 320.5,159.5 Z"/></g>
<g><path style="opacity:1" fill="#e97b1c" d="M 253.5,161.5 C 254.531,163.961 255.198,166.627 255.5,169.5C 257.048,170.794 259.048,171.461 261.5,171.5C 263.5,171.167 265.5,170.833 267.5,170.5C 267.376,169.893 267.043,169.56 266.5,169.5C 266.5,168.5 266.5,167.5 266.5,166.5C 268.167,166.5 269.833,166.5 271.5,166.5C 272.511,168.402 272.678,170.402 272,172.5C 270.624,173.705 269.458,175.038 268.5,176.5C 267.833,176.5 267.167,176.5 266.5,176.5C 266.5,175.5 266.5,174.5 266.5,173.5C 262.556,173.113 258.889,173.78 255.5,175.5C 255.5,174.833 255.167,174.5 254.5,174.5C 253.279,173.972 252.113,173.305 251,172.5C 248.428,167.889 249.261,164.222 253.5,161.5 Z"/></g>
<g><path style="opacity:1" fill="#dc463b" d="M 10.5,163.5 C 12.8333,163.5 15.1667,163.5 17.5,163.5C 15.7211,165.344 13.3878,166.01 10.5,165.5C 10.5,164.833 10.5,164.167 10.5,163.5 Z"/></g>
<g><path style="opacity:1" fill="#b24f0c" d="M 122.5,163.5 C 124.558,165.559 126.891,167.226 129.5,168.5C 129.5,170.5 129.5,172.5 129.5,174.5C 129.662,176.527 129.495,178.527 129,180.5C 128.586,180.957 128.086,181.291 127.5,181.5C 125.578,179.313 123.912,176.98 122.5,174.5C 122.5,173.833 122.167,173.5 121.5,173.5C 119.926,171.357 118.592,169.024 117.5,166.5C 118.243,165.818 118.909,165.151 119.5,164.5C 120.391,163.89 121.391,163.557 122.5,163.5 Z"/></g>
<g><path style="opacity:1" fill="#f8e6d9" d="M 127.5,157.5 C 130.146,160.812 133.146,163.812 136.5,166.5C 138.483,165.018 140.316,163.351 142,161.5C 142.495,163.473 142.662,165.473 142.5,167.5C 146.5,167.833 150.5,168.167 154.5,168.5C 154.5,167.167 154.5,165.833 154.5,164.5C 156.5,164.5 158.5,164.5 160.5,164.5C 160.5,164.833 160.5,165.167 160.5,165.5C 160.5,168.167 160.5,170.833 160.5,173.5C 158.735,174.461 156.735,174.795 154.5,174.5C 154.5,173.5 154.5,172.5 154.5,171.5C 153.167,171.5 151.833,171.5 150.5,171.5C 147.751,171.726 145.084,171.393 142.5,170.5C 141.202,172.052 141.535,173.052 143.5,173.5C 139.03,174.486 134.363,174.819 129.5,174.5C 129.5,172.5 129.5,170.5 129.5,168.5C 130.738,169.412 132.072,169.579 133.5,169C 130.601,166.271 127.934,163.438 125.5,160.5C 125.427,158.973 126.094,157.973 127.5,157.5 Z"/></g>
<g><path style="opacity:1" fill="#f3dcbf" d="M 160.5,165.5 C 165.833,165.5 171.167,165.5 176.5,165.5C 176.5,168.167 176.5,170.833 176.5,173.5C 171.167,173.5 165.833,173.5 160.5,173.5C 160.5,170.833 160.5,168.167 160.5,165.5 Z"/></g>
<g><path style="opacity:1" fill="#a1b079" d="M 29.5,167.5 C 27.8729,169.63 26.0396,171.63 24,173.5C 23.3333,175.167 23.3333,176.833 24,178.5C 25.8083,176.604 27.975,176.104 30.5,177C 32.4257,177.422 33.4257,178.589 33.5,180.5C 35.2245,182.914 36.5578,185.58 37.5,188.5C 41.1667,188.5 44.8333,188.5 48.5,188.5C 51.2869,189.477 54.2869,189.81 57.5,189.5C 100.187,191.029 142.854,190.696 185.5,188.5C 186.71,188.068 187.71,187.401 188.5,186.5C 187.833,181.167 190.167,178.833 195.5,179.5C 195.5,178.167 195.5,176.833 195.5,175.5C 196.364,174.312 197.364,173.145 198.5,172C 202.918,170.581 206.251,171.748 208.5,175.5C 208.34,177.199 208.506,178.866 209,180.5C 211.132,179.22 213.298,179.22 215.5,180.5C 216.742,182.733 218.076,184.899 219.5,187C 255.498,187.5 291.498,187.667 327.5,187.5C 327.5,190.167 327.5,192.833 327.5,195.5C 218.167,195.5 108.833,195.5 -0.5,195.5C -0.5,191.833 -0.5,188.167 -0.5,184.5C 0.531006,182.039 1.19767,179.373 1.5,176.5C 3.83333,176.5 6.16667,176.5 8.5,176.5C 8.87816,174.079 9.54483,171.746 10.5,169.5C 11.9885,168.061 13.8218,167.395 16,167.5C 19.8042,168.205 23.6375,168.538 27.5,168.5C 27.1774,164.774 27.5108,161.107 28.5,157.5C 29.487,160.768 29.8204,164.102 29.5,167.5 Z"/></g>
<g><path style="opacity:1" fill="#f3943c" d="M 125.5,160.5 C 127.934,163.438 130.601,166.271 133.5,169C 132.072,169.579 130.738,169.412 129.5,168.5C 126.891,167.226 124.558,165.559 122.5,163.5C 122.146,160.506 123.146,159.506 125.5,160.5 Z"/></g>
<g><path style="opacity:1" fill="#f0e5ec" d="M 255.5,169.5 C 259.167,169.5 262.833,169.5 266.5,169.5C 267.043,169.56 267.376,169.893 267.5,170.5C 265.5,170.833 263.5,171.167 261.5,171.5C 259.048,171.461 257.048,170.794 255.5,169.5 Z"/></g>
<g><path style="opacity:1" fill="#feedd9" d="M 306.5,169.5 C 310.5,169.5 314.5,169.5 318.5,169.5C 318.5,171.5 318.5,173.5 318.5,175.5C 314.5,175.5 310.5,175.5 306.5,175.5C 306.5,173.5 306.5,171.5 306.5,169.5 Z"/></g>
<g><path style="opacity:1" fill="#f0e1e1" d="M 60.5,170.5 C 60.5,171.167 60.5,171.833 60.5,172.5C 59.8333,172.5 59.5,172.833 59.5,173.5C 52.8333,173.5 46.1667,173.5 39.5,173.5C 39.3284,172.508 39.6618,171.842 40.5,171.5C 47.1741,171.287 53.8407,170.954 60.5,170.5 Z"/></g>
<g><path style="opacity:1" fill="#f49334" d="M 150.5,171.5 C 151.398,172.158 152.398,172.824 153.5,173.5C 153.043,174.298 152.376,174.631 151.5,174.5C 150.833,174.5 150.167,174.5 149.5,174.5C 147.735,173.539 145.735,173.205 143.5,173.5C 141.535,173.052 141.202,172.052 142.5,170.5C 145.084,171.393 147.751,171.726 150.5,171.5 Z"/></g>
<g><path style="opacity:1" fill="#e48a7f" d="M 60.5,172.5 C 80.6598,173.497 100.993,173.83 121.5,173.5C 122.167,173.5 122.5,173.833 122.5,174.5C 101.5,174.5 80.5,174.5 59.5,174.5C 59.5,174.167 59.5,173.833 59.5,173.5C 59.5,172.833 59.8333,172.5 60.5,172.5 Z"/></g>
<g><path style="opacity:1" fill="#b25310" d="M 266.5,176.5 C 260.995,178.936 255.328,179.936 249.5,179.5C 251.711,178.34 253.711,177.007 255.5,175.5C 258.889,173.78 262.556,173.113 266.5,173.5C 266.5,174.5 266.5,175.5 266.5,176.5 Z"/></g>
<g><path style="opacity:1" fill="#e4c4b4" d="M 266.5,160.5 C 267.167,160.5 267.833,160.5 268.5,160.5C 271.607,162.879 273.274,166.046 273.5,170C 273.512,173.485 271.845,175.652 268.5,176.5C 269.458,175.038 270.624,173.705 272,172.5C 272.678,170.402 272.511,168.402 271.5,166.5C 269.833,164.5 268.167,162.5 266.5,160.5 Z"/></g>
<g><path style="opacity:1" fill="#f3963b" d="M 327.5,172.5 C 327.5,173.167 327.5,173.833 327.5,174.5C 326.167,174.5 324.833,174.5 323.5,174.5C 322.957,174.44 322.624,174.107 322.5,173.5C 324.045,172.548 325.712,172.215 327.5,172.5 Z"/></g>
<g><path style="opacity:1" fill="#e2cbbd" d="M 54.5,141.5 C 55.1667,141.5 55.5,141.833 55.5,142.5C 50.7703,146.227 46.7703,150.56 43.5,155.5C 38.0637,161.438 32.397,167.271 26.5,173C 30.8206,173.499 35.1539,173.666 39.5,173.5C 39.3284,174.492 39.6618,175.158 40.5,175.5C 39.7659,176.708 39.4326,178.041 39.5,179.5C 37.8311,181.662 35.8311,181.995 33.5,180.5C 33.4257,178.589 32.4257,177.422 30.5,177C 27.975,176.104 25.8083,176.604 24,178.5C 23.3333,176.833 23.3333,175.167 24,173.5C 26.0396,171.63 27.8729,169.63 29.5,167.5C 34.6281,162.582 39.2948,157.249 43.5,151.5C 47.1667,148.167 50.8333,144.833 54.5,141.5 Z"/></g>
<g><path style="opacity:1" fill="#f29956" d="M 39.5,173.5 C 46.1667,173.5 52.8333,173.5 59.5,173.5C 59.5,173.833 59.5,174.167 59.5,174.5C 59.5,175.167 59.1667,175.5 58.5,175.5C 56.9826,175.511 55.8159,176.177 55,177.5C 51.6667,174.833 48.3333,174.833 45,177.5C 43.8904,175.963 42.3904,175.297 40.5,175.5C 39.6618,175.158 39.3284,174.492 39.5,173.5 Z"/></g>
<g><path style="opacity:1" fill="#527347" d="M 40.5,175.5 C 42.3904,175.297 43.8904,175.963 45,177.5C 48.3333,174.833 51.6667,174.833 55,177.5C 55.8159,176.177 56.9826,175.511 58.5,175.5C 60.5777,178.051 63.2444,179.884 66.5,181C 67.3366,182.011 67.67,183.178 67.5,184.5C 58.1339,184.721 48.8006,184.387 39.5,183.5C 39.5,182.167 39.5,180.833 39.5,179.5C 39.4326,178.041 39.7659,176.708 40.5,175.5 Z"/></g>
<g><path style="opacity:1" fill="#5b7d4f" d="M 323.5,174.5 C 324.833,174.5 326.167,174.5 327.5,174.5C 327.5,177.5 327.5,180.5 327.5,183.5C 323.167,183.5 318.833,183.5 314.5,183.5C 314.366,181.708 314.699,180.042 315.5,178.5C 317.415,178.784 319.081,178.451 320.5,177.5C 321.833,176.833 322.833,175.833 323.5,174.5 Z"/></g>
<g><path style="opacity:1" fill="#ba5a47" d="M -0.5,176.5 C 0.166667,176.5 0.833333,176.5 1.5,176.5C 1.19767,179.373 0.531006,182.039 -0.5,184.5C -0.5,181.833 -0.5,179.167 -0.5,176.5 Z"/></g>
<g><path style="opacity:1" fill="#e2c1b0" d="M 176.5,165.5 C 177.479,168.625 177.813,171.958 177.5,175.5C 180.833,175.5 184.167,175.5 187.5,175.5C 190.167,175.5 192.833,175.5 195.5,175.5C 195.5,176.833 195.5,178.167 195.5,179.5C 190.167,178.833 187.833,181.167 188.5,186.5C 140.166,186.333 91.8322,186.5 43.5,187C 47.5,187.333 51.5,187.667 55.5,188C 53.1902,188.497 50.8568,188.663 48.5,188.5C 44.8333,188.5 41.1667,188.5 37.5,188.5C 36.5578,185.58 35.2245,182.914 33.5,180.5C 35.8311,181.995 37.8311,181.662 39.5,179.5C 39.5,180.833 39.5,182.167 39.5,183.5C 48.8006,184.387 58.1339,184.721 67.5,184.5C 67.67,183.178 67.3366,182.011 66.5,181C 63.2444,179.884 60.5777,178.051 58.5,175.5C 59.1667,175.5 59.5,175.167 59.5,174.5C 80.5,174.5 101.5,174.5 122.5,174.5C 123.912,176.98 125.578,179.313 127.5,181.5C 128.086,181.291 128.586,180.957 129,180.5C 129.495,178.527 129.662,176.527 129.5,174.5C 134.363,174.819 139.03,174.486 143.5,173.5C 145.735,173.205 147.735,173.539 149.5,174.5C 147.393,175.468 145.059,175.802 142.5,175.5C 142.007,177.806 141.674,180.139 141.5,182.5C 147.804,183.26 154.137,183.593 160.5,183.5C 160.649,182.448 160.483,181.448 160,180.5C 156.661,179.092 153.827,177.092 151.5,174.5C 152.376,174.631 153.043,174.298 153.5,173.5C 152.398,172.824 151.398,172.158 150.5,171.5C 151.833,171.5 153.167,171.5 154.5,171.5C 154.5,172.5 154.5,173.5 154.5,174.5C 156.735,174.795 158.735,174.461 160.5,173.5C 165.833,173.5 171.167,173.5 176.5,173.5C 176.5,170.833 176.5,168.167 176.5,165.5 Z"/></g>
<g><path style="opacity:1" fill="#b1520e" d="M 149.5,174.5 C 150.167,174.5 150.833,174.5 151.5,174.5C 153.827,177.092 156.661,179.092 160,180.5C 160.483,181.448 160.649,182.448 160.5,183.5C 154.137,183.593 147.804,183.26 141.5,182.5C 141.674,180.139 142.007,177.806 142.5,175.5C 145.059,175.802 147.393,175.468 149.5,174.5 Z"/></g>
<g><path style="opacity:1" fill="#dfc1b0" d="M 281.5,159.5 C 289.5,159.5 297.5,159.5 305.5,159.5C 305.103,168.562 305.436,174.895 306.5,178.5C 309.5,178.5 312.5,178.5 315.5,178.5C 314.699,180.042 314.366,181.708 314.5,183.5C 318.833,183.5 323.167,183.5 327.5,183.5C 327.5,184.833 327.5,186.167 327.5,187.5C 291.498,187.667 255.498,187.5 219.5,187C 218.076,184.899 216.742,182.733 215.5,180.5C 213.298,179.22 211.132,179.22 209,180.5C 208.506,178.866 208.34,177.199 208.5,175.5C 217.5,175.5 226.5,175.5 235.5,175.5C 242.022,175.823 248.355,175.49 254.5,174.5C 255.167,174.5 255.5,174.833 255.5,175.5C 253.711,177.007 251.711,178.34 249.5,179.5C 255.328,179.936 260.995,178.936 266.5,176.5C 267.167,176.5 267.833,176.5 268.5,176.5C 271.625,177.479 274.958,177.813 278.5,177.5C 277.903,172.706 278.57,168.373 280.5,164.5C 280.176,168.555 280.509,172.555 281.5,176.5C 282.167,175.833 282.833,175.167 283.5,174.5C 286.219,176.219 288.219,178.553 289.5,181.5C 291.045,182.452 292.712,182.785 294.5,182.5C 294.5,180.167 294.5,177.833 294.5,175.5C 297.833,175.5 301.167,175.5 304.5,175.5C 304.5,170.5 304.5,165.5 304.5,160.5C 296.747,160.201 289.08,160.534 281.5,161.5C 281.5,160.833 281.5,160.167 281.5,159.5 Z"/></g>
<g><path style="opacity:1" fill="#b25311" d="M 263.5,178.5 C 264.5,178.5 265.5,178.5 266.5,178.5C 266.5,180.167 266.5,181.833 266.5,183.5C 260.491,183.666 254.491,183.499 248.5,183C 253.725,181.919 258.725,180.419 263.5,178.5 Z"/></g>
<g><path style="opacity:1" fill="#b75712" d="M 280.5,164.5 C 284.142,165.08 287.809,165.58 291.5,166C 292.572,169.245 293.572,172.411 294.5,175.5C 294.5,177.833 294.5,180.167 294.5,182.5C 292.712,182.785 291.045,182.452 289.5,181.5C 288.219,178.553 286.219,176.219 283.5,174.5C 282.833,175.167 282.167,175.833 281.5,176.5C 280.509,172.555 280.176,168.555 280.5,164.5 Z"/></g>
<g><path style="opacity:1" fill="#b9b992" d="M 188.5,186.5 C 187.71,187.401 186.71,188.068 185.5,188.5C 183.022,187.836 180.355,187.503 177.5,187.5C 137.338,188.119 97.338,188.786 57.5,189.5C 54.2869,189.81 51.2869,189.477 48.5,188.5C 50.8568,188.663 53.1902,188.497 55.5,188C 51.5,187.667 47.5,187.333 43.5,187C 91.8322,186.5 140.166,186.333 188.5,186.5 Z"/></g>
<g><path style="opacity:1" fill="#c7c8b9" d="M 185.5,188.5 C 142.854,190.696 100.187,191.029 57.5,189.5C 97.338,188.786 137.338,188.119 177.5,187.5C 180.355,187.503 183.022,187.836 185.5,188.5 Z"/></g>
</svg>
