<?xml version="1.0" encoding="UTF-8"?>
<!DOCTYPE svg PUBLIC "-//W3C//DTD SVG 1.1//EN" "http://www.w3.org/Graphics/SVG/1.1/DTD/svg11.dtd">
<svg xmlns="http://www.w3.org/2000/svg" version="1.1" width="2000px" height="2000px" style="shape-rendering:geometricPrecision; text-rendering:geometricPrecision; image-rendering:optimizeQuality; fill-rule:evenodd; clip-rule:evenodd" xmlns:xlink="http://www.w3.org/1999/xlink">
<g><path style="opacity:0.997" fill="#e12222" d="M 192.5,497.5 C 250.127,493.847 304.794,504.68 356.5,530C 431.27,572.324 468.27,636.824 467.5,723.5C 467.019,823.344 420.353,891.177 327.5,927C 283.847,942.498 238.847,950.665 192.5,951.5C 192.5,1020.5 192.5,1089.5 192.5,1158.5C 130.833,1158.5 69.1667,1158.5 7.5,1158.5C 7.33336,961.829 8.1667,765.163 10,568.5C 10.1053,556.119 10.7719,543.786 12,531.5C 70.7044,511.802 130.871,500.468 192.5,497.5 Z M 235.5,676.5 C 268.896,679.062 287.396,697.062 291,730.5C 292.772,761.79 280.605,785.957 254.5,803C 236.859,812.017 218.192,815.017 198.5,812C 197.854,808.919 197.521,805.752 197.5,802.5C 199.071,762.837 200.571,723.17 202,683.5C 203.491,681.996 205.324,681.163 207.5,681C 216.894,678.933 226.227,677.433 235.5,676.5 Z"/></g>
<g><path style="opacity:0.996" fill="#e12222" d="M 1135.5,505.5 C 1204.17,505.5 1272.83,505.5 1341.5,505.5C 1334.5,585.146 1327.67,664.813 1321,744.5C 1317.35,795.459 1314.52,846.459 1312.5,897.5C 1366.16,898.642 1419.83,898.642 1473.5,897.5C 1467.78,963.826 1462.11,1030.16 1456.5,1096.5C 1345.22,1106.65 1233.88,1116.31 1122.5,1125.5C 1125.25,918.788 1129.59,712.122 1135.5,505.5 Z"/></g>
<g><path style="opacity:0.135" fill="#fdf7f7" d="M 843.5,575.5 C 844.833,574.833 845.833,573.833 846.5,572.5C 847.47,571.371 848.636,570.371 850,569.5C 851.393,570.615 852.893,571.115 854.5,571C 862.602,561.954 870.102,552.454 877,542.5C 882.776,538.359 888.276,533.859 893.5,529C 904.875,522.599 916.208,516.265 927.5,510C 955.105,508.359 982.771,508.026 1010.5,509C 1020.49,513.146 1030.15,517.98 1039.5,523.5C 1047.24,529.751 1055.07,535.751 1063,541.5C 1071.18,553.193 1079.85,564.527 1089,575.5C 1093.37,583.187 1097.7,590.853 1102,598.5C 1106.85,616.905 1111.85,635.238 1117,653.5C 1117.5,667.163 1117.67,680.829 1117.5,694.5C 1116.88,694.389 1116.38,694.056 1116,693.5C 1115.67,689.833 1115.33,686.167 1115,682.5C 1114.72,681.584 1114.22,680.918 1113.5,680.5C 1113.5,680.167 1113.5,679.833 1113.5,679.5C 1113.7,674.25 1113.03,669.25 1111.5,664.5C 1111.5,663.833 1111.5,663.167 1111.5,662.5C 1110.93,657.851 1110.43,653.184 1110,648.5C 1109.39,646.934 1108.56,645.6 1107.5,644.5C 1106.41,635.567 1103.74,627.234 1099.5,619.5C 1099.74,617.102 1099.07,615.102 1097.5,613.5C 1097.5,612.167 1097.5,610.833 1097.5,609.5C 1095.26,598.928 1090.26,589.928 1082.5,582.5C 1079.98,578.134 1076.98,574.134 1073.5,570.5C 1072.25,567.907 1070.58,565.573 1068.5,563.5C 1067.66,560.745 1066.66,558.079 1065.5,555.5C 1063.42,554.956 1061.42,554.122 1059.5,553C 1056.57,549.558 1053.23,546.725 1049.5,544.5C 1046.55,540.924 1043.39,537.591 1040,534.5C 1039.52,533.552 1039.35,532.552 1039.5,531.5C 1036.53,529.527 1033.2,528.361 1029.5,528C 1027.15,526.333 1025.48,524.667 1024.5,523C 1022.5,522.667 1020.5,522.333 1018.5,522C 1011.86,518.694 1004.86,515.861 997.5,513.5C 981.005,512.173 964.672,512.173 948.5,513.5C 945.209,514.257 941.876,514.924 938.5,515.5C 932.016,517.587 925.349,519.253 918.5,520.5C 918.5,521.5 918.5,522.5 918.5,523.5C 915.11,524.023 911.777,524.857 908.5,526C 907.663,527.011 907.33,528.178 907.5,529.5C 902.025,533.323 896.692,537.323 891.5,541.5C 880.5,547.833 871.833,556.5 865.5,567.5C 861.898,570.776 858.565,574.442 855.5,578.5C 853.78,581.202 852.113,583.868 850.5,586.5C 844.235,592.953 838.402,599.953 833,607.5C 830.888,610.727 829.055,614.06 827.5,617.5C 826.833,617.5 826.5,617.833 826.5,618.5C 824.583,619.909 822.75,621.576 821,623.5C 817.171,629.153 813.338,634.82 809.5,640.5C 806.391,644.397 803.057,648.064 799.5,651.5C 797.473,651.662 795.473,651.495 793.5,651C 791.63,648.96 789.63,647.127 787.5,645.5C 782.927,637.926 777.594,630.926 771.5,624.5C 769.823,621.975 768.323,619.309 767,616.5C 765.961,615.29 764.794,614.29 763.5,613.5C 759.664,606.321 754.664,599.988 748.5,594.5C 748.573,592.973 747.906,591.973 746.5,591.5C 743.891,586.617 740.557,582.284 736.5,578.5C 733.31,571.974 728.976,566.308 723.5,561.5C 722.585,559.246 721.252,557.246 719.5,555.5C 714.211,549.54 708.878,543.54 703.5,537.5C 700.385,536.776 697.718,535.276 695.5,533C 694.207,532.51 692.873,532.343 691.5,532.5C 690.508,532.672 689.842,532.338 689.5,531.5C 687.013,528.172 683.679,525.838 679.5,524.5C 678.833,524.5 678.167,524.5 677.5,524.5C 675.224,522.416 672.557,520.916 669.5,520C 667.527,519.505 665.527,519.338 663.5,519.5C 659.714,517.54 655.714,515.874 651.5,514.5C 636.339,513.174 621.339,513.174 606.5,514.5C 605.833,514.5 605.167,514.5 604.5,514.5C 598.697,514.961 593.03,516.127 587.5,518C 585.24,518.549 583.574,519.716 582.5,521.5C 580.847,521.66 579.514,522.326 578.5,523.5C 576.199,524.06 573.866,524.56 571.5,525C 568.119,527.946 564.452,530.446 560.5,532.5C 557.907,533.754 555.573,535.42 553.5,537.5C 548.912,539.426 545.245,542.426 542.5,546.5C 540.97,547.211 539.637,548.211 538.5,549.5C 537.07,549.421 535.736,549.754 534.5,550.5C 531.477,555.228 528.477,559.895 525.5,564.5C 523.572,567.598 521.072,570.265 518,572.5C 515.344,577.973 512.511,583.306 509.5,588.5C 504.523,594.723 500.857,601.723 498.5,609.5C 498.011,610.995 497.345,612.329 496.5,613.5C 493.871,615.394 492.205,618.06 491.5,621.5C 490.624,622.251 489.624,622.751 488.5,623C 489.081,623.893 489.415,624.893 489.5,626C 488.658,631.219 487.658,636.386 486.5,641.5C 486.167,644.167 485.833,646.833 485.5,649.5C 483.77,653.883 482.77,658.55 482.5,663.5C 481.353,668.642 480.52,673.975 480,679.5C 479.173,693.673 479.339,707.673 480.5,721.5C 480.5,721.833 480.5,722.167 480.5,722.5C 480.596,728.373 481.263,734.04 482.5,739.5C 482.362,744.414 483.028,749.081 484.5,753.5C 484.334,757.846 484.501,762.179 485,766.5C 485.78,769.743 487.28,772.41 489.5,774.5C 490.5,776.5 491.5,778.5 492.5,780.5C 492.5,784.5 492.5,788.5 492.5,792.5C 491.167,792.5 489.833,792.5 488.5,792.5C 483.564,779.184 479.73,765.518 477,751.5C 476.333,719.167 476.333,686.833 477,654.5C 482.727,624.974 493.727,597.64 510,572.5C 517.287,563.424 524.454,554.257 531.5,545C 542.162,535.349 553.495,526.683 565.5,519C 573.555,515.563 581.555,512.23 589.5,509C 614.5,508.333 639.5,508.333 664.5,509C 675.809,513.219 686.809,518.219 697.5,524C 700.645,525.978 703.312,528.478 705.5,531.5C 710.226,533.01 713.893,535.844 716.5,540C 717.766,540.309 718.933,540.809 720,541.5C 726.248,550.328 732.248,559.328 738,568.5C 741.14,572.061 744.473,575.395 748,578.5C 749.333,581.167 750.667,583.833 752,586.5C 766.217,604.303 780.883,621.636 796,638.5C 802.658,631.667 808.825,624.334 814.5,616.5C 824.804,607.572 833.971,597.572 842,586.5C 840.873,582.632 841.373,578.965 843.5,575.5 Z"/></g>
<g><path style="opacity:0.997" fill="#e12222" d="M 1832.5,512.5 C 1833.83,512.5 1835.17,512.5 1836.5,512.5C 1887.83,713.173 1939.17,913.84 1990.5,1114.5C 1926.02,1123.88 1861.52,1133.21 1797,1142.5C 1795.34,1142.32 1794.01,1141.66 1793,1140.5C 1785.49,1108.13 1777.82,1075.8 1770,1043.5C 1740.23,1042.17 1710.4,1042.17 1680.5,1043.5C 1673.89,1076.37 1667.23,1109.21 1660.5,1142C 1593.8,1135.66 1527.13,1128.66 1460.5,1121C 1459.48,1120.48 1458.82,1119.65 1458.5,1118.5C 1510.52,921.074 1562.86,723.741 1615.5,526.5C 1617.08,525.702 1618.74,525.202 1620.5,525C 1691.34,521.084 1762.01,516.917 1832.5,512.5 Z M 1725.5,752.5 C 1735.48,802.714 1745.48,853.047 1755.5,903.5C 1736.18,904.5 1716.84,904.833 1697.5,904.5C 1706.96,853.856 1716.3,803.189 1725.5,752.5 Z"/></g>
<g><path style="opacity:0.604" fill="#eb6f6e" d="M 948.5,513.5 C 962.504,513.333 976.504,513.5 990.5,514C 994.232,515.969 998.232,516.969 1002.5,517C 1003.57,517.852 1004.57,518.685 1005.5,519.5C 999.74,518.427 994.073,516.927 988.5,515C 975.5,514.333 962.5,514.333 949.5,515C 943.574,516.752 937.574,518.252 931.5,519.5C 933.72,518.021 936.054,516.688 938.5,515.5C 941.876,514.924 945.209,514.257 948.5,513.5 Z"/></g>
<g><path style="opacity:0.357" fill="#f19c9b" d="M 604.5,514.5 C 597.243,516.78 589.909,519.113 582.5,521.5C 583.574,519.716 585.24,518.549 587.5,518C 593.03,516.127 598.697,514.961 604.5,514.5 Z"/></g>
<g><path style="opacity:0.988" fill="#e12423" d="M 604.5,514.5 C 605.167,514.5 605.833,514.5 606.5,514.5C 618.838,514.333 631.171,514.5 643.5,515C 644.167,515.667 644.833,516.333 645.5,517C 649.167,517.333 652.833,517.667 656.5,518C 660.213,520.2 664.213,521.7 668.5,522.5C 671.426,523.461 674.426,524.127 677.5,524.5C 678.167,524.5 678.833,524.5 679.5,524.5C 682.275,527.605 685.608,529.938 689.5,531.5C 689.842,532.338 690.508,532.672 691.5,532.5C 693.607,534.727 695.94,536.727 698.5,538.5C 700.756,541.349 702.756,544.349 704.5,547.5C 705.552,547.351 706.552,547.517 707.5,548C 713.245,551.903 718.578,556.403 723.5,561.5C 725.958,568.622 730.291,574.288 736.5,578.5C 736.343,579.873 736.51,581.207 737,582.5C 739.379,586.38 742.546,589.38 746.5,591.5C 747.906,591.973 748.573,592.973 748.5,594.5C 748.343,595.873 748.51,597.207 749,598.5C 753.389,603.959 758.222,608.959 763.5,613.5C 764.541,618.227 767.207,621.894 771.5,624.5C 774.645,633.102 779.978,640.102 787.5,645.5C 789.63,647.127 791.63,648.96 793.5,651C 795.473,651.495 797.473,651.662 799.5,651.5C 800.922,651.291 802.255,650.791 803.5,650C 804.781,647.597 806.614,645.763 809,644.5C 809.49,643.207 809.657,641.873 809.5,640.5C 816.606,634.293 822.273,626.959 826.5,618.5C 826.5,617.833 826.833,617.5 827.5,617.5C 831.443,612.744 835.61,608.078 840,603.5C 843.416,597.708 846.916,592.041 850.5,586.5C 855.775,582.056 860.608,577.056 865,571.5C 865.49,570.207 865.657,568.873 865.5,567.5C 874.554,559.113 883.221,550.446 891.5,541.5C 896.692,537.323 902.025,533.323 907.5,529.5C 912.136,527.517 916.803,525.517 921.5,523.5C 925.397,523.274 928.73,521.941 931.5,519.5C 937.574,518.252 943.574,516.752 949.5,515C 962.5,514.333 975.5,514.333 988.5,515C 994.073,516.927 999.74,518.427 1005.5,519.5C 1006.17,519.5 1006.83,519.5 1007.5,519.5C 1007.95,520.458 1008.62,521.292 1009.5,522C 1012.35,523.43 1015.35,524.263 1018.5,524.5C 1023.65,527.578 1028.99,530.412 1034.5,533C 1039.56,536.851 1044.56,540.684 1049.5,544.5C 1053.83,549.663 1058.66,554.33 1064,558.5C 1064.46,559.094 1064.63,559.761 1064.5,560.5C 1066.77,564.436 1069.77,567.769 1073.5,570.5C 1074.97,576.098 1077.97,580.765 1082.5,584.5C 1082.34,585.873 1082.51,587.207 1083,588.5C 1088.12,596.73 1092.95,605.064 1097.5,613.5C 1099.07,615.102 1099.74,617.102 1099.5,619.5C 1101.3,625.394 1102.8,631.394 1104,637.5C 1105.03,639.994 1106.2,642.328 1107.5,644.5C 1108.62,650.653 1109.95,656.653 1111.5,662.5C 1111.5,663.167 1111.5,663.833 1111.5,664.5C 1111.44,669.731 1112.11,674.731 1113.5,679.5C 1113.5,679.833 1113.5,680.167 1113.5,680.5C 1113.5,695.167 1113.5,709.833 1113.5,724.5C 1111.86,732.283 1110.86,740.283 1110.5,748.5C 1109.09,751.219 1108.42,754.219 1108.5,757.5C 1106.26,762.9 1104.59,768.567 1103.5,774.5C 1101.02,781.435 1098.68,788.435 1096.5,795.5C 1093.25,798.784 1091.25,802.784 1090.5,807.5C 1087.27,814.093 1083.6,820.426 1079.5,826.5C 1070.84,837.825 1062.17,849.158 1053.5,860.5C 1053.5,860.833 1053.5,861.167 1053.5,861.5C 999.166,861.333 944.832,861.5 890.5,862C 889.944,862.383 889.611,862.883 889.5,863.5C 888.5,864.833 887.5,866.167 886.5,867.5C 883.236,868.927 880.736,871.261 879,874.5C 876.524,880.439 874.358,886.439 872.5,892.5C 871.453,894.151 870.286,895.817 869,897.5C 867.211,901.7 865.711,906.034 864.5,910.5C 861.588,915.476 859.588,920.809 858.5,926.5C 854.094,934.981 849.927,943.647 846,952.5C 845.51,953.793 845.343,955.127 845.5,956.5C 842.198,960.57 839.865,959.904 838.5,954.5C 836.741,946.564 834.408,938.898 831.5,931.5C 831.5,931.167 831.5,930.833 831.5,930.5C 830.469,924.074 828.469,918.074 825.5,912.5C 824.779,907.668 823.445,903.002 821.5,898.5C 819.309,888.485 816.309,878.818 812.5,869.5C 809.844,861.627 807.511,853.627 805.5,845.5C 804.276,838.833 802.276,832.499 799.5,826.5C 799.483,824.435 799.15,822.435 798.5,820.5C 796.77,811.006 794.603,801.673 792,792.5C 791.098,790.569 789.931,788.903 788.5,787.5C 785.492,775.979 781.992,764.646 778,753.5C 776.668,751.34 775.168,749.34 773.5,747.5C 772.758,745.574 771.758,743.741 770.5,742C 762.175,740.021 754.841,741.688 748.5,747C 747.216,747.684 746.049,747.517 745,746.5C 745.814,749.487 745.648,752.487 744.5,755.5C 740.222,764.896 736.389,774.563 733,784.5C 730.425,787.66 728.925,791.326 728.5,795.5C 727.095,799.783 724.929,803.783 722,807.5C 720.526,811.438 719.359,815.438 718.5,819.5C 716.09,824.321 713.59,829.321 711,834.5C 709.869,837.445 709.036,840.445 708.5,843.5C 707.833,844.5 707.167,845.5 706.5,846.5C 704.45,851.603 702.116,856.603 699.5,861.5C 646.496,861.602 593.496,861.268 540.5,860.5C 539.833,860.167 539.167,859.833 538.5,859.5C 529.742,846.981 520.742,834.648 511.5,822.5C 510.808,818.116 508.808,814.45 505.5,811.5C 505.443,810.391 505.11,809.391 504.5,808.5C 504.245,806.033 503.245,804.033 501.5,802.5C 500.883,802.389 500.383,802.056 500,801.5C 497.642,794.36 495.142,787.36 492.5,780.5C 491.5,778.5 490.5,776.5 489.5,774.5C 488.593,767.211 486.927,760.211 484.5,753.5C 484.638,748.586 483.972,743.919 482.5,739.5C 482.679,733.596 482.012,727.929 480.5,722.5C 480.5,722.167 480.5,721.833 480.5,721.5C 480.111,702.116 480.778,682.783 482.5,663.5C 484.23,659.117 485.23,654.45 485.5,649.5C 485.833,646.833 486.167,644.167 486.5,641.5C 489.809,632.204 493.142,622.871 496.5,613.5C 497.345,612.329 498.011,610.995 498.5,609.5C 500.539,605.623 503.039,601.957 506,598.5C 507.081,600.622 507.748,602.622 508,604.5C 508.309,603.234 508.809,602.067 509.5,601C 509.167,600.667 508.833,600.333 508.5,600C 509.5,599.667 510.5,599.333 511.5,599C 509.365,598.241 508.032,596.741 507.5,594.5C 509.086,592.827 509.753,590.827 509.5,588.5C 512.511,583.306 515.344,577.973 518,572.5C 521.072,570.265 523.572,567.598 525.5,564.5C 528.871,562.064 531.538,559.064 533.5,555.5C 537.478,553.522 540.478,550.522 542.5,546.5C 546.482,543.848 550.149,540.848 553.5,537.5C 555.573,535.42 557.907,533.754 560.5,532.5C 561.873,532.657 563.207,532.49 564.5,532C 568.853,528.445 573.519,525.612 578.5,523.5C 579.514,522.326 580.847,521.66 582.5,521.5C 589.909,519.113 597.243,516.78 604.5,514.5 Z"/></g>
<g><path style="opacity:0.353" fill="#f9d1d1" d="M 938.5,515.5 C 936.054,516.688 933.72,518.021 931.5,519.5C 927.642,519.77 924.309,521.103 921.5,523.5C 916.803,525.517 912.136,527.517 907.5,529.5C 907.33,528.178 907.663,527.011 908.5,526C 911.777,524.857 915.11,524.023 918.5,523.5C 918.5,522.5 918.5,521.5 918.5,520.5C 925.349,519.253 932.016,517.587 938.5,515.5 Z"/></g>
<g><path style="opacity:0.725" fill="#ea615e" d="M 606.5,514.5 C 621.339,513.174 636.339,513.174 651.5,514.5C 655.714,515.874 659.714,517.54 663.5,519.5C 665.072,520.687 666.739,521.687 668.5,522.5C 664.213,521.7 660.213,520.2 656.5,518C 652.833,517.667 649.167,517.333 645.5,517C 644.833,516.333 644.167,515.667 643.5,515C 631.171,514.5 618.838,514.333 606.5,514.5 Z"/></g>
<g><path style="opacity:0.557" fill="#f3a3a2" d="M 663.5,519.5 C 665.527,519.338 667.527,519.505 669.5,520C 672.557,520.916 675.224,522.416 677.5,524.5C 674.426,524.127 671.426,523.461 668.5,522.5C 666.739,521.687 665.072,520.687 663.5,519.5 Z"/></g>
<g><path style="opacity:0.624" fill="#ed7877" d="M 1007.5,519.5 C 1011.4,520.72 1015.07,522.387 1018.5,524.5C 1015.35,524.263 1012.35,523.43 1009.5,522C 1008.62,521.292 1007.95,520.458 1007.5,519.5 Z"/></g>
<g><path style="opacity:0.318" fill="#ec6e6c" d="M 931.5,519.5 C 928.73,521.941 925.397,523.274 921.5,523.5C 924.309,521.103 927.642,519.77 931.5,519.5 Z"/></g>
<g><path style="opacity:0.342" fill="#f9cdcd" d="M 948.5,513.5 C 964.672,512.173 981.005,512.173 997.5,513.5C 1004.86,515.861 1011.86,518.694 1018.5,522C 1020.5,522.333 1022.5,522.667 1024.5,523C 1025.48,524.667 1027.15,526.333 1029.5,528C 1033.2,528.361 1036.53,529.527 1039.5,531.5C 1039.35,532.552 1039.52,533.552 1040,534.5C 1043.39,537.591 1046.55,540.924 1049.5,544.5C 1044.56,540.684 1039.56,536.851 1034.5,533C 1028.99,530.412 1023.65,527.578 1018.5,524.5C 1015.07,522.387 1011.4,520.72 1007.5,519.5C 1006.83,519.5 1006.17,519.5 1005.5,519.5C 1004.57,518.685 1003.57,517.852 1002.5,517C 998.232,516.969 994.232,515.969 990.5,514C 976.504,513.5 962.504,513.333 948.5,513.5 Z"/></g>
<g><path style="opacity:0.349" fill="#ee7c79" d="M 578.5,523.5 C 573.519,525.612 568.853,528.445 564.5,532C 563.207,532.49 561.873,532.657 560.5,532.5C 564.452,530.446 568.119,527.946 571.5,525C 573.866,524.56 576.199,524.06 578.5,523.5 Z"/></g>
<g><path style="opacity:0.506" fill="#f4abaa" d="M 679.5,524.5 C 683.679,525.838 687.013,528.172 689.5,531.5C 685.608,529.938 682.275,527.605 679.5,524.5 Z"/></g>
<g><path style="opacity:1" fill="#e02020" d="M 594.5,530.5 C 596.5,530.5 598.5,530.5 600.5,530.5C 601.953,533.986 602.619,537.653 602.5,541.5C 601.448,541.351 600.448,541.517 599.5,542C 600.38,543.356 600.714,544.856 600.5,546.5C 599.5,546.5 598.5,546.5 597.5,546.5C 597.643,548.262 597.309,549.929 596.5,551.5C 608.148,552.499 619.814,552.832 631.5,552.5C 631.5,553.5 631.5,554.5 631.5,555.5C 637.189,556.237 642.856,557.237 648.5,558.5C 649.853,559.524 650.52,560.857 650.5,562.5C 656.146,563.31 661.813,563.976 667.5,564.5C 667.5,565.5 667.5,566.5 667.5,567.5C 668.833,567.5 670.167,567.5 671.5,567.5C 671.5,569.167 671.5,570.833 671.5,572.5C 672.833,572.5 674.167,572.5 675.5,572.5C 675.5,573.5 675.5,574.5 675.5,575.5C 676.833,575.5 678.167,575.5 679.5,575.5C 680.065,580.322 679.399,584.822 677.5,589C 680.581,591.783 683.248,594.949 685.5,598.5C 686.689,599.429 688.022,599.762 689.5,599.5C 689.5,603.833 689.5,608.167 689.5,612.5C 683.342,612.98 677.342,612.313 671.5,610.5C 670.833,610.833 670.167,611.167 669.5,611.5C 666.408,618.801 665.074,626.468 665.5,634.5C 664.5,634.5 663.5,634.5 662.5,634.5C 662.335,638.182 662.501,641.848 663,645.5C 663.49,644.207 663.657,642.873 663.5,641.5C 664.5,641.5 665.5,641.5 666.5,641.5C 666.5,640.167 666.5,638.833 666.5,637.5C 668.833,637.5 671.167,637.5 673.5,637.5C 673.091,646.646 673.091,655.646 673.5,664.5C 674.833,664.5 676.167,664.5 677.5,664.5C 677.5,663.5 677.5,662.5 677.5,661.5C 684.514,660.952 691.514,660.285 698.5,659.5C 698.5,658.5 698.5,657.5 698.5,656.5C 700.5,656.5 702.5,656.5 704.5,656.5C 704.5,657.5 704.5,658.5 704.5,659.5C 705.833,659.5 707.167,659.5 708.5,659.5C 708.5,662.833 708.5,666.167 708.5,669.5C 707.167,669.5 705.833,669.5 704.5,669.5C 704.5,670.5 704.5,671.5 704.5,672.5C 700.535,673.369 696.535,674.202 692.5,675C 694.25,676.319 696.25,676.819 698.5,676.5C 698.5,677.833 698.5,679.167 698.5,680.5C 701.833,680.5 705.167,680.5 708.5,680.5C 708.5,679.5 708.5,678.5 708.5,677.5C 721.376,677.273 734.043,676.606 746.5,675.5C 746.5,674.5 746.5,673.5 746.5,672.5C 750.5,672.5 754.5,672.5 758.5,672.5C 758.5,671.5 758.5,670.5 758.5,669.5C 761.5,669.5 764.5,669.5 767.5,669.5C 768.833,673.833 768.833,678.167 767.5,682.5C 763.828,683.045 764.162,683.378 768.5,683.5C 768.833,687.5 769.167,687.5 769.5,683.5C 773.5,683.5 777.5,683.5 781.5,683.5C 781.5,682.5 781.5,681.5 781.5,680.5C 786.167,680.5 790.833,680.5 795.5,680.5C 795.5,683.167 795.5,685.833 795.5,688.5C 796.5,688.5 797.5,688.5 798.5,688.5C 803.018,698.143 800.018,702.476 789.5,701.5C 789.5,702.5 789.5,703.5 789.5,704.5C 787.5,704.5 785.5,704.5 783.5,704.5C 783.5,705.5 783.5,706.5 783.5,707.5C 781.5,707.5 779.5,707.5 777.5,707.5C 777.5,706.5 777.5,705.5 777.5,704.5C 775.5,704.5 773.5,704.5 771.5,704.5C 771.5,705.5 771.5,706.5 771.5,707.5C 758.096,707.171 744.762,707.838 731.5,709.5C 731.5,710.5 731.5,711.5 731.5,712.5C 723.167,712.5 714.833,712.5 706.5,712.5C 706.5,713.5 706.5,714.5 706.5,715.5C 690.469,715.567 674.469,716.233 658.5,717.5C 656.299,725.104 654.299,732.771 652.5,740.5C 651.448,740.351 650.448,740.517 649.5,741C 650.122,742.569 650.456,744.236 650.5,746C 647.985,759.44 645.985,772.94 644.5,786.5C 643.448,786.351 642.448,786.517 641.5,787C 642.38,788.356 642.714,789.856 642.5,791.5C 644.167,791.5 645.833,791.5 647.5,791.5C 647.539,794.321 648.205,796.988 649.5,799.5C 650.386,798.675 650.719,797.675 650.5,796.5C 652.5,796.5 654.5,796.5 656.5,796.5C 656.5,795.5 656.5,794.5 656.5,793.5C 661.641,793.655 666.641,792.988 671.5,791.5C 671.5,790.5 671.5,789.5 671.5,788.5C 672.833,788.5 674.167,788.5 675.5,788.5C 676.167,786.5 676.833,784.5 677.5,782.5C 680.167,782.5 682.833,782.5 685.5,782.5C 687.441,787.025 687.775,791.692 686.5,796.5C 685.646,797.522 684.646,798.355 683.5,799C 684.752,801.041 685.419,803.375 685.5,806C 683.027,812.258 681.027,818.758 679.5,825.5C 678.167,825.5 676.833,825.5 675.5,825.5C 674.67,830.098 672.003,832.764 667.5,833.5C 667.5,834.5 667.5,835.5 667.5,836.5C 663.545,835.921 660.545,837.254 658.5,840.5C 651.158,843.128 646.491,840.795 644.5,833.5C 642.5,833.5 640.5,833.5 638.5,833.5C 638.5,834.5 638.5,835.5 638.5,836.5C 633.833,836.5 629.167,836.5 624.5,836.5C 624.5,835.167 624.5,833.833 624.5,832.5C 623.5,832.5 622.5,832.5 621.5,832.5C 621.808,830.076 621.474,827.743 620.5,825.5C 619.614,826.325 619.281,827.325 619.5,828.5C 616.833,828.5 614.167,828.5 611.5,828.5C 611.5,829.5 611.5,830.5 611.5,831.5C 605.237,832.71 598.904,833.376 592.5,833.5C 592.5,834.5 592.5,835.5 592.5,836.5C 588.833,836.5 585.167,836.5 581.5,836.5C 581.5,837.5 581.5,838.5 581.5,839.5C 575.5,839.5 569.5,839.5 563.5,839.5C 563.5,838.5 563.5,837.5 563.5,836.5C 559.833,836.5 556.167,836.5 552.5,836.5C 552.5,835.5 552.5,834.5 552.5,833.5C 546.833,834.498 544.499,832.164 545.5,826.5C 542.545,825.841 539.545,825.508 536.5,825.5C 536.5,824.5 536.5,823.5 536.5,822.5C 534.5,822.5 532.5,822.5 530.5,822.5C 530.5,819.833 530.5,817.167 530.5,814.5C 528.712,814.785 527.045,814.452 525.5,813.5C 523.312,810.384 520.978,807.384 518.5,804.5C 517.52,801.914 517.187,799.247 517.5,796.5C 519.5,796.5 521.5,796.5 523.5,796.5C 523.5,795.5 523.5,794.5 523.5,793.5C 525.833,793.5 528.167,793.5 530.5,793.5C 530.5,794.5 530.5,795.5 530.5,796.5C 532.5,796.5 534.5,796.5 536.5,796.5C 537.19,778.418 538.857,760.418 541.5,742.5C 542.308,742.192 542.975,741.692 543.5,741C 542.887,738.853 542.221,736.686 541.5,734.5C 540.264,735.246 538.93,735.579 537.5,735.5C 537.5,736.833 537.5,738.167 537.5,739.5C 535.167,739.5 532.833,739.5 530.5,739.5C 530.172,734.125 530.505,728.792 531.5,723.5C 534.141,716.743 536.474,709.91 538.5,703C 534.048,698.691 533.381,693.858 536.5,688.5C 538.604,688.799 540.604,688.466 542.5,687.5C 543.71,684.337 545.376,681.504 547.5,679C 546.919,678.107 546.585,677.107 546.5,676C 549.365,668.704 551.365,661.204 552.5,653.5C 553.5,653.5 554.5,653.5 555.5,653.5C 561.715,633.859 567.715,614.192 573.5,594.5C 570.833,595.167 568.167,595.833 565.5,596.5C 564.648,599.613 562.982,602.28 560.5,604.5C 559.534,606.396 559.201,608.396 559.5,610.5C 554.977,610.027 552.643,612.027 552.5,616.5C 551.5,616.5 550.5,616.5 549.5,616.5C 548.183,619.806 546.85,623.14 545.5,626.5C 544.264,627.246 542.93,627.579 541.5,627.5C 539.947,630.76 538.447,634.093 537,637.5C 535.989,638.337 534.822,638.67 533.5,638.5C 532.522,641.131 531.522,643.798 530.5,646.5C 529.675,647.386 528.675,647.719 527.5,647.5C 526.833,649.5 526.167,651.5 525.5,653.5C 522.167,653.5 518.833,653.5 515.5,653.5C 515.262,646.463 516.595,639.796 519.5,633.5C 520.5,633.5 521.5,633.5 522.5,633.5C 523.478,630.869 524.478,628.202 525.5,625.5C 526.325,624.614 527.325,624.281 528.5,624.5C 528.5,623.167 528.5,621.833 528.5,620.5C 526.167,620.5 523.833,620.5 521.5,620.5C 521.174,616.116 521.508,611.783 522.5,607.5C 524.876,605.373 525.876,602.707 525.5,599.5C 526.5,599.5 527.5,599.5 528.5,599.5C 529.167,594.167 529.833,588.833 530.5,583.5C 531.833,583.5 533.167,583.5 534.5,583.5C 535.13,579.562 536.463,575.895 538.5,572.5C 540.492,572.672 542.158,572.005 543.5,570.5C 546.047,566.85 548.38,563.184 550.5,559.5C 552.288,559.785 553.955,559.452 555.5,558.5C 559.122,555.068 561.788,551.068 563.5,546.5C 565.288,546.785 566.955,546.452 568.5,545.5C 571.899,536.489 577.899,534.155 586.5,538.5C 586.833,543.833 587.167,543.833 587.5,538.5C 588.5,538.5 589.5,538.5 590.5,538.5C 590.5,536.833 590.5,535.167 590.5,533.5C 591.833,533.5 593.167,533.5 594.5,533.5C 594.5,532.5 594.5,531.5 594.5,530.5 Z"/></g>
<g><path style="opacity:0.369" fill="#f19291" d="M 553.5,537.5 C 550.149,540.848 546.482,543.848 542.5,546.5C 545.245,542.426 548.912,539.426 553.5,537.5 Z"/></g>
<g><path style="opacity:0.439" fill="#f9c4c3" d="M 691.5,532.5 C 692.873,532.343 694.207,532.51 695.5,533C 697.718,535.276 700.385,536.776 703.5,537.5C 708.878,543.54 714.211,549.54 719.5,555.5C 716.916,552.748 713.916,550.581 710.5,549C 707.823,546.655 705.49,543.988 703.5,541C 701.922,539.906 700.255,539.072 698.5,538.5C 695.94,536.727 693.607,534.727 691.5,532.5 Z"/></g>
<g><path style="opacity:0.824" fill="#e95652" d="M 698.5,538.5 C 700.255,539.072 701.922,539.906 703.5,541C 705.49,543.988 707.823,546.655 710.5,549C 713.916,550.581 716.916,552.748 719.5,555.5C 721.252,557.246 722.585,559.246 723.5,561.5C 718.578,556.403 713.245,551.903 707.5,548C 706.552,547.517 705.552,547.351 704.5,547.5C 702.756,544.349 700.756,541.349 698.5,538.5 Z"/></g>
<g><path style="opacity:0.314" fill="#ea6b69" d="M 542.5,546.5 C 540.478,550.522 537.478,553.522 533.5,555.5C 534.92,553.291 536.587,551.291 538.5,549.5C 539.637,548.211 540.97,547.211 542.5,546.5 Z"/></g>
<g><path style="opacity:0.314" fill="#f8bebd" d="M 538.5,549.5 C 536.587,551.291 534.92,553.291 533.5,555.5C 531.538,559.064 528.871,562.064 525.5,564.5C 528.477,559.895 531.477,555.228 534.5,550.5C 535.736,549.754 537.07,549.421 538.5,549.5 Z"/></g>
<g><path style="opacity:0.635" fill="#ee7976" d="M 891.5,541.5 C 883.221,550.446 874.554,559.113 865.5,567.5C 871.833,556.5 880.5,547.833 891.5,541.5 Z"/></g>
<g><path style="opacity:0.298" fill="#f9c6c5" d="M 1049.5,544.5 C 1053.23,546.725 1056.57,549.558 1059.5,553C 1061.42,554.122 1063.42,554.956 1065.5,555.5C 1066.66,558.079 1067.66,560.745 1068.5,563.5C 1067.17,562.5 1065.83,561.5 1064.5,560.5C 1064.63,559.761 1064.46,559.094 1064,558.5C 1058.66,554.33 1053.83,549.663 1049.5,544.5 Z"/></g>
<g><path style="opacity:1" fill="#e02121" d="M 953.5,562.5 C 968.909,562.077 984.243,562.743 999.5,564.5C 999.5,565.5 999.5,566.5 999.5,567.5C 1001.5,567.5 1003.5,567.5 1005.5,567.5C 1005.5,568.5 1005.5,569.5 1005.5,570.5C 1007.93,570.884 1010.26,571.551 1012.5,572.5C 1012.5,573.5 1012.5,574.5 1012.5,575.5C 1013.83,575.5 1015.17,575.5 1016.5,575.5C 1018.62,579.184 1020.95,582.85 1023.5,586.5C 1024.72,583.191 1025.72,579.858 1026.5,576.5C 1027.5,576.5 1028.5,576.5 1029.5,576.5C 1029.68,573.163 1030.68,570.163 1032.5,567.5C 1038.17,567.5 1043.83,567.5 1049.5,567.5C 1052.66,573.074 1056.33,578.407 1060.5,583.5C 1061.77,585.695 1061.77,587.861 1060.5,590C 1061.45,590.483 1062.45,590.649 1063.5,590.5C 1063.5,592.167 1063.5,593.833 1063.5,595.5C 1064.5,595.5 1065.5,595.5 1066.5,595.5C 1071.16,614.803 1075.83,634.136 1080.5,653.5C 1080.39,655.641 1079.72,657.475 1078.5,659C 1079.82,667.268 1080.48,675.768 1080.5,684.5C 1081.21,700.868 1079.21,716.868 1074.5,732.5C 1077.4,740.375 1077.07,748.042 1073.5,755.5C 1076.17,756.833 1078.17,758.833 1079.5,761.5C 1080.35,760.052 1081.35,758.719 1082.5,757.5C 1086.11,756.511 1089.77,756.177 1093.5,756.5C 1093.5,760.833 1093.5,765.167 1093.5,769.5C 1092.32,769.281 1091.32,769.614 1090.5,770.5C 1088.31,773.616 1085.98,776.616 1083.5,779.5C 1078.59,790.918 1072.92,801.918 1066.5,812.5C 1065.5,812.5 1064.5,812.5 1063.5,812.5C 1060.7,822.224 1056.37,831.224 1050.5,839.5C 1049.57,840.689 1049.24,842.022 1049.5,843.5C 1046.17,844.833 1042.83,844.833 1039.5,843.5C 1039.98,839.566 1039.31,835.899 1037.5,832.5C 1037,832.167 1036.5,831.833 1036,831.5C 1033.74,833.085 1031.24,833.752 1028.5,833.5C 1028.5,834.5 1028.5,835.5 1028.5,836.5C 1025.17,836.5 1021.83,836.5 1018.5,836.5C 1018.5,837.5 1018.5,838.5 1018.5,839.5C 999.167,839.5 979.833,839.5 960.5,839.5C 960.5,838.5 960.5,837.5 960.5,836.5C 953.5,836.5 946.5,836.5 939.5,836.5C 939.5,837.5 939.5,838.5 939.5,839.5C 931.097,839.47 922.763,840.136 914.5,841.5C 914.728,836.985 914.062,832.652 912.5,828.5C 910.5,828.5 908.5,828.5 906.5,828.5C 906.5,829.5 906.5,830.5 906.5,831.5C 898.903,830.607 891.903,832.107 885.5,836C 883.61,841.557 881.61,847.057 879.5,852.5C 877.833,852.5 876.167,852.5 874.5,852.5C 874.5,853.5 874.5,854.5 874.5,855.5C 870.991,855.542 867.658,854.876 864.5,853.5C 864.817,850.428 864.484,847.428 863.5,844.5C 862.505,849.792 862.172,855.125 862.5,860.5C 859.833,860.5 857.167,860.5 854.5,860.5C 853.833,862.5 853.167,864.5 852.5,866.5C 847.764,866.588 843.097,867.255 838.5,868.5C 836.285,868.33 834.285,867.663 832.5,866.5C 831.213,863.291 831.213,860.125 832.5,857C 831.91,855.491 831.244,853.991 830.5,852.5C 827.536,823.225 826.869,793.892 828.5,764.5C 830.1,756.51 832.1,748.677 834.5,741C 833.853,737.751 833.519,734.418 833.5,731C 833.539,725.884 834.539,721.05 836.5,716.5C 835.205,698.175 835.205,679.842 836.5,661.5C 838.11,658.316 839.11,654.983 839.5,651.5C 842.881,651.46 846.214,651.793 849.5,652.5C 849.5,653.833 849.5,655.167 849.5,656.5C 850.5,656.5 851.5,656.5 852.5,656.5C 852.5,655.5 852.5,654.5 852.5,653.5C 854.5,653.5 856.5,653.5 858.5,653.5C 858.281,654.675 858.614,655.675 859.5,656.5C 864.167,650.167 868.833,643.833 873.5,637.5C 874.931,637.023 876.264,636.357 877.5,635.5C 879.385,629.48 883.051,625.147 888.5,622.5C 888.433,620.599 888.767,618.766 889.5,617C 893.91,612.053 898.41,607.22 903,602.5C 903.129,598.882 904.962,597.215 908.5,597.5C 908.967,595.289 909.967,593.289 911.5,591.5C 916.144,589.201 918.81,585.534 919.5,580.5C 921.737,579.551 924.071,578.884 926.5,578.5C 926.5,577.5 926.5,576.5 926.5,575.5C 931.637,575.216 934.637,572.55 935.5,567.5C 938.833,567.5 942.167,567.5 945.5,567.5C 945.5,566.5 945.5,565.5 945.5,564.5C 948.698,565.036 951.365,564.369 953.5,562.5 Z"/></g>
<g><path style="opacity:0.588" fill="#ec706e" d="M 1064.5,560.5 C 1065.83,561.5 1067.17,562.5 1068.5,563.5C 1070.58,565.573 1072.25,567.907 1073.5,570.5C 1069.77,567.769 1066.77,564.436 1064.5,560.5 Z"/></g>
<g><path style="opacity:0.682" fill="#ea5c58" d="M 723.5,561.5 C 728.976,566.308 733.31,571.974 736.5,578.5C 730.291,574.288 725.958,568.622 723.5,561.5 Z"/></g>
<g><path style="opacity:0.004" fill="#000000" d="M 846.5,572.5 C 845.833,573.833 844.833,574.833 843.5,575.5C 843.5,573.5 844.5,572.5 846.5,572.5 Z"/></g>
<g><path style="opacity:0.522" fill="#ed706c" d="M 865.5,567.5 C 865.657,568.873 865.49,570.207 865,571.5C 860.608,577.056 855.775,582.056 850.5,586.5C 852.113,583.868 853.78,581.202 855.5,578.5C 858.565,574.442 861.898,570.776 865.5,567.5 Z"/></g>
<g><path style="opacity:0.671" fill="#ec7370" d="M 1073.5,570.5 C 1076.98,574.134 1079.98,578.134 1082.5,582.5C 1082.5,583.167 1082.5,583.833 1082.5,584.5C 1077.97,580.765 1074.97,576.098 1073.5,570.5 Z"/></g>
<g><path style="opacity:0.718" fill="#e8524f" d="M 736.5,578.5 C 740.557,582.284 743.891,586.617 746.5,591.5C 742.546,589.38 739.379,586.38 737,582.5C 736.51,581.207 736.343,579.873 736.5,578.5 Z"/></g>
<g><path style="opacity:0.329" fill="#f9d1d1" d="M 1082.5,582.5 C 1090.26,589.928 1095.26,598.928 1097.5,609.5C 1092.94,600.932 1087.94,592.598 1082.5,584.5C 1082.5,583.833 1082.5,583.167 1082.5,582.5 Z"/></g>
<g><path style="opacity:0.69" fill="#ea6562" d="M 1082.5,584.5 C 1087.94,592.598 1092.94,600.932 1097.5,609.5C 1097.5,610.833 1097.5,612.167 1097.5,613.5C 1092.95,605.064 1088.12,596.73 1083,588.5C 1082.51,587.207 1082.34,585.873 1082.5,584.5 Z"/></g>
<g><path style="opacity:0.874" fill="#e64b44" d="M 509.5,588.5 C 509.753,590.827 509.086,592.827 507.5,594.5C 508.032,596.741 509.365,598.241 511.5,599C 510.5,599.333 509.5,599.667 508.5,600C 508.833,600.333 509.167,600.667 509.5,601C 508.809,602.067 508.309,603.234 508,604.5C 507.748,602.622 507.081,600.622 506,598.5C 503.039,601.957 500.539,605.623 498.5,609.5C 500.857,601.723 504.523,594.723 509.5,588.5 Z"/></g>
<g><path style="opacity:0.51" fill="#ee7976" d="M 850.5,586.5 C 846.916,592.041 843.416,597.708 840,603.5C 835.61,608.078 831.443,612.744 827.5,617.5C 829.055,614.06 830.888,610.727 833,607.5C 838.402,599.953 844.235,592.953 850.5,586.5 Z"/></g>
<g><path style="opacity:0.651" fill="#ec6a67" d="M 748.5,594.5 C 754.664,599.988 759.664,606.321 763.5,613.5C 758.222,608.959 753.389,603.959 749,598.5C 748.51,597.207 748.343,595.873 748.5,594.5 Z"/></g>
<g><path style="opacity:0.651" fill="#eb6764" d="M 763.5,613.5 C 764.794,614.29 765.961,615.29 767,616.5C 768.323,619.309 769.823,621.975 771.5,624.5C 767.207,621.894 764.541,618.227 763.5,613.5 Z"/></g>
<g><path style="opacity:0.237" fill="#f9cbca" d="M 496.5,613.5 C 493.142,622.871 489.809,632.204 486.5,641.5C 487.658,636.386 488.658,631.219 489.5,626C 489.415,624.893 489.081,623.893 488.5,623C 489.624,622.751 490.624,622.251 491.5,621.5C 492.205,618.06 493.871,615.394 496.5,613.5 Z"/></g>
<g><path style="opacity:0.651" fill="#ed7b79" d="M 1099.5,619.5 C 1103.74,627.234 1106.41,635.567 1107.5,644.5C 1106.2,642.328 1105.03,639.994 1104,637.5C 1102.8,631.394 1101.3,625.394 1099.5,619.5 Z"/></g>
<g><path style="opacity:0.675" fill="#e85854" d="M 771.5,624.5 C 777.594,630.926 782.927,637.926 787.5,645.5C 779.978,640.102 774.645,633.102 771.5,624.5 Z"/></g>
<g><path style="opacity:0.467" fill="#ed7876" d="M 826.5,618.5 C 822.273,626.959 816.606,634.293 809.5,640.5C 813.338,634.82 817.171,629.153 821,623.5C 822.75,621.576 824.583,619.909 826.5,618.5 Z"/></g>
<g><path style="opacity:0.443" fill="#eb6b69" d="M 809.5,640.5 C 809.657,641.873 809.49,643.207 809,644.5C 806.614,645.763 804.781,647.597 803.5,650C 802.255,650.791 800.922,651.291 799.5,651.5C 803.057,648.064 806.391,644.397 809.5,640.5 Z"/></g>
<g><path style="opacity:0.361" fill="#f19392" d="M 485.5,649.5 C 485.23,654.45 484.23,659.117 482.5,663.5C 482.77,658.55 483.77,653.883 485.5,649.5 Z"/></g>
<g><path style="opacity:0.282" fill="#f19c9b" d="M 1107.5,644.5 C 1108.56,645.6 1109.39,646.934 1110,648.5C 1110.43,653.184 1110.93,657.851 1111.5,662.5C 1109.95,656.653 1108.62,650.653 1107.5,644.5 Z"/></g>
<g><path style="opacity:0.253" fill="#ef8d8c" d="M 1111.5,664.5 C 1113.03,669.25 1113.7,674.25 1113.5,679.5C 1112.11,674.731 1111.44,669.731 1111.5,664.5 Z"/></g>
<g><path style="opacity:0.345" fill="#f29a9a" d="M 482.5,663.5 C 480.778,682.783 480.111,702.116 480.5,721.5C 479.339,707.673 479.173,693.673 480,679.5C 480.52,673.975 481.353,668.642 482.5,663.5 Z"/></g>
<g><path style="opacity:0.318" fill="#ef8584" d="M 480.5,722.5 C 482.012,727.929 482.679,733.596 482.5,739.5C 481.263,734.04 480.596,728.373 480.5,722.5 Z"/></g>
<g><path style="opacity:0.306" fill="#eb9795" d="M 1113.5,724.5 C 1113.91,732.818 1112.91,740.818 1110.5,748.5C 1110.86,740.283 1111.86,732.283 1113.5,724.5 Z"/></g>
<g><path style="opacity:0.353" fill="#e55653" d="M 773.5,747.5 C 760.822,739.17 751.155,741.836 744.5,755.5C 745.648,752.487 745.814,749.487 745,746.5C 746.049,747.517 747.216,747.684 748.5,747C 754.841,741.688 762.175,740.021 770.5,742C 771.758,743.741 772.758,745.574 773.5,747.5 Z"/></g>
<g><path style="opacity:0.322" fill="#f29c9b" d="M 482.5,739.5 C 483.972,743.919 484.638,748.586 484.5,753.5C 483.028,749.081 482.362,744.414 482.5,739.5 Z"/></g>
<g><path style="opacity:0.273" fill="#eddede" d="M 1113.5,680.5 C 1114.22,680.918 1114.72,681.584 1115,682.5C 1115.33,686.167 1115.67,689.833 1116,693.5C 1116.38,694.056 1116.88,694.389 1117.5,694.5C 1122.4,737.121 1115.23,777.454 1096,815.5C 1087.33,828.833 1078.67,842.167 1070,855.5C 1064.5,859.667 1059.67,864.5 1055.5,870C 1053.67,870.748 1052,871.748 1050.5,873C 1019,873.004 987.504,872.837 956,872.5C 934.414,872.344 912.914,872.844 891.5,874C 887.472,877.887 884.306,882.387 882,887.5C 877.604,898.023 873.604,908.689 870,919.5C 863.48,932.401 858.146,945.735 854,959.5C 852.301,962.921 850.135,965.921 847.5,968.5C 845.072,969.39 842.738,969.723 840.5,969.5C 837.36,962.875 835.693,955.875 835.5,948.5C 836.5,950.5 837.5,952.5 838.5,954.5C 839.865,959.904 842.198,960.57 845.5,956.5C 850.072,950.369 853.905,943.703 857,936.5C 857.61,933.173 858.11,929.839 858.5,926.5C 859.588,920.809 861.588,915.476 864.5,910.5C 866.504,909.327 868.004,907.66 869,905.5C 871.072,901.406 872.238,897.072 872.5,892.5C 874.358,886.439 876.524,880.439 879,874.5C 880.736,871.261 883.236,868.927 886.5,867.5C 888.196,867.315 889.529,866.481 890.5,865C 945.167,864.667 999.833,864.333 1054.5,864C 1056.82,861.523 1058.49,858.689 1059.5,855.5C 1066.41,846.007 1073.08,836.341 1079.5,826.5C 1083.6,820.426 1087.27,814.093 1090.5,807.5C 1092.85,803.776 1094.85,799.776 1096.5,795.5C 1098.68,788.435 1101.02,781.435 1103.5,774.5C 1106.15,769.218 1107.81,763.552 1108.5,757.5C 1108.42,754.219 1109.09,751.219 1110.5,748.5C 1112.91,740.818 1113.91,732.818 1113.5,724.5C 1113.5,709.833 1113.5,695.167 1113.5,680.5 Z"/></g>
<g><path style="opacity:0.318" fill="#ea9393" d="M 1108.5,757.5 C 1107.81,763.552 1106.15,769.218 1103.5,774.5C 1104.59,768.567 1106.26,762.9 1108.5,757.5 Z"/></g>
<g><path style="opacity:0.316" fill="#f7cbca" d="M 484.5,753.5 C 486.927,760.211 488.593,767.211 489.5,774.5C 487.28,772.41 485.78,769.743 485,766.5C 484.501,762.179 484.334,757.846 484.5,753.5 Z"/></g>
<g><path style="opacity:0.064" fill="#fbf8f8" d="M 775.5,771.5 C 777.729,772.055 779.395,773.389 780.5,775.5C 781.917,778.877 783.251,782.211 784.5,785.5C 785.5,785.5 786.5,785.5 787.5,785.5C 789.115,794.62 790.448,803.786 791.5,813C 791.167,813.333 790.833,813.667 790.5,814C 793.167,815 793.167,816 790.5,817C 791.5,817.333 792.5,817.667 793.5,818C 793.167,818.333 792.833,818.667 792.5,819C 794.32,822.964 795.987,826.964 797.5,831C 797.167,832 796.833,833 796.5,834C 798.652,836.085 800.152,838.585 801,841.5C 801.249,844.832 802.082,847.999 803.5,851C 802.674,853.55 803.34,855.883 805.5,858C 804.795,859.422 804.461,860.755 804.5,862C 806.605,863.335 807.271,865.002 806.5,867C 808.637,869.354 809.637,872.188 809.5,875.5C 810.5,875.5 811.5,875.5 812.5,875.5C 812.216,877.415 812.549,879.081 813.5,880.5C 816.668,884.688 818.335,889.522 818.5,895C 819.371,896.364 820.371,897.53 821.5,898.5C 823.445,903.002 824.779,907.668 825.5,912.5C 825.89,915.839 826.39,919.173 827,922.5C 828.982,924.998 830.482,927.665 831.5,930.5C 831.5,930.833 831.5,931.167 831.5,931.5C 831.67,937.57 833.003,943.237 835.5,948.5C 835.693,955.875 837.36,962.875 840.5,969.5C 842.738,969.723 845.072,969.39 847.5,968.5C 847.389,969.117 847.056,969.617 846.5,970C 843.5,970.667 840.5,970.667 837.5,970C 832.463,963.05 829.629,955.217 829,946.5C 822.87,927.109 816.536,907.776 810,888.5C 798.35,849.573 786.85,810.573 775.5,771.5 Z"/></g>
<g><path style="opacity:0.16" fill="#f7fafc" d="M 758.5,792.5 C 758.66,794.199 758.494,795.866 758,797.5C 755.277,802.947 753.11,808.614 751.5,814.5C 750.722,819.009 748.888,823.009 746,826.5C 744.874,831.767 742.874,836.767 740,841.5C 738.61,851.018 735.276,859.684 730,867.5C 729.605,870.207 729.105,872.873 728.5,875.5C 725.54,881.405 722.04,887.071 718,892.5C 715.199,895.147 712.032,897.147 708.5,898.5C 662.167,898.5 615.833,898.5 569.5,898.5C 569.686,902.626 571.686,905.626 575.5,907.5C 578.347,912.373 581.68,917.04 585.5,921.5C 587.56,925.35 589.227,929.35 590.5,933.5C 587.447,933.428 584.781,932.428 582.5,930.5C 579.107,922.589 573.94,915.922 567,910.5C 564.599,905.768 563.932,900.768 565,895.5C 565.295,893.069 566.462,891.236 568.5,890C 616.879,889.015 665.213,888.015 713.5,887C 715.458,884.252 717.291,881.418 719,878.5C 729.093,851.995 739.426,825.662 750,799.5C 751.837,795.819 754.67,793.485 758.5,792.5 Z"/></g>
<g><path style="opacity:0.142" fill="#f7fbfd" d="M 760.5,792.5 C 761.822,792.33 762.989,792.663 764,793.5C 774.385,817.324 782.385,841.991 788,867.5C 800.42,905.592 812.086,943.926 823,982.5C 826.166,990.666 829.333,998.833 832.5,1007C 839.373,1009.98 845.206,1008.81 850,1003.5C 865.191,969.461 879.524,935.127 893,900.5C 895.167,895.667 898.667,892.167 903.5,890C 941.179,889.809 978.846,889.309 1016.5,888.5C 1020.17,888.953 1023.84,889.453 1027.5,890C 1030.68,895.584 1031.18,901.417 1029,907.5C 1024.35,914.638 1019.19,921.305 1013.5,927.5C 1013.25,924.53 1011.59,923.197 1008.5,923.5C 1009.93,919.306 1011.93,915.306 1014.5,911.5C 1018.2,908.985 1020.87,905.652 1022.5,901.5C 1023.4,900.791 1023.74,899.791 1023.5,898.5C 982.499,898.333 941.499,898.5 900.5,899C 899.748,899.671 899.414,900.504 899.5,901.5C 899.371,903.216 899.038,904.883 898.5,906.5C 897.833,907.5 897.167,908.5 896.5,909.5C 891.761,917.401 887.594,925.735 884,934.5C 883.206,937.471 882.539,940.471 882,943.5C 878.201,946.502 876.368,950.502 876.5,955.5C 873.69,963.661 870.69,971.828 867.5,980C 866.991,981.169 866.158,982.002 865,982.5C 861.7,993.381 857.033,1003.71 851,1013.5C 846.377,1018.35 840.877,1019.68 834.5,1017.5C 830.232,1015.07 826.732,1011.73 824,1007.5C 817.171,986.826 810.671,966.159 804.5,945.5C 803.905,939.117 802.071,933.117 799,927.5C 798.503,925.19 798.337,922.857 798.5,920.5C 795.604,913.605 793.77,906.272 793,898.5C 791.078,894.398 789.745,890.065 789,885.5C 788.617,884.944 788.117,884.611 787.5,884.5C 787.167,884.5 786.833,884.5 786.5,884.5C 784.098,873.796 780.598,863.462 776,853.5C 773.167,842.794 770.334,832.127 767.5,821.5C 765.93,811.558 763.597,801.891 760.5,792.5 Z"/></g>
<g><path style="opacity:0.541" fill="#e5504c" d="M 788.5,787.5 C 789.931,788.903 791.098,790.569 792,792.5C 794.603,801.673 796.77,811.006 798.5,820.5C 796.648,814.45 794.481,808.45 792,802.5C 790.894,797.467 789.727,792.467 788.5,787.5 Z"/></g>
<g><path style="opacity:0.325" fill="#e97977" d="M 1096.5,795.5 C 1094.85,799.776 1092.85,803.776 1090.5,807.5C 1091.25,802.784 1093.25,798.784 1096.5,795.5 Z"/></g>
<g><path style="opacity:1" fill="#329dd0" d="M 767.5,821.5 C 770.334,832.127 773.167,842.794 776,853.5C 780.598,863.462 784.098,873.796 786.5,884.5C 787.525,896.389 789.692,908.055 793,919.5C 797.622,926.854 800.788,934.854 802.5,943.5C 802.747,944.713 803.414,945.38 804.5,945.5C 810.671,966.159 817.171,986.826 824,1007.5C 826.732,1011.73 830.232,1015.07 834.5,1017.5C 834.611,1018.12 834.944,1018.62 835.5,1019C 840.572,1019.75 845.572,1019.42 850.5,1018C 856.031,1012.17 860.531,1005.67 864,998.5C 864.751,991.867 866.417,985.534 869,979.5C 869.667,977.5 871,976.167 873,975.5C 873.862,973.913 874.529,972.246 875,970.5C 875.333,971.167 875.667,971.833 876,972.5C 876.684,967.764 877.684,963.097 879,958.5C 882.096,953.333 883.929,947.666 884.5,941.5C 887.91,930.667 891.91,920.001 896.5,909.5C 897.167,908.5 897.833,907.5 898.5,906.5C 899.947,905.378 900.947,903.878 901.5,902C 940.499,901.5 979.499,901.333 1018.5,901.5C 1017.71,905.078 1016.38,908.412 1014.5,911.5C 1013.5,911.414 1012.67,911.748 1012,912.5C 1002.67,925.167 993.333,937.833 984,950.5C 971.436,964.549 960.269,979.549 950.5,995.5C 946.894,999.716 944.06,1004.38 942,1009.5C 935.649,1015.19 929.983,1021.52 925,1028.5C 909.907,1049.66 894.073,1070.33 877.5,1090.5C 872.836,1096.49 868.169,1102.49 863.5,1108.5C 859.256,1111.38 854.923,1114.22 850.5,1117C 848.963,1118.11 848.297,1119.61 848.5,1121.5C 844.748,1122.13 841.914,1124.13 840,1127.5C 839.667,1127.17 839.333,1126.83 839,1126.5C 837.933,1127.19 836.766,1127.69 835.5,1128C 831.08,1129.94 827.08,1132.44 823.5,1135.5C 819.553,1136.14 815.72,1137.14 812,1138.5C 811.228,1138.36 810.561,1138.02 810,1137.5C 808.333,1140.17 806.667,1140.17 805,1137.5C 796.245,1138.65 787.412,1138.82 778.5,1138C 775.301,1137 772.801,1135.16 771,1132.5C 770.581,1133.67 769.915,1134.67 769,1135.5C 764.565,1134.41 760.565,1132.41 757,1129.5C 756.51,1128.21 756.343,1126.87 756.5,1125.5C 751.703,1124.85 747.87,1122.51 745,1118.5C 743.374,1118.85 741.541,1118.85 739.5,1118.5C 732.446,1111.94 726.279,1104.61 721,1096.5C 717.209,1094.54 714.709,1091.54 713.5,1087.5C 711.851,1086.35 710.351,1085.02 709,1083.5C 706.081,1077.32 702.414,1071.66 698,1066.5C 675.476,1037.42 652.976,1008.42 630.5,979.5C 629.417,974.909 626.917,971.242 623,968.5C 622.005,964.84 620.171,961.674 617.5,959C 616.922,957.189 616.422,955.355 616,953.5C 610.91,950.817 609.076,946.817 610.5,941.5C 608.058,941.881 607.391,941.214 608.5,939.5C 607.408,938.169 606.074,937.336 604.5,937C 605.167,936.667 605.833,936.333 606.5,936C 605.333,935.5 604.5,934.667 604,933.5C 603.29,934.973 602.124,935.64 600.5,935.5C 599.814,931.545 597.647,928.879 594,927.5C 592.856,924.869 591.356,922.536 589.5,920.5C 589.608,917.356 589.274,914.356 588.5,911.5C 586.5,912.167 584.5,912.833 582.5,913.5C 579.777,910.443 577.444,907.11 575.5,903.5C 619.83,902.667 664.163,902.167 708.5,902C 712.556,899.886 716.389,897.386 720,894.5C 722.857,889.59 725.524,884.59 728,879.5C 728.49,878.207 728.657,876.873 728.5,875.5C 729.105,872.873 729.605,870.207 730,867.5C 735.276,859.684 738.61,851.018 740,841.5C 742.874,836.767 744.874,831.767 746,826.5C 748.888,823.009 750.722,819.009 751.5,814.5C 752.496,814.586 753.329,814.252 754,813.5C 755.617,807.978 757.617,802.645 760,797.5C 762.447,805.667 764.947,813.667 767.5,821.5 Z"/></g>
<g><path style="opacity:0.365" fill="#eca09f" d="M 799.5,826.5 C 802.276,832.499 804.276,838.833 805.5,845.5C 802.724,839.501 800.724,833.167 799.5,826.5 Z"/></g>
<g><path style="opacity:0.38" fill="#e87674" d="M 1079.5,826.5 C 1073.08,836.341 1066.41,846.007 1059.5,855.5C 1057.5,857.167 1055.5,858.833 1053.5,860.5C 1062.17,849.158 1070.84,837.825 1079.5,826.5 Z"/></g>
<g><path style="opacity:0.173" fill="#ecdbda" d="M 773.5,747.5 C 775.168,749.34 776.668,751.34 778,753.5C 781.992,764.646 785.492,775.979 788.5,787.5C 789.727,792.467 790.894,797.467 792,802.5C 794.481,808.45 796.648,814.45 798.5,820.5C 799.15,822.435 799.483,824.435 799.5,826.5C 800.724,833.167 802.724,839.501 805.5,845.5C 807.511,853.627 809.844,861.627 812.5,869.5C 813.114,873.135 813.448,876.802 813.5,880.5C 812.549,879.081 812.216,877.415 812.5,875.5C 811.5,875.5 810.5,875.5 809.5,875.5C 809.637,872.188 808.637,869.354 806.5,867C 807.271,865.002 806.605,863.335 804.5,862C 804.461,860.755 804.795,859.422 805.5,858C 803.34,855.883 802.674,853.55 803.5,851C 802.082,847.999 801.249,844.832 801,841.5C 800.152,838.585 798.652,836.085 796.5,834C 796.833,833 797.167,832 797.5,831C 795.987,826.964 794.32,822.964 792.5,819C 792.833,818.667 793.167,818.333 793.5,818C 792.5,817.667 791.5,817.333 790.5,817C 793.167,816 793.167,815 790.5,814C 790.833,813.667 791.167,813.333 791.5,813C 790.448,803.786 789.115,794.62 787.5,785.5C 786.5,785.5 785.5,785.5 784.5,785.5C 783.251,782.211 781.917,778.877 780.5,775.5C 779.395,773.389 777.729,772.055 775.5,771.5C 773.777,764.226 770.11,758.059 764.5,753C 762.167,752.333 759.833,752.333 757.5,753C 755,754.833 752.833,757 751,759.5C 737.634,793.24 723.967,826.907 710,860.5C 708.141,866.36 704.307,870.193 698.5,872C 666.168,872.5 633.835,872.667 601.5,872.5C 601.414,871.504 601.748,870.671 602.5,870C 633.833,869.667 665.167,869.333 696.5,869C 698.394,867.921 698.727,866.587 697.5,865C 644.493,864.255 591.493,864.588 538.5,866C 539.696,866.654 539.696,867.154 538.5,867.5C 537.583,866.873 536.583,866.539 535.5,866.5C 528.36,858.297 521.193,849.963 514,841.5C 509.168,832.499 503.835,823.832 498,815.5C 494.268,808.04 491.102,800.374 488.5,792.5C 489.833,792.5 491.167,792.5 492.5,792.5C 492.5,788.5 492.5,784.5 492.5,780.5C 495.142,787.36 497.642,794.36 500,801.5C 500.383,802.056 500.883,802.389 501.5,802.5C 501.025,805.313 502.025,807.313 504.5,808.5C 505.11,809.391 505.443,810.391 505.5,811.5C 506.192,815.884 508.192,819.55 511.5,822.5C 520.742,834.648 529.742,846.981 538.5,859.5C 538.859,861.371 539.859,862.871 541.5,864C 594.497,863.883 647.497,863.55 700.5,863C 701.669,860.993 702.335,858.827 702.5,856.5C 703.5,856.5 704.5,856.5 705.5,856.5C 705.616,853.14 705.949,849.807 706.5,846.5C 707.167,845.5 707.833,844.5 708.5,843.5C 709.15,843.196 709.817,842.863 710.5,842.5C 713.482,834.885 716.149,827.218 718.5,819.5C 720.612,815.965 722.779,812.298 725,808.5C 726.604,804.33 727.77,799.997 728.5,795.5C 728.925,791.326 730.425,787.66 733,784.5C 736.389,774.563 740.222,764.896 744.5,755.5C 751.155,741.836 760.822,739.17 773.5,747.5 Z"/></g>
<g><path style="opacity:0.302" fill="#eeb1b0" d="M 718.5,819.5 C 716.149,827.218 713.482,834.885 710.5,842.5C 709.817,842.863 709.15,843.196 708.5,843.5C 709.036,840.445 709.869,837.445 711,834.5C 713.59,829.321 716.09,824.321 718.5,819.5 Z"/></g>
<g><path style="opacity:0.314" fill="#ec9593" d="M 505.5,811.5 C 508.808,814.45 510.808,818.116 511.5,822.5C 508.192,819.55 506.192,815.884 505.5,811.5 Z"/></g>
<g><path style="opacity:0.314" fill="#eeb7b6" d="M 728.5,795.5 C 727.77,799.997 726.604,804.33 725,808.5C 722.779,812.298 720.612,815.965 718.5,819.5C 719.359,815.438 720.526,811.438 722,807.5C 724.929,803.783 727.095,799.783 728.5,795.5 Z"/></g>
<g><path style="opacity:0.329" fill="#e97674" d="M 501.5,802.5 C 503.245,804.033 504.245,806.033 504.5,808.5C 502.025,807.313 501.025,805.313 501.5,802.5 Z"/></g>
<g><path style="opacity:0.173" fill="#b9dcef" d="M 758.5,792.5 C 759.167,792.5 759.833,792.5 760.5,792.5C 763.597,801.891 765.93,811.558 767.5,821.5C 764.947,813.667 762.447,805.667 760,797.5C 757.617,802.645 755.617,807.978 754,813.5C 753.329,814.252 752.496,814.586 751.5,814.5C 753.11,808.614 755.277,802.947 758,797.5C 758.494,795.866 758.66,794.199 758.5,792.5 Z"/></g>
<g><path style="opacity:0.22" fill="#e45a5a" d="M 1053.5,861.5 C 998.961,862.175 944.294,862.842 889.5,863.5C 889.611,862.883 889.944,862.383 890.5,862C 944.832,861.5 999.166,861.333 1053.5,861.5 Z"/></g>
<g><path style="opacity:0.196" fill="#eb9e9e" d="M 706.5,846.5 C 705.949,849.807 705.616,853.14 705.5,856.5C 704.5,856.5 703.5,856.5 702.5,856.5C 702.335,858.827 701.669,860.993 700.5,863C 647.497,863.55 594.497,863.883 541.5,864C 539.859,862.871 538.859,861.371 538.5,859.5C 539.167,859.833 539.833,860.167 540.5,860.5C 540.611,861.117 540.944,861.617 541.5,862C 594.335,862.832 647.002,862.665 699.5,861.5C 702.116,856.603 704.45,851.603 706.5,846.5 Z"/></g>
<g><path style="opacity:0.22" fill="#e45757" d="M 540.5,860.5 C 593.496,861.268 646.496,861.602 699.5,861.5C 647.002,862.665 594.335,862.832 541.5,862C 540.944,861.617 540.611,861.117 540.5,860.5 Z"/></g>
<g><path style="opacity:0.243" fill="#eebab9" d="M 1059.5,855.5 C 1058.49,858.689 1056.82,861.523 1054.5,864C 999.833,864.333 945.167,864.667 890.5,865C 889.529,866.481 888.196,867.315 886.5,867.5C 887.5,866.167 888.5,864.833 889.5,863.5C 944.294,862.842 998.961,862.175 1053.5,861.5C 1053.5,861.167 1053.5,860.833 1053.5,860.5C 1055.5,858.833 1057.5,857.167 1059.5,855.5 Z"/></g>
<g><path style="opacity:0.261" fill="#f0e8e8" d="M 601.5,872.5 C 584.877,873.638 568.211,873.804 551.5,873C 545.023,873.235 539.69,871.068 535.5,866.5C 536.583,866.539 537.583,866.873 538.5,867.5C 539.696,867.154 539.696,866.654 538.5,866C 591.493,864.588 644.493,864.255 697.5,865C 698.727,866.587 698.394,867.921 696.5,869C 665.167,869.333 633.833,869.667 602.5,870C 601.748,870.671 601.414,871.504 601.5,872.5 Z"/></g>
<g><path style="opacity:0.365" fill="#efb8b7" d="M 812.5,869.5 C 816.309,878.818 819.309,888.485 821.5,898.5C 820.371,897.53 819.371,896.364 818.5,895C 818.335,889.522 816.668,884.688 813.5,880.5C 813.448,876.802 813.114,873.135 812.5,869.5 Z"/></g>
<g><path style="opacity:0.427" fill="#c9e5f2" d="M 787.5,884.5 C 788.117,884.611 788.617,884.944 789,885.5C 789.745,890.065 791.078,894.398 793,898.5C 793.77,906.272 795.604,913.605 798.5,920.5C 795.643,917.454 793.81,913.787 793,909.5C 791.377,901.084 789.544,892.751 787.5,884.5 Z"/></g>
<g><path style="opacity:0.628" fill="#9fd0e9" d="M 708.5,898.5 C 662.665,899.167 616.665,899.833 570.5,900.5C 572.605,902.592 574.272,904.925 575.5,907.5C 571.686,905.626 569.686,902.626 569.5,898.5C 615.833,898.5 662.167,898.5 708.5,898.5 Z"/></g>
<g><path style="opacity:0.626" fill="#9fcfe9" d="M 1022.5,901.5 C 1002.68,900.167 982.511,899.5 962,899.5C 941.833,899.667 921.667,899.833 901.5,900C 900.956,900.717 900.289,901.217 899.5,901.5C 899.414,900.504 899.748,899.671 900.5,899C 941.499,898.5 982.499,898.333 1023.5,898.5C 1023.74,899.791 1023.4,900.791 1022.5,901.5 Z"/></g>
<g><path style="opacity:0.333" fill="#eeb0af" d="M 872.5,892.5 C 872.238,897.072 871.072,901.406 869,905.5C 868.004,907.66 866.504,909.327 864.5,910.5C 865.711,906.034 867.211,901.7 869,897.5C 870.286,895.817 871.453,894.151 872.5,892.5 Z"/></g>
<g><path style="opacity:0.759" fill="#60b3da" d="M 1022.5,901.5 C 1020.87,905.652 1018.2,908.985 1014.5,911.5C 1016.38,908.412 1017.71,905.078 1018.5,901.5C 979.499,901.333 940.499,901.5 901.5,902C 900.947,903.878 899.947,905.378 898.5,906.5C 899.038,904.883 899.371,903.216 899.5,901.5C 900.289,901.217 900.956,900.717 901.5,900C 921.667,899.833 941.833,899.667 962,899.5C 982.511,899.5 1002.68,900.167 1022.5,901.5 Z"/></g>
<g><path style="opacity:0.826" fill="#52abd6" d="M 728.5,875.5 C 728.657,876.873 728.49,878.207 728,879.5C 725.524,884.59 722.857,889.59 720,894.5C 716.389,897.386 712.556,899.886 708.5,902C 664.163,902.167 619.83,902.667 575.5,903.5C 577.444,907.11 579.777,910.443 582.5,913.5C 584.5,912.833 586.5,912.167 588.5,911.5C 589.274,914.356 589.608,917.356 589.5,920.5C 591.356,922.536 592.856,924.869 594,927.5C 597.647,928.879 599.814,931.545 600.5,935.5C 602.124,935.64 603.29,934.973 604,933.5C 604.5,934.667 605.333,935.5 606.5,936C 605.833,936.333 605.167,936.667 604.5,937C 606.074,937.336 607.408,938.169 608.5,939.5C 607.391,941.214 608.058,941.881 610.5,941.5C 609.076,946.817 610.91,950.817 616,953.5C 616.422,955.355 616.922,957.189 617.5,959C 620.171,961.674 622.005,964.84 623,968.5C 626.917,971.242 629.417,974.909 630.5,979.5C 627.254,975.387 623.754,971.387 620,967.5C 616.03,960.543 611.696,953.876 607,947.5C 602.479,944.146 599.146,939.813 597,934.5C 593.265,929.941 589.432,925.607 585.5,921.5C 581.68,917.04 578.347,912.373 575.5,907.5C 574.272,904.925 572.605,902.592 570.5,900.5C 616.665,899.833 662.665,899.167 708.5,898.5C 712.032,897.147 715.199,895.147 718,892.5C 722.04,887.071 725.54,881.405 728.5,875.5 Z"/></g>
<g><path style="opacity:0.855" fill="#61b0d9" d="M 786.5,884.5 C 786.833,884.5 787.167,884.5 787.5,884.5C 789.544,892.751 791.377,901.084 793,909.5C 793.81,913.787 795.643,917.454 798.5,920.5C 798.337,922.857 798.503,925.19 799,927.5C 802.071,933.117 803.905,939.117 804.5,945.5C 803.414,945.38 802.747,944.713 802.5,943.5C 800.788,934.854 797.622,926.854 793,919.5C 789.692,908.055 787.525,896.389 786.5,884.5 Z"/></g>
<g><path style="opacity:0.376" fill="#c9e4f2" d="M 896.5,909.5 C 891.91,920.001 887.91,930.667 884.5,941.5C 881.309,945.884 878.642,950.55 876.5,955.5C 876.368,950.502 878.201,946.502 882,943.5C 882.539,940.471 883.206,937.471 884,934.5C 887.594,925.735 891.761,917.401 896.5,909.5 Z"/></g>
<g><path style="opacity:0.325" fill="#eea8a6" d="M 825.5,912.5 C 828.469,918.074 830.469,924.074 831.5,930.5C 830.482,927.665 828.982,924.998 827,922.5C 826.39,919.173 825.89,915.839 825.5,912.5 Z"/></g>
<g><path style="opacity:0.588" fill="#7ab8d9" d="M 1014.5,911.5 C 1011.93,915.306 1009.93,919.306 1008.5,923.5C 988.089,946.583 968.756,970.583 950.5,995.5C 960.269,979.549 971.436,964.549 984,950.5C 993.333,937.833 1002.67,925.167 1012,912.5C 1012.67,911.748 1013.5,911.414 1014.5,911.5 Z"/></g>
<g><path style="opacity:0.265" fill="#e7e3e5" d="M 585.5,921.5 C 589.432,925.607 593.265,929.941 597,934.5C 599.146,939.813 602.479,944.146 607,947.5C 611.696,953.876 616.03,960.543 620,967.5C 623.754,971.387 627.254,975.387 630.5,979.5C 652.976,1008.42 675.476,1037.42 698,1066.5C 702.414,1071.66 706.081,1077.32 709,1083.5C 710.351,1085.02 711.851,1086.35 713.5,1087.5C 714.709,1091.54 717.209,1094.54 721,1096.5C 726.279,1104.61 732.446,1111.94 739.5,1118.5C 743.658,1122.16 747.658,1125.99 751.5,1130C 759.989,1135.33 768.989,1139.5 778.5,1142.5C 779.347,1143.97 780.68,1144.8 782.5,1145C 798.455,1147.14 813.788,1145.14 828.5,1139C 829.381,1138.29 830.047,1137.46 830.5,1136.5C 835.216,1133.14 840.216,1130.14 845.5,1127.5C 851.076,1124.1 856.243,1120.1 861,1115.5C 866.718,1107.29 872.218,1098.95 877.5,1090.5C 894.073,1070.33 909.907,1049.66 925,1028.5C 929.983,1021.52 935.649,1015.19 942,1009.5C 944.06,1004.38 946.894,999.716 950.5,995.5C 968.756,970.583 988.089,946.583 1008.5,923.5C 1011.59,923.197 1013.25,924.53 1013.5,927.5C 1009.73,936.768 1003.89,944.434 996,950.5C 992.151,956.368 988.484,962.368 985,968.5C 981.097,973.281 976.764,977.614 972,981.5C 968.154,989.348 963.487,996.681 958,1003.5C 955.629,1006.21 952.963,1008.54 950,1010.5C 949.64,1012.61 948.973,1014.61 948,1016.5C 918.936,1051.57 890.603,1087.23 863,1123.5C 854.524,1129.97 846.024,1136.47 837.5,1143C 833.082,1144.81 828.749,1146.81 824.5,1149C 806.167,1149.67 787.833,1149.67 769.5,1149C 755.848,1143.27 743.682,1135.44 733,1125.5C 682.825,1060.47 632.658,995.47 582.5,930.5C 584.781,932.428 587.447,933.428 590.5,933.5C 589.227,929.35 587.56,925.35 585.5,921.5 Z"/></g>
<g><path style="opacity:0.778" fill="#68b4db" d="M 884.5,941.5 C 883.929,947.666 882.096,953.333 879,958.5C 877.684,963.097 876.684,967.764 876,972.5C 875.667,971.833 875.333,971.167 875,970.5C 874.529,972.246 873.862,973.913 873,975.5C 871,976.167 869.667,977.5 869,979.5C 866.417,985.534 864.751,991.867 864,998.5C 860.531,1005.67 856.031,1012.17 850.5,1018C 845.572,1019.42 840.572,1019.75 835.5,1019C 834.944,1018.62 834.611,1018.12 834.5,1017.5C 840.877,1019.68 846.377,1018.35 851,1013.5C 857.033,1003.71 861.7,993.381 865,982.5C 866.158,982.002 866.991,981.169 867.5,980C 870.69,971.828 873.69,963.661 876.5,955.5C 878.642,950.55 881.309,945.884 884.5,941.5 Z"/></g>
<g><path style="opacity:0.324" fill="#efb2b1" d="M 831.5,931.5 C 834.408,938.898 836.741,946.564 838.5,954.5C 837.5,952.5 836.5,950.5 835.5,948.5C 833.003,943.237 831.67,937.57 831.5,931.5 Z"/></g>
<g><path style="opacity:0.297" fill="#e9bbbb" d="M 858.5,926.5 C 858.11,929.839 857.61,933.173 857,936.5C 853.905,943.703 850.072,950.369 845.5,956.5C 845.343,955.127 845.51,953.793 846,952.5C 849.927,943.647 854.094,934.981 858.5,926.5 Z"/></g>
<g><path style="opacity:0.522" fill="#aecddf" d="M 877.5,1090.5 C 872.218,1098.95 866.718,1107.29 861,1115.5C 856.243,1120.1 851.076,1124.1 845.5,1127.5C 852.126,1121.87 858.126,1115.54 863.5,1108.5C 868.169,1102.49 872.836,1096.49 877.5,1090.5 Z"/></g>
<g><path style="opacity:0.864" fill="#4da6d2" d="M 863.5,1108.5 C 858.126,1115.54 852.126,1121.87 845.5,1127.5C 840.216,1130.14 835.216,1133.14 830.5,1136.5C 822.663,1138.9 814.663,1141.06 806.5,1143C 797.139,1143.72 787.806,1143.55 778.5,1142.5C 768.989,1139.5 759.989,1135.33 751.5,1130C 747.658,1125.99 743.658,1122.16 739.5,1118.5C 741.541,1118.85 743.374,1118.85 745,1118.5C 747.87,1122.51 751.703,1124.85 756.5,1125.5C 756.343,1126.87 756.51,1128.21 757,1129.5C 760.565,1132.41 764.565,1134.41 769,1135.5C 769.915,1134.67 770.581,1133.67 771,1132.5C 772.801,1135.16 775.301,1137 778.5,1138C 787.412,1138.82 796.245,1138.65 805,1137.5C 806.667,1140.17 808.333,1140.17 810,1137.5C 810.561,1138.02 811.228,1138.36 812,1138.5C 815.72,1137.14 819.553,1136.14 823.5,1135.5C 827.08,1132.44 831.08,1129.94 835.5,1128C 836.766,1127.69 837.933,1127.19 839,1126.5C 839.333,1126.83 839.667,1127.17 840,1127.5C 841.914,1124.13 844.748,1122.13 848.5,1121.5C 848.297,1119.61 848.963,1118.11 850.5,1117C 854.923,1114.22 859.256,1111.38 863.5,1108.5 Z"/></g>
<g><path style="opacity:0.51" fill="#bcd2e1" d="M 830.5,1136.5 C 830.047,1137.46 829.381,1138.29 828.5,1139C 813.788,1145.14 798.455,1147.14 782.5,1145C 780.68,1144.8 779.347,1143.97 778.5,1142.5C 787.806,1143.55 797.139,1143.72 806.5,1143C 814.663,1141.06 822.663,1138.9 830.5,1136.5 Z"/></g>
</svg>
